<svg width="5524" height="3820" viewBox="0 0 5524 3820" fill="none" xmlns="http://www.w3.org/2000/svg">
<rect width="5524" height="3820" fill="#F5F5F5"/>
<g clip-path="url(#clip0_0_1)">
<path d="M5524 0H0V3819.38H5524V0Z" fill="#191A2F"/>
<path d="M2374.99 2345.52C2378.99 2345.73 2381.96 2345.15 2382.55 2340.02C2384.28 2325.1 2393.83 2315.54 2405.91 2308.22C2422.3 2298.29 2440.56 2295.1 2459.38 2293.95C2529.51 2289.65 2590.1 2263.31 2640.5 2214.34C2660.04 2195.35 2675.49 2173.06 2685.43 2147.66C2692.21 2130.33 2698.09 2112.7 2701.54 2094.05C2705.88 2070.6 2706.84 2047.22 2706.84 2023.62C2706.84 1657.11 2706.82 1290.61 2707 924.1C2707 916.17 2705.57 910.45 2698.73 905.54C2690.87 899.9 2684.61 892.19 2680.15 883.56C2676.68 876.86 2671.95 874.89 2664.87 875.68C2656.94 876.56 2648.93 876.78 2640.96 877.28C2639.55 875.65 2638.23 875.89 2636.98 877.49L2604.95 881.2C2603.46 879.57 2602.17 880 2600.98 881.57C2554.9 888.67 2509.69 899.46 2465.17 913.27C2430.51 924.02 2396.43 936.41 2362.38 948.9C2302.74 970.78 2243.67 994.35 2182.07 1010.49C2139.08 1021.75 2095.49 1029.01 2050.94 1029.15C2030.27 1029.22 2009.72 1027.44 1989.28 1024.08C1980.31 1022.6 1971.23 1021.7 1961.42 1019.17C1961.77 1026.05 1963.44 1032.1 1966.05 1037.3C1972.14 1049.44 1975.01 1062.68 1980.07 1075.17C1985.95 1089.68 1990.69 1104.69 1996.17 1119.4C2000.87 1132.01 2004.1 1145.21 2009.33 1157.58C2014.69 1170.27 2018.3 1183.53 2023.6 1196.23C2028.44 1207.81 2032.28 1219.81 2036.54 1231.63C2041.74 1246.07 2046.97 1260.51 2052.09 1274.98C2056.49 1287.44 2060.65 1299.99 2065.1 1312.44C2069.83 1325.65 2074.82 1338.77 2079.63 1351.95C2084.05 1364.06 2088.39 1376.21 2092.76 1388.34C2097.85 1402.47 2103.29 1416.48 2107.9 1430.76C2111.76 1442.69 2116.49 1454.27 2120.69 1466.06C2125.73 1480.2 2130.81 1494.32 2135.89 1508.45C2140.12 1520.22 2144.38 1531.99 2148.61 1543.77C2153.03 1556.08 2157.74 1568.31 2161.73 1580.76C2166.56 1595.82 2172.96 1610.31 2177.27 1625.57C2180.02 1635.33 2184.02 1644.81 2187.73 1654.18C2196.07 1675.25 2202.81 1696.86 2210.91 1718C2215.62 1730.29 2219.58 1742.97 2224.17 1755.28C2228.96 1768.12 2232.86 1781.3 2238.26 1793.97C2241.84 1802.37 2244.37 1811.28 2247.56 1819.9C2249.26 1824.49 2251.77 1825.77 2256.37 1825.73C2275.69 1825.53 2295.02 1825.65 2315.04 1825.65C2313.91 1829.71 2310.43 1830.54 2307.95 1832.16C2255.71 1866.33 2199.43 1891.91 2140.29 1911.58C2101.22 1924.58 2061.51 1934.92 2020.83 1941.27C1967.45 1949.61 1913.81 1953.03 1859.74 1950.35C1826.07 1948.68 1792.59 1945.16 1759.57 1939.11C1723.67 1932.53 1688.42 1922.72 1653.88 1910.58C1596.26 1890.33 1542.86 1861.86 1492 1828.36C1491.47 1828.01 1491.04 1827.5 1490.19 1826.73C1492.55 1824.57 1495.28 1825.46 1497.66 1825.44C1514.99 1825.35 1532.32 1825.24 1549.65 1825.48C1554.39 1825.55 1557.11 1824.12 1558.25 1819.41C1561.98 1803.99 1568.62 1789.53 1573.82 1774.62C1578.32 1761.71 1582.64 1748.63 1587.95 1735.93C1593.02 1723.8 1596.64 1711.07 1601.08 1698.67C1605.81 1685.45 1610.76 1672.31 1615.57 1659.12C1619.98 1647 1624.34 1634.86 1628.7 1622.73C1633.79 1608.58 1638.87 1594.43 1643.95 1580.28C1648.2 1568.45 1652.43 1556.62 1656.68 1544.79C1661.76 1530.63 1666.84 1516.48 1671.91 1502.32C1676.24 1490.24 1680.53 1478.15 1684.86 1466.07C1689.83 1452.22 1694.87 1438.39 1699.78 1424.52C1704.95 1409.92 1709.43 1395.05 1715.27 1380.74C1719.86 1369.49 1723.35 1357.87 1727.5 1346.5C1732.91 1331.66 1738.74 1316.95 1743.28 1301.77C1746.54 1290.87 1751.28 1280.43 1755.21 1269.72C1760.45 1255.48 1766.19 1241.38 1770.49 1226.85C1773.85 1215.49 1778.8 1204.79 1782.36 1193.51C1787.49 1177.23 1793.91 1161.33 1799.41 1145.12C1802.97 1134.62 1807.46 1124.38 1811.16 1113.87C1816.42 1098.93 1821.68 1084 1827.03 1069.09C1831.77 1055.88 1836.62 1042.71 1841.42 1029.51C1845.7 1017.74 1849.74 1005.89 1854.35 994.25C1856.48 988.86 1854.57 986.63 1849.87 984.39C1831.12 975.48 1813.84 964.24 1798.19 950.56C1784.51 938.6 1772.72 925.25 1765.52 908.21C1762.06 900.02 1759.28 891.82 1759.12 882.86C1758.92 871.31 1757.95 859.83 1760.95 848.32C1764.62 834.19 1771.3 821.8 1781.3 811.49C1807.6 784.39 1839.56 769.93 1877.67 771.44C1909.96 772.72 1936.58 785.35 1954.88 813.09C1967.64 832.44 1967.71 859.08 1954.66 878.21C1947.83 888.22 1938.66 895.01 1926.65 897.69C1923.47 898.4 1920.37 899.44 1916.86 900.44C1920.25 909.16 1923.62 917.34 1926.56 925.67C1927.46 928.21 1928.67 929.03 1931.2 929.81C1960.03 938.67 1988.96 946.88 2019.18 949.67C2041.82 951.76 2064.42 951.86 2087.04 949.8C2088.49 951.43 2089.79 951.1 2091.02 949.53C2136.38 945.32 2179.68 932.61 2222.13 916.9C2286.56 893.07 2350.64 868.31 2415.08 844.51C2465.01 826.07 2515.93 810.71 2568.18 800.27C2593.26 795.26 2618.61 791.68 2644.14 789.59C2651.77 788.97 2659.4 788.31 2667.03 787.67C2668.41 789.26 2669.73 789.14 2671.02 787.55C2674.08 787.51 2676.87 787.28 2678.67 784.07C2684.79 773.19 2692.81 763.87 2702.77 756.35C2706.63 753.43 2706.4 749.48 2706.43 745.54C2706.54 730.54 2706.52 715.54 2706.57 700.55C2706.6 691.22 2706.89 681.88 2706.65 672.56C2706.54 668.3 2708.02 665.85 2711.8 663.99C2719 660.44 2725.4 655.7 2731.3 650.19C2737.13 644.75 2740.04 637.73 2741.96 630.45C2744.25 621.73 2739.38 614.38 2735.2 607.36C2732.86 603.44 2729.41 599.99 2725.89 597C2697.5 572.95 2699.93 533.8 2718.14 510.88C2733.65 491.35 2747.23 470.29 2761.6 450C2765.35 450.94 2766.32 454.07 2767.99 456.4C2781.74 475.65 2795.39 494.97 2809.07 514.27C2827.29 539.98 2824.39 572.29 2801.82 594.33C2797.29 598.75 2792.59 602.99 2789.02 608.3C2779.9 621.91 2780.7 635.42 2791.49 647.64C2797.07 653.96 2803.57 659.38 2811.18 662.76C2817.53 665.58 2818.88 669.63 2818.81 676.02C2818.53 699.01 2818.95 722.01 2818.77 745.01C2818.72 750.79 2820.15 754.93 2824.94 758.62C2833.17 764.96 2839.92 772.89 2845.06 781.96C2847.28 785.88 2849.98 787.29 2854.52 787.62C2885.37 789.88 2916 793.32 2946.55 798.83C2979.07 804.69 3010.89 812.81 3042.48 822.09C3060.4 827.35 3078.02 833.68 3095.67 839.82C3120.11 848.32 3144.21 857.75 3168.41 866.88C3188.55 874.48 3208.69 882.16 3228.85 889.74C3247.56 896.77 3266.18 904.25 3284.91 911.14C3331.43 928.25 3378.62 943.41 3428.28 948.89C3478.93 954.48 3528.66 950.87 3577.15 934.37C3584 932.04 3592.72 932.24 3597.17 926.69C3601.19 921.69 3602.07 914.09 3604.8 907.78C3608.07 900.23 3607.83 899.8 3599.73 898.02C3580.17 893.71 3568.48 880.91 3562.97 862.63C3558.59 848.1 3559.06 833.08 3566.65 819.46C3581.1 793.52 3602.75 778.06 3632.62 773.3C3677.16 766.19 3714.31 780.51 3744.2 812.4C3769.65 839.55 3772.08 872.43 3759.89 906.71C3755.59 918.8 3748.4 929.17 3739.52 938.44C3721.32 957.43 3700.12 972.2 3676.63 983.85C3668.9 987.69 3668.49 987.88 3671.23 996.43C3674.72 1007.3 3679.07 1017.89 3682.93 1028.65C3688.38 1043.86 3693.66 1059.13 3699.12 1074.33C3703.86 1087.52 3708.81 1100.65 3713.59 1113.83C3718.09 1126.21 3722.48 1138.63 3726.94 1151.03C3731.91 1164.84 3736.9 1178.65 3741.88 1192.46C3746.13 1204.23 3750.37 1216.01 3754.61 1227.78C3759.8 1242.22 3765.05 1256.65 3770.15 1271.12C3774.55 1283.58 3778.67 1296.14 3783.12 1308.59C3787.85 1321.81 3792.76 1334.97 3797.7 1348.11C3802.21 1360.12 3805.8 1372.44 3810.6 1384.37C3816.21 1398.3 3820.88 1412.62 3825.96 1426.77C3830.86 1440.41 3835.77 1454.05 3840.66 1467.69C3845.08 1480.01 3849.87 1492.21 3853.79 1504.69C3858.53 1519.78 3864.98 1534.24 3869.32 1549.48C3871.72 1557.91 3875.4 1566.03 3878.64 1574.2C3883.6 1586.69 3887.21 1599.62 3892.29 1612.07C3897.99 1626.06 3901.46 1640.98 3907.39 1654.86C3912.17 1666.06 3915.1 1677.83 3919.83 1689.03C3925.71 1702.96 3929.99 1717.56 3935.08 1731.83C3939.14 1743.23 3943.45 1754.55 3947.5 1765.96C3952.79 1780.86 3958.06 1795.77 3963.01 1810.78C3963.81 1813.21 3964.75 1815.69 3965.54 1818.12C3967.12 1822.99 3970.28 1825.82 3976.59 1825.62C3995.56 1825.03 4014.56 1825.41 4033.47 1825.41C4034.75 1828.6 4032.08 1828.9 4030.66 1829.85C3955.87 1879.86 3874.9 1915.43 3786.8 1934.44C3748.69 1942.66 3710.19 1947.55 3671.28 1950.02C3630.56 1952.61 3589.99 1951.3 3549.5 1947.23C3506.04 1942.86 3463.11 1935.16 3421.14 1922.87C3400.17 1916.73 3378.96 1911.03 3358.6 1903.22C3308.1 1883.84 3259.5 1860.44 3214.31 1830.4C3212.96 1829.5 3211.7 1828.47 3210.19 1827.34C3212.49 1824.58 3215.31 1825.76 3217.67 1825.75C3234.67 1825.63 3251.67 1825.42 3268.66 1825.85C3273.33 1825.97 3275.5 1823.96 3276.76 1820.42C3282.41 1804.62 3287.95 1788.76 3293.63 1773C3298.28 1760.11 3302.54 1747.01 3307.85 1734.31C3312.67 1722.78 3316.44 1710.8 3320.67 1699.02C3325.74 1684.88 3330.8 1670.73 3335.89 1656.59C3340.12 1644.81 3344.38 1633.04 3348.62 1621.26C3353.82 1606.81 3359.6 1592.54 3364.04 1577.86C3367.95 1564.91 3373.95 1552.77 3377.32 1539.61C3379.84 1529.8 3384.05 1520.37 3387.72 1510.97C3395.96 1489.85 3402.82 1468.25 3410.96 1447.11C3419.23 1425.62 3426.1 1403.59 3433.84 1381.88C3438.34 1369.24 3443.54 1356.86 3448.07 1344.23C3455.61 1323.24 3462.78 1302.12 3470.28 1281.11C3475.24 1267.22 3480.65 1253.48 3485.59 1239.58C3493.18 1218.25 3499.88 1196.57 3508.2 1175.53C3516.18 1155.37 3523.02 1134.82 3530.34 1114.45C3535.45 1100.23 3540.49 1085.9 3545.61 1071.69C3550.16 1059.06 3553.52 1045.9 3559.5 1033.76C3560.82 1031.09 3561.81 1028.21 3562.58 1025.33C3563.91 1020.4 3562.72 1019.19 3557.86 1020.28C3530.97 1026.35 3503.67 1028.98 3476.18 1029.2C3449.48 1029.41 3423.05 1026.3 3396.65 1022.24C3368.69 1017.93 3341.42 1010.62 3314.39 1002.9C3294.27 997.15 3274.07 991.1 3254.55 983.09C3235.12 975.13 3215.27 968.15 3195.42 961.28C3178.68 955.48 3162.02 949.39 3145.41 943.27C3118.41 933.32 3091.49 923.15 3063.97 914.72C3037.62 906.65 3011.2 898.87 2984.22 893.05C2952.75 886.26 2921.1 880.65 2889.03 877.64C2887.79 876.05 2886.47 875.76 2885.04 877.41C2875.06 876.86 2865.08 876.38 2855.12 875.71C2851.4 875.46 2848.96 876.56 2847.09 880.02C2840.83 891.6 2832.33 901.38 2821.94 909.44C2819.27 911.51 2818.25 913.93 2818.41 917.17C2818.54 919.83 2818.43 922.5 2818.43 925.17C2818.43 1293.1 2818.46 1661.03 2818.35 2028.96C2818.35 2052.34 2819.16 2075.65 2823.52 2098.58C2826.18 2112.53 2830.55 2126.21 2835.8 2139.51C2857.46 2194.31 2896.28 2233.19 2947.43 2261C2966.34 2271.28 2986.24 2279.26 3006.69 2284.97C3025.76 2290.3 3045.44 2294.18 3065.67 2294.25C3083.12 2294.31 3100.12 2297.84 3115.69 2306.32C3129.72 2313.97 3140.64 2324.29 3142.83 2341.11C3143.5 2346.25 3146.9 2345.46 3150.09 2345.5C3172.75 2345.77 3195.41 2346.24 3218.07 2346.19C3275.72 2346.07 3333.38 2345.87 3391.03 2345.34C3408.05 2345.18 3424.84 2346.83 3441.43 2350.02C3455.15 2352.66 3468.18 2357.72 3479.62 2366.04C3493.89 2376.42 3501.44 2390.71 3503.09 2408.13C3503.82 2415.84 3503.59 2416 3495.93 2416.1C3467.27 2416.47 3438.62 2416.97 3409.96 2416.99C3194.67 2417.19 2979.38 2417.41 2764.09 2417.38C2539.8 2417.35 2315.51 2417.07 2091.22 2416.84C2070.23 2416.82 2049.23 2416.43 2028.24 2416.09C2021.24 2415.98 2020.84 2415.39 2021.6 2408.58C2023.9 2387.98 2033.79 2372.26 2051.81 2361.8C2065.87 2353.64 2081.3 2349.91 2097.19 2347.55C2110.09 2345.63 2123.07 2345.41 2136.07 2345.43C2212.39 2345.56 2288.7 2346.89 2365.02 2345.76C2368.38 2347.92 2371.71 2347.84 2375 2345.61L2374.99 2345.52ZM3961.32 1825.35C3861.25 1546.5 3761.71 1269.15 3661.97 991.22C3653.52 994.27 3645.49 997.23 3637.41 1000.06C3625.88 1004.1 3625.86 1004.06 3625.85 1016.68C3625.71 1281.94 3625.58 1547.21 3625.45 1812.47C3625.45 1814.47 3625.61 1816.49 3625.42 1818.47C3624.93 1823.44 3626.62 1826.1 3632.05 1825.47C3634.02 1825.24 3636.04 1825.44 3638.04 1825.44C3742.01 1825.41 3845.99 1825.38 3949.96 1825.36C3953.27 1825.36 3956.58 1825.36 3961.32 1825.36V1825.35ZM1899.23 1414.8H1899.02C1899.02 1302.48 1899.02 1190.15 1899.02 1077.83C1899.02 1055.5 1898.93 1033.17 1899.06 1010.84C1899.09 1006.4 1898.4 1003.75 1893.19 1002.56C1887.24 1001.2 1881.54 998.57 1875.87 996.03C1871.73 994.18 1867.13 990.19 1862.95 992.05C1859.37 993.64 1860.37 999.67 1858.49 1003.44C1852 1016.43 1848.95 1030.69 1843.33 1044.06C1837.35 1058.29 1833.51 1073.4 1827.96 1087.82C1823.14 1100.37 1819.1 1113.16 1814.53 1125.78C1809.59 1139.41 1805.12 1153.23 1799.57 1166.6C1794.92 1177.82 1791.86 1189.54 1787.26 1200.79C1781.41 1215.1 1776.9 1229.95 1771.76 1244.55C1767.41 1256.9 1763.01 1269.22 1758.59 1281.54C1753.69 1295.18 1748.73 1308.8 1743.83 1322.44C1739.4 1334.76 1735.04 1347.1 1730.63 1359.42C1725.86 1372.75 1721.8 1386.41 1716.06 1399.31C1711.1 1410.46 1707.8 1422.18 1703.66 1433.53C1698.96 1446.44 1694.24 1459.48 1689.64 1472.46C1685.16 1485.11 1680.83 1497.91 1675.98 1510.47C1672.23 1520.18 1668.43 1530.03 1665.08 1539.97C1660.03 1554.96 1654.9 1569.92 1649.56 1584.8C1645.69 1595.58 1641.23 1606.19 1637.52 1616.98C1631.95 1633.16 1625.65 1649.08 1620.4 1665.35C1616.98 1675.97 1612.53 1686.17 1609 1696.72C1603.98 1711.73 1598.56 1726.6 1593.29 1741.51C1589.15 1753.21 1584.98 1764.9 1580.8 1776.59C1575.91 1790.25 1571.25 1803.99 1566 1817.51C1563.16 1824.82 1562.95 1825.24 1570.43 1825.31C1584.43 1825.44 1598.43 1825.36 1612.43 1825.36C1704.76 1825.38 1797.08 1825.41 1889.41 1825.42C1899.64 1825.42 1899.23 1826.42 1899.23 1815.77C1899.23 1814.77 1899.23 1813.77 1899.23 1812.77C1899.23 1680.11 1899.23 1547.46 1899.23 1414.8ZM3617.82 1006.38C3604.39 1009.57 3590.89 1012.8 3577.37 1015.99C3574.53 1016.66 3572.61 1018.28 3571.82 1021.1C3569.97 1027.71 3566.49 1033.64 3564.59 1040.33C3561.09 1052.66 3556.16 1064.58 3551.81 1076.67C3546.84 1090.49 3541.84 1104.3 3536.88 1118.13C3532.52 1130.27 3528.21 1142.42 3523.85 1154.55C3518.88 1168.38 3513.87 1182.19 3508.88 1196.02C3504.41 1208.4 3499.95 1220.77 3495.5 1233.15C3491.3 1244.84 3487.15 1256.56 3482.92 1268.24C3477.53 1283.11 3472.08 1297.95 3466.63 1312.8C3462.82 1323.19 3458.84 1333.51 3455.15 1343.94C3449.88 1358.84 3444.85 1373.83 3439.62 1388.74C3435.41 1400.77 3431.07 1412.75 3426.76 1424.75C3422.42 1436.84 3418.07 1448.92 3413.7 1460.99C3408.81 1474.48 3403.85 1487.94 3399 1501.45C3394.55 1513.85 3390.3 1526.32 3385.79 1538.69C3380.99 1551.89 3375.87 1564.97 3371.13 1578.18C3366.67 1590.62 3362.63 1603.2 3358.23 1615.66C3353.12 1630.15 3348.25 1644.74 3342.5 1658.97C3337.68 1670.89 3334.09 1683.21 3329.53 1695.21C3325.12 1706.82 3321.12 1718.6 3316.92 1730.29C3311.79 1744.56 3306.99 1758.95 3301.39 1773.03C3297.18 1783.63 3293.55 1794.46 3289.6 1805.14C3287.3 1811.36 3284.15 1817.88 3283.84 1825.21C3286.17 1825.35 3288.15 1825.58 3290.12 1825.57C3396.77 1825.56 3503.41 1825.54 3610.06 1825.49C3618.82 1825.49 3618.82 1825.38 3618.96 1816.73C3618.98 1815.73 3618.96 1814.73 3618.96 1813.73C3618.94 1548.12 3618.92 1282.5 3618.86 1016.89C3618.86 1013.61 3619.52 1010.23 3617.83 1006.38H3617.82ZM1907.38 1006.36C1905.9 1011.57 1906.37 1015.57 1906.36 1019.51C1906.31 1153.13 1906.29 1286.75 1906.27 1420.37C1906.25 1551.66 1906.22 1682.94 1906.21 1814.23C1906.21 1825.42 1906.24 1825.5 1915.65 1825.5C2021.61 1825.55 2127.57 1825.57 2233.54 1825.56C2236.01 1825.56 2238.72 1826.18 2241.34 1824.16C2240.67 1822.01 2240.14 1820.13 2239.49 1818.3C2235.89 1808.08 2232.29 1797.87 2228.62 1787.67C2223.59 1773.72 2218.79 1759.67 2213.35 1745.88C2209.16 1735.26 2205.02 1724.55 2201.49 1713.79C2196.57 1698.76 2190.54 1684.14 2185.79 1669.05C2182.36 1658.14 2177.26 1647.67 2173.93 1636.81C2169.96 1623.88 2164.99 1611.33 2160.37 1598.72C2152.69 1577.79 2145.78 1556.58 2137.6 1535.8C2133.92 1526.44 2130.29 1516.86 2127.06 1507.22C2122.04 1492.22 2116.97 1477.24 2111.57 1462.38C2107.65 1451.61 2103.01 1440.99 2099.63 1430.15C2095.71 1417.56 2091 1405.24 2086.45 1392.97C2078.7 1372.06 2071.87 1350.81 2063.66 1330.04C2059.95 1320.67 2055.78 1311.22 2053.26 1301.41C2049.89 1288.26 2043.9 1276.11 2039.96 1263.17C2035.49 1248.5 2029.75 1234.21 2024.54 1219.76C2020.28 1207.94 2016.39 1195.97 2011.62 1184.36C2006.4 1171.64 2002.7 1158.4 1997.32 1145.71C1992.08 1133.34 1989.35 1119.91 1983.99 1107.6C1979.13 1096.42 1975.83 1084.72 1971.52 1073.4C1964.88 1055.96 1958.8 1038.23 1952.88 1020.48C1952.03 1017.93 1950.38 1016.62 1947.99 1016.05C1934.76 1012.86 1921.52 1009.72 1907.37 1006.35L1907.38 1006.36ZM3642.2 909.51C3655.93 902.34 3667.89 892.59 3677.21 879.74C3685.83 867.88 3685.97 852.89 3677.8 840.5C3664.73 820.69 3632.93 810.3 3609.72 823.56C3590.86 834.34 3589.74 860.36 3607.9 872.3C3613.81 876.19 3614.31 876.49 3617.68 870.82C3620.06 866.82 3623.51 866.18 3625.59 868.61C3630.03 873.81 3633.19 870.58 3636.49 868.07C3641.26 864.43 3643.62 859.5 3643.44 853.34C3643.3 848.56 3641.54 844.29 3640.03 839.88C3637.83 833.47 3639.03 832.22 3645.92 833.21C3662.89 835.65 3672.22 855.56 3663.56 871.01C3658.54 879.97 3650.88 886.27 3642.27 891.6C3635.61 895.72 3635.62 895.82 3638.37 903.3C3639.15 905.41 3639.2 907.99 3642.2 909.51ZM1908.34 875.37C1918.72 871.6 1920.78 870.71 1923.47 867.05C1934.83 851.64 1929.63 831.41 1915.87 823.99C1897.46 814.08 1879.42 815.55 1862.01 826.33C1837.75 841.35 1834.29 865.45 1853.2 886.54C1861.86 896.2 1871.87 904.11 1883.64 909.85C1884.96 906.53 1886.19 904.19 1886.81 901.7C1887.8 897.78 1888.68 894.4 1883.38 891.72C1873.78 886.86 1865.82 879.67 1860.79 869.86C1853.75 856.12 1860.79 838.81 1875.37 834.02C1878.11 833.12 1881.64 831.6 1883.92 833.66C1886.21 835.73 1885.08 839.19 1884.13 842.06C1883.29 844.58 1882.3 847.08 1881.75 849.66C1879.92 858.19 1884.09 866.59 1891.91 870.42C1893.68 871.29 1895.24 871.88 1897.42 870.68C1905.33 866.34 1905.4 866.47 1908.33 875.35L1908.34 875.37ZM3618.18 900.08C3612.57 905.58 3608.71 915.52 3608.36 924.46C3611.98 922.28 3617.89 923.57 3618.58 918.06C3619.3 912.39 3619.45 906.47 3618.18 900.08ZM1907.84 899.81C1905.58 906.26 1906.31 910.93 1906.43 915.49C1906.63 922.61 1908.19 923.52 1917.01 922.53C1914.24 915.42 1913.95 907.41 1907.84 899.81ZM1898.92 916.68C1898.43 910.16 1900.29 904.42 1897.48 898.47C1894.17 901.4 1893.8 904.82 1892.75 907.84C1890.76 913.55 1890.86 913.58 1898.92 916.68ZM3627.59 898.21C3625.49 904.08 3626.27 908.35 3626.27 912.54C3626.27 914.84 3627.25 916.22 3629.93 915.69C3632.33 915.21 3633.36 913.8 3633.04 911.51C3632.46 907.28 3631.11 903.32 3627.58 898.22L3627.59 898.21Z" fill="white"/>
<path d="M432 2985.38V2670.38H580.95C615.75 2670.38 646.35 2676.83 672.75 2689.73C699.15 2702.63 719.7 2720.78 734.4 2744.18C749.4 2767.58 756.9 2795.48 756.9 2827.88C756.9 2859.98 749.4 2887.88 734.4 2911.58C719.7 2934.98 699.15 2953.13 672.75 2966.03C646.35 2978.93 615.75 2985.38 580.95 2985.38H432ZM521.1 2914.28H577.35C595.35 2914.28 610.95 2910.98 624.15 2904.38C637.65 2897.48 648.15 2887.58 655.65 2874.68C663.15 2861.48 666.9 2845.88 666.9 2827.88C666.9 2809.58 663.15 2793.98 655.65 2781.08C648.15 2768.18 637.65 2758.43 624.15 2751.83C610.95 2744.93 595.35 2741.48 577.35 2741.48H521.1V2914.28ZM885.677 2792.33H1031.93V2858.93H885.677V2792.33ZM891.977 2916.53H1056.68V2985.38H803.777V2670.38H1050.83V2739.23H891.977V2916.53ZM1188.92 2808.53H1334.27V2877.38H1188.92V2808.53ZM1195.22 2985.38H1106.12V2670.38H1353.17V2739.23H1195.22V2985.38ZM1476.74 2792.33H1622.99V2858.93H1476.74V2792.33ZM1483.04 2916.53H1647.74V2985.38H1394.84V2670.38H1641.89V2739.23H1483.04V2916.53ZM1697.18 2985.38V2670.38H1770.53L1944.23 2880.08H1909.58V2670.38H1996.88V2985.38H1923.53L1749.83 2775.68H1784.48V2985.38H1697.18ZM2170.43 2991.68C2144.63 2991.68 2119.73 2988.53 2095.73 2982.23C2072.03 2975.63 2052.68 2967.23 2037.68 2957.03L2066.93 2891.33C2081.03 2900.33 2097.23 2907.83 2115.53 2913.83C2134.13 2919.53 2152.58 2922.38 2170.88 2922.38C2183.18 2922.38 2193.08 2921.33 2200.58 2919.23C2208.08 2916.83 2213.48 2913.83 2216.78 2910.23C2220.38 2906.33 2222.18 2901.83 2222.18 2896.73C2222.18 2889.53 2218.88 2883.83 2212.28 2879.63C2205.68 2875.43 2197.13 2871.98 2186.63 2869.28C2176.13 2866.58 2164.43 2863.88 2151.53 2861.18C2138.93 2858.48 2126.18 2855.03 2113.28 2850.83C2100.68 2846.63 2089.13 2841.23 2078.63 2834.63C2068.13 2827.73 2059.58 2818.88 2052.98 2808.08C2046.38 2796.98 2043.08 2783.03 2043.08 2766.23C2043.08 2747.33 2048.18 2730.23 2058.38 2714.93C2068.88 2699.63 2084.48 2687.33 2105.18 2678.03C2125.88 2668.73 2151.68 2664.08 2182.58 2664.08C2203.28 2664.08 2223.53 2666.48 2243.33 2671.28C2263.43 2675.78 2281.28 2682.53 2296.88 2691.53L2269.43 2757.68C2254.43 2749.58 2239.58 2743.58 2224.88 2739.68C2210.18 2735.48 2195.93 2733.38 2182.13 2733.38C2169.83 2733.38 2159.93 2734.73 2152.43 2737.43C2144.93 2739.83 2139.53 2743.13 2136.23 2747.33C2132.93 2751.53 2131.28 2756.33 2131.28 2761.73C2131.28 2768.63 2134.43 2774.18 2140.73 2778.38C2147.33 2782.28 2155.88 2785.58 2166.38 2788.28C2177.18 2790.68 2188.88 2793.23 2201.48 2795.93C2214.38 2798.63 2227.13 2802.08 2239.73 2806.28C2252.63 2810.18 2264.33 2815.58 2274.83 2822.48C2285.33 2829.08 2293.73 2837.93 2300.03 2849.03C2306.63 2859.83 2309.93 2873.48 2309.93 2889.98C2309.93 2908.28 2304.68 2925.23 2294.18 2940.83C2283.98 2956.13 2268.53 2968.43 2247.83 2977.73C2227.43 2987.03 2201.63 2991.68 2170.43 2991.68ZM2313.29 2985.38L2452.34 2670.38H2540.09L2679.59 2985.38H2586.89L2477.99 2714.03H2513.09L2404.19 2985.38H2313.29ZM2389.34 2924.18L2412.29 2858.48H2566.19L2589.14 2924.18H2389.34ZM2835.81 2985.38V2670.38H2924.91V2914.73H3075.21V2985.38H2835.81ZM3075.74 2985.38L3214.79 2670.38H3302.54L3442.04 2985.38H3349.34L3240.44 2714.03H3275.54L3166.64 2985.38H3075.74ZM3151.79 2924.18L3174.74 2858.48H3328.64L3351.59 2924.18H3151.79ZM3467.3 2985.38V2670.38H3628.4C3669.8 2670.38 3700.7 2678.03 3721.1 2693.33C3741.5 2708.33 3751.7 2728.13 3751.7 2752.73C3751.7 2768.93 3747.35 2783.18 3738.65 2795.48C3730.25 2807.48 3718.25 2817.08 3702.65 2824.28C3687.35 2831.18 3669.05 2834.63 3647.75 2834.63L3656.75 2813.03C3678.95 2813.03 3698.3 2816.48 3714.8 2823.38C3731.3 2829.98 3744.05 2839.73 3753.05 2852.63C3762.35 2865.23 3767 2880.68 3767 2898.98C3767 2926.28 3755.9 2947.58 3733.7 2962.88C3711.8 2977.88 3679.7 2985.38 3637.4 2985.38H3467.3ZM3555.5 2921.03H3630.2C3645.5 2921.03 3657.05 2918.48 3664.85 2913.38C3672.95 2907.98 3677 2899.88 3677 2889.08C3677 2878.28 3672.95 2870.33 3664.85 2865.23C3657.05 2859.83 3645.5 2857.13 3630.2 2857.13H3549.2V2795.48H3616.7C3631.7 2795.48 3642.95 2792.93 3650.45 2787.83C3657.95 2782.73 3661.7 2775.08 3661.7 2764.88C3661.7 2754.68 3657.95 2747.18 3650.45 2742.38C3642.95 2737.28 3631.7 2734.73 3616.7 2734.73H3555.5V2921.03ZM3972 2991.68C3946.8 2991.68 3923.55 2987.63 3902.25 2979.53C3880.95 2971.43 3862.35 2960.03 3846.45 2945.33C3830.85 2930.33 3818.7 2912.93 3810 2893.13C3801.3 2873.33 3796.95 2851.58 3796.95 2827.88C3796.95 2804.18 3801.3 2782.43 3810 2762.63C3818.7 2742.83 3830.85 2725.58 3846.45 2710.88C3862.35 2695.88 3880.95 2684.33 3902.25 2676.23C3923.55 2668.13 3946.8 2664.08 3972 2664.08C3997.5 2664.08 4020.75 2668.13 4041.75 2676.23C4063.05 2684.33 4081.5 2695.88 4097.1 2710.88C4112.7 2725.58 4124.85 2742.83 4133.55 2762.63C4142.55 2782.43 4147.05 2804.18 4147.05 2827.88C4147.05 2851.58 4142.55 2873.48 4133.55 2893.58C4124.85 2913.38 4112.7 2930.63 4097.1 2945.33C4081.5 2960.03 4063.05 2971.43 4041.75 2979.53C4020.75 2987.63 3997.5 2991.68 3972 2991.68ZM3972 2917.88C3984 2917.88 3995.1 2915.78 4005.3 2911.58C4015.8 2907.38 4024.8 2901.38 4032.3 2893.58C4040.1 2885.48 4046.1 2875.88 4050.3 2864.78C4054.8 2853.68 4057.05 2841.38 4057.05 2827.88C4057.05 2814.08 4054.8 2801.78 4050.3 2790.98C4046.1 2779.88 4040.1 2770.43 4032.3 2762.63C4024.8 2754.53 4015.8 2748.38 4005.3 2744.18C3995.1 2739.98 3984 2737.88 3972 2737.88C3960 2737.88 3948.75 2739.98 3938.25 2744.18C3928.05 2748.38 3919.05 2754.53 3911.25 2762.63C3903.75 2770.43 3897.75 2779.88 3893.25 2790.98C3889.05 2801.78 3886.95 2814.08 3886.95 2827.88C3886.95 2841.38 3889.05 2853.68 3893.25 2864.78C3897.75 2875.88 3903.75 2885.48 3911.25 2893.58C3919.05 2901.38 3928.05 2907.38 3938.25 2911.58C3948.75 2915.78 3960 2917.88 3972 2917.88ZM4193.72 2985.38V2670.38H4337.72C4366.52 2670.38 4391.27 2675.03 4411.97 2684.33C4432.97 2693.63 4449.17 2707.13 4460.57 2724.83C4471.97 2742.23 4477.67 2762.93 4477.67 2786.93C4477.67 2810.63 4471.97 2831.18 4460.57 2848.58C4449.17 2865.68 4432.97 2878.88 4411.97 2888.18C4391.27 2897.18 4366.52 2901.68 4337.72 2901.68H4243.22L4282.82 2864.33V2985.38H4193.72ZM4388.57 2985.38L4310.27 2870.63H4405.22L4483.97 2985.38H4388.57ZM4282.82 2873.78L4243.22 2832.83H4332.32C4350.92 2832.83 4364.72 2828.78 4373.72 2820.68C4383.02 2812.58 4387.67 2801.33 4387.67 2786.93C4387.67 2772.23 4383.02 2760.83 4373.72 2752.73C4364.72 2744.63 4350.92 2740.58 4332.32 2740.58H4243.22L4282.82 2699.63V2873.78ZM4489.02 2985.38L4628.07 2670.38H4715.82L4855.32 2985.38H4762.62L4653.72 2714.03H4688.82L4579.92 2985.38H4489.02ZM4565.07 2924.18L4588.02 2858.48H4741.92L4764.87 2924.18H4565.07ZM4880.58 2985.38V2670.38H4969.68V2914.73H5119.98V2985.38H4880.58Z" fill="white"/>
<path d="M4703.55 3332.48C4693.65 3332.48 4684.4 3331.28 4675.77 3328.88C4667.15 3326.48 4660.51 3323.58 4655.85 3320.19L4666.87 3299.84C4671.53 3303.09 4677.33 3305.77 4684.25 3307.89C4691.32 3309.87 4698.67 3310.86 4706.3 3310.86C4715.06 3310.86 4721.5 3309.66 4725.59 3307.26C4729.83 3304.85 4731.95 3301.53 4731.95 3297.29C4731.95 3294.18 4730.47 3291.85 4727.5 3290.3C4724.53 3288.74 4720.72 3287.47 4716.05 3286.48C4711.53 3285.49 4706.58 3284.43 4701.21 3283.3C4695.98 3282.17 4691.04 3280.61 4686.37 3278.64C4681.85 3276.66 4678.11 3273.76 4675.14 3269.94C4672.17 3266.13 4670.69 3261.04 4670.69 3254.68C4670.69 3246.62 4672.95 3239.77 4677.47 3234.12C4681.99 3228.46 4688.28 3224.15 4696.34 3221.18C4704.53 3218.07 4713.93 3216.52 4724.53 3216.52C4732.17 3216.52 4739.66 3217.37 4747.01 3219.06C4754.35 3220.76 4760.43 3223.16 4765.24 3226.27L4755.49 3246.62C4750.4 3243.37 4744.89 3241.11 4738.95 3239.84C4733.16 3238.57 4727.5 3237.93 4721.99 3237.93C4713.37 3237.93 4706.94 3239.27 4702.7 3241.96C4698.6 3244.5 4696.55 3247.75 4696.55 3251.71C4696.55 3254.82 4698.03 3257.22 4701 3258.92C4703.97 3260.62 4707.72 3262.03 4712.24 3263.16C4716.9 3264.15 4721.85 3265.21 4727.08 3266.34C4732.45 3267.33 4737.4 3268.81 4741.92 3270.79C4746.58 3272.77 4750.4 3275.67 4753.37 3279.48C4756.33 3283.16 4757.82 3288.11 4757.82 3294.32C4757.82 3302.52 4755.49 3309.52 4750.82 3315.31C4746.3 3320.97 4739.94 3325.28 4731.74 3328.24C4723.54 3331.07 4714.15 3332.48 4703.55 3332.48Z" fill="white"/>
<path d="M4596.88 3332.48C4585.57 3332.48 4575.75 3330.43 4567.41 3326.34C4559.07 3322.1 4552.57 3316.3 4547.91 3308.95C4543.38 3301.46 4541.12 3292.7 4541.12 3282.66C4541.12 3269.8 4543.95 3258.43 4549.6 3248.53C4555.26 3238.64 4562.96 3230.87 4572.71 3225.21C4582.6 3219.42 4593.84 3216.52 4606.42 3216.52C4617.02 3216.52 4626.21 3218.5 4633.98 3222.46C4641.75 3226.41 4647.76 3232.14 4652 3239.63C4656.38 3246.98 4658.57 3255.81 4658.57 3266.13C4658.57 3268.81 4658.43 3271.57 4658.15 3274.4C4657.86 3277.22 4657.44 3279.84 4656.88 3282.24H4560.84L4563.81 3264.64H4644.37L4633.56 3270.58C4634.69 3263.37 4634.19 3257.37 4632.07 3252.56C4629.95 3247.75 4626.56 3244.08 4621.9 3241.54C4617.23 3238.99 4611.65 3237.72 4605.15 3237.72C4597.37 3237.72 4590.59 3239.56 4584.8 3243.23C4579.14 3246.77 4574.76 3251.85 4571.65 3258.5C4568.54 3265 4566.99 3272.63 4566.99 3281.39C4566.99 3290.58 4569.6 3297.65 4574.83 3302.59C4580.2 3307.54 4588.47 3310.01 4599.64 3310.01C4606 3310.01 4612.07 3309.02 4617.87 3307.04C4623.66 3304.92 4628.47 3302.03 4632.28 3298.35L4643.31 3316.8C4637.37 3322.03 4630.3 3325.98 4622.11 3328.67C4614.05 3331.21 4605.64 3332.48 4596.88 3332.48Z" fill="white"/>
<path d="M4459.47 3331L4481.94 3217.79H4507.17L4500.81 3250.02L4498.48 3240.69C4503.71 3231.5 4510.35 3225.21 4518.41 3221.82C4526.46 3218.29 4536.29 3216.52 4547.87 3216.52L4543 3241.75C4541.87 3241.47 4540.81 3241.32 4539.82 3241.32C4538.83 3241.18 4537.7 3241.11 4536.43 3241.11C4526.11 3241.11 4517.56 3243.87 4510.77 3249.38C4503.99 3254.75 4499.47 3263.37 4497.21 3275.24L4485.97 3331H4459.47Z" fill="white"/>
<path d="M4385.16 3332.48C4374.13 3332.48 4364.45 3330.43 4356.11 3326.34C4347.92 3322.1 4341.56 3316.3 4337.03 3308.95C4332.51 3301.46 4330.25 3292.7 4330.25 3282.66C4330.25 3269.94 4333.15 3258.64 4338.94 3248.74C4344.74 3238.71 4352.65 3230.87 4362.69 3225.21C4372.86 3219.42 4384.45 3216.52 4397.45 3216.52C4408.62 3216.52 4418.3 3218.57 4426.5 3222.67C4434.84 3226.63 4441.27 3232.35 4445.79 3239.84C4450.31 3247.19 4452.57 3255.95 4452.57 3266.13C4452.57 3278.71 4449.68 3290.01 4443.88 3300.05C4438.09 3310.08 4430.1 3318 4419.93 3323.79C4409.89 3329.59 4398.3 3332.48 4385.16 3332.48ZM4386.85 3309.8C4394.49 3309.8 4401.2 3308.03 4406.99 3304.5C4412.79 3300.83 4417.38 3295.81 4420.77 3289.45C4424.17 3283.09 4425.86 3275.74 4425.86 3267.4C4425.86 3258.64 4423.25 3251.71 4418.02 3246.62C4412.79 3241.54 4405.44 3238.99 4395.97 3238.99C4388.48 3238.99 4381.77 3240.83 4375.83 3244.5C4370.04 3248.04 4365.44 3252.98 4362.05 3259.34C4358.66 3265.7 4356.96 3273.05 4356.96 3281.39C4356.96 3290.3 4359.58 3297.29 4364.81 3302.38C4370.04 3307.33 4377.38 3309.8 4386.85 3309.8Z" fill="white"/>
<path d="M4241.1 3332.48C4231.91 3332.48 4223.5 3330.51 4215.87 3326.55C4208.24 3322.59 4202.23 3316.94 4197.85 3309.59C4193.47 3302.1 4191.28 3293.12 4191.28 3282.66C4191.28 3273.05 4192.83 3264.22 4195.94 3256.16C4199.19 3248.11 4203.72 3241.11 4209.51 3235.18C4215.31 3229.24 4222.02 3224.65 4229.65 3221.4C4237.42 3218.15 4245.83 3216.52 4254.88 3216.52C4264.21 3216.52 4272.26 3218.15 4279.05 3221.4C4285.83 3224.65 4291.06 3229.52 4294.73 3236.02C4298.41 3242.53 4300.25 3250.58 4300.25 3260.19C4300.25 3270.79 4298.9 3280.54 4296.22 3289.45C4293.53 3298.21 4289.65 3305.84 4284.56 3312.34C4279.47 3318.7 4273.25 3323.65 4265.9 3327.18C4258.69 3330.72 4250.43 3332.48 4241.1 3332.48ZM4247.88 3309.8C4255.37 3309.8 4262.02 3308.03 4267.81 3304.5C4273.75 3300.83 4278.34 3295.81 4281.59 3289.45C4284.98 3283.09 4286.68 3275.74 4286.68 3267.4C4286.68 3258.64 4284.06 3251.71 4278.83 3246.62C4273.75 3241.54 4266.4 3238.99 4256.79 3238.99C4249.44 3238.99 4242.79 3240.83 4236.86 3244.5C4230.92 3248.04 4226.26 3252.98 4222.87 3259.34C4219.62 3265.7 4217.99 3273.05 4217.99 3281.39C4217.99 3290.15 4220.53 3297.08 4225.62 3302.17C4230.85 3307.26 4238.27 3309.8 4247.88 3309.8ZM4275.44 3331L4280.74 3305.14L4287.74 3275.03L4291.34 3244.72L4305.55 3173.7H4332.05L4300.67 3331H4275.44Z" fill="white"/>
<path d="M4101.91 3332.48C4092.72 3332.48 4084.31 3330.51 4076.68 3326.55C4069.19 3322.59 4063.19 3316.94 4058.66 3309.59C4054.28 3302.1 4052.09 3293.12 4052.09 3282.66C4052.09 3273.05 4053.65 3264.22 4056.75 3256.16C4060.01 3248.11 4064.53 3241.11 4070.32 3235.18C4076.12 3229.24 4082.83 3224.65 4090.46 3221.4C4098.24 3218.15 4106.72 3216.52 4115.9 3216.52C4125.37 3216.52 4133.5 3218.22 4140.28 3221.61C4147.21 3225 4152.44 3230.16 4155.97 3237.08C4159.5 3243.87 4161.13 3252.35 4160.85 3262.52C4160.56 3276.52 4158.02 3288.81 4153.21 3299.41C4148.41 3309.87 4141.7 3318 4133.07 3323.79C4124.45 3329.59 4114.07 3332.48 4101.91 3332.48ZM4108.69 3309.8C4116.33 3309.8 4123.04 3308.03 4128.83 3304.5C4134.63 3300.83 4139.22 3295.81 4142.61 3289.45C4146.01 3283.09 4147.7 3275.74 4147.7 3267.4C4147.7 3258.64 4145.09 3251.71 4139.86 3246.62C4134.63 3241.54 4127.28 3238.99 4117.81 3238.99C4110.32 3238.99 4103.61 3240.83 4097.67 3244.5C4091.88 3248.04 4087.28 3252.98 4083.89 3259.34C4080.5 3265.7 4078.8 3273.05 4078.8 3281.39C4078.8 3290.15 4081.42 3297.08 4086.65 3302.17C4091.88 3307.26 4099.23 3309.8 4108.69 3309.8ZM4136.47 3331L4141.55 3305.14L4148.76 3275.03L4152.37 3244.72L4157.67 3217.79H4184.17L4161.69 3331H4136.47Z" fill="white"/>
<path d="M3976.85 3373.61C3971.62 3373.61 3966.81 3373.05 3962.43 3371.92C3958.05 3370.93 3954.16 3369.3 3950.77 3367.04L3961.8 3347.32C3965.89 3350.29 3970.91 3351.78 3976.85 3351.78C3981.94 3351.78 3985.89 3350.29 3988.72 3347.32C3991.69 3344.5 3993.88 3339.9 3995.29 3333.54L4018.4 3217.79H4044.9L4021.79 3333.12C4016.42 3360.11 4001.44 3373.61 3976.85 3373.61ZM4037.48 3199.14C4032.67 3199.14 4028.79 3197.72 4025.82 3194.9C4022.99 3191.93 4021.58 3188.39 4021.58 3184.3C4021.58 3179.49 4023.2 3175.46 4026.46 3172.21C4029.85 3168.96 4034.23 3167.34 4039.6 3167.34C4044.26 3167.34 4048.08 3168.75 4051.05 3171.58C4054.02 3174.26 4055.5 3177.58 4055.5 3181.54C4055.5 3186.77 4053.87 3191.01 4050.62 3194.26C4047.37 3197.51 4042.99 3199.14 4037.48 3199.14Z" fill="white"/>
<path d="M3906.77 3332.48C3897.59 3332.48 3889.18 3330.51 3881.54 3326.55C3874.05 3322.59 3868.05 3316.94 3863.52 3309.59C3859.14 3302.1 3856.95 3293.12 3856.95 3282.66C3856.95 3273.05 3858.51 3264.22 3861.62 3256.16C3864.87 3248.11 3869.39 3241.11 3875.18 3235.18C3880.98 3229.24 3887.69 3224.65 3895.32 3221.4C3903.1 3218.15 3911.58 3216.52 3920.76 3216.52C3930.23 3216.52 3938.36 3218.22 3945.14 3221.61C3952.07 3225 3957.3 3230.16 3960.83 3237.08C3964.36 3243.87 3965.99 3252.35 3965.71 3262.52C3965.43 3276.52 3962.88 3288.81 3958.08 3299.41C3953.27 3309.87 3946.56 3318 3937.94 3323.79C3929.31 3329.59 3918.93 3332.48 3906.77 3332.48ZM3913.56 3309.8C3921.19 3309.8 3927.9 3308.03 3933.7 3304.5C3939.49 3300.83 3944.08 3295.81 3947.48 3289.45C3950.87 3283.09 3952.56 3275.74 3952.56 3267.4C3952.56 3258.64 3949.95 3251.71 3944.72 3246.62C3939.49 3241.54 3932.14 3238.99 3922.67 3238.99C3915.18 3238.99 3908.47 3240.83 3902.53 3244.5C3896.74 3248.04 3892.14 3252.98 3888.75 3259.34C3885.36 3265.7 3883.66 3273.05 3883.66 3281.39C3883.66 3290.15 3886.28 3297.08 3891.51 3302.17C3896.74 3307.26 3904.09 3309.8 3913.56 3309.8ZM3941.33 3331L3946.42 3305.14L3953.62 3275.03L3957.23 3244.72L3962.53 3217.79H3989.03L3966.56 3331H3941.33Z" fill="white"/>
<path d="M3716.92 3331L3748.29 3173.7H3774.79L3760.8 3244.08L3752.53 3273.55L3748.29 3300.26L3742.14 3331H3716.92ZM3785.39 3332.48C3776.06 3332.48 3768.01 3330.86 3761.22 3327.61C3754.44 3324.22 3749.21 3319.27 3745.54 3312.77C3741.86 3306.27 3740.02 3298.21 3740.02 3288.6C3740.02 3278 3741.3 3268.32 3743.84 3259.56C3746.52 3250.65 3750.41 3243.02 3755.5 3236.66C3760.73 3230.16 3766.95 3225.21 3774.16 3221.82C3781.5 3218.29 3789.84 3216.52 3799.17 3216.52C3808.5 3216.52 3816.91 3218.5 3824.4 3222.46C3831.89 3226.27 3837.83 3231.93 3842.21 3239.42C3846.73 3246.77 3848.99 3255.67 3848.99 3266.13C3848.99 3275.74 3847.37 3284.57 3844.12 3292.63C3841.01 3300.68 3836.55 3307.68 3830.76 3313.62C3824.96 3319.55 3818.18 3324.22 3810.41 3327.61C3802.78 3330.86 3794.44 3332.48 3785.39 3332.48ZM3783.27 3309.8C3790.9 3309.8 3797.62 3308.03 3803.41 3304.5C3809.21 3300.83 3813.8 3295.81 3817.19 3289.45C3820.58 3283.09 3822.28 3275.74 3822.28 3267.4C3822.28 3258.64 3819.66 3251.71 3814.44 3246.62C3809.21 3241.54 3801.86 3238.99 3792.39 3238.99C3784.9 3238.99 3778.18 3240.83 3772.25 3244.5C3766.45 3248.04 3761.86 3252.98 3758.47 3259.34C3755.08 3265.7 3753.38 3273.05 3753.38 3281.39C3753.38 3290.15 3755.99 3297.08 3761.22 3302.17C3766.45 3307.26 3773.8 3309.8 3783.27 3309.8Z" fill="white"/>
<path d="M3628.82 3332.48C3619.63 3332.48 3611.22 3330.51 3603.59 3326.55C3596.1 3322.59 3590.09 3316.94 3585.57 3309.59C3581.19 3302.1 3579 3293.12 3579 3282.66C3579 3273.05 3580.55 3264.22 3583.66 3256.16C3586.91 3248.11 3591.44 3241.11 3597.23 3235.18C3603.03 3229.24 3609.74 3224.65 3617.37 3221.4C3625.15 3218.15 3633.63 3216.52 3642.81 3216.52C3652.28 3216.52 3660.41 3218.22 3667.19 3221.61C3674.12 3225 3679.35 3230.16 3682.88 3237.08C3686.41 3243.87 3688.04 3252.35 3687.76 3262.52C3687.47 3276.52 3684.93 3288.81 3680.12 3299.41C3675.32 3309.87 3668.61 3318 3659.98 3323.79C3651.36 3329.59 3640.97 3332.48 3628.82 3332.48ZM3635.6 3309.8C3643.24 3309.8 3649.95 3308.03 3655.74 3304.5C3661.54 3300.83 3666.13 3295.81 3669.52 3289.45C3672.92 3283.09 3674.61 3275.74 3674.61 3267.4C3674.61 3258.64 3672 3251.71 3666.77 3246.62C3661.54 3241.54 3654.19 3238.99 3644.72 3238.99C3637.23 3238.99 3630.52 3240.83 3624.58 3244.5C3618.79 3248.04 3614.19 3252.98 3610.8 3259.34C3607.41 3265.7 3605.71 3273.05 3605.71 3281.39C3605.71 3290.15 3608.33 3297.08 3613.56 3302.17C3618.79 3307.26 3626.13 3309.8 3635.6 3309.8ZM3663.38 3331L3668.46 3305.14L3675.67 3275.03L3679.28 3244.72L3684.58 3217.79H3711.08L3688.6 3331H3663.38Z" fill="white"/>
<path d="M3497.35 3331L3519.82 3217.79H3545.05L3538.69 3250.02L3536.35 3240.69C3541.58 3231.5 3548.23 3225.21 3556.28 3221.82C3564.34 3218.29 3574.16 3216.52 3585.75 3216.52L3580.87 3241.75C3579.74 3241.47 3578.68 3241.32 3577.69 3241.32C3576.71 3241.18 3575.57 3241.11 3574.3 3241.11C3563.99 3241.11 3555.43 3243.87 3548.65 3249.38C3541.87 3254.75 3537.34 3263.37 3535.08 3275.24L3523.85 3331H3497.35Z" fill="white"/>
<path d="M3411.51 3331L3436.53 3205.92H3387.35L3392.01 3182.6H3517.73L3513.06 3205.92H3463.88L3439.07 3331H3411.51Z" fill="white"/>
<path d="M3262.48 3332.48C3252.58 3332.48 3243.32 3331.28 3234.7 3328.88C3226.08 3326.48 3219.44 3323.58 3214.78 3320.19L3225.8 3299.84C3230.46 3303.09 3236.26 3305.77 3243.18 3307.89C3250.25 3309.87 3257.6 3310.86 3265.23 3310.86C3273.99 3310.86 3280.42 3309.66 3284.52 3307.26C3288.76 3304.85 3290.88 3301.53 3290.88 3297.29C3290.88 3294.18 3289.4 3291.85 3286.43 3290.3C3283.46 3288.74 3279.65 3287.47 3274.98 3286.48C3270.46 3285.49 3265.51 3284.43 3260.14 3283.3C3254.91 3282.17 3249.97 3280.61 3245.3 3278.64C3240.78 3276.66 3237.04 3273.76 3234.07 3269.94C3231.1 3266.13 3229.62 3261.04 3229.62 3254.68C3229.62 3246.62 3231.88 3239.77 3236.4 3234.12C3240.92 3228.46 3247.21 3224.15 3255.27 3221.18C3263.46 3218.07 3272.86 3216.52 3283.46 3216.52C3291.1 3216.52 3298.59 3217.37 3305.94 3219.06C3313.28 3220.76 3319.36 3223.16 3324.17 3226.27L3314.42 3246.62C3309.33 3243.37 3303.82 3241.11 3297.88 3239.84C3292.08 3238.57 3286.43 3237.93 3280.92 3237.93C3272.3 3237.93 3265.87 3239.27 3261.63 3241.96C3257.53 3244.5 3255.48 3247.75 3255.48 3251.71C3255.48 3254.82 3256.96 3257.22 3259.93 3258.92C3262.9 3260.62 3266.64 3262.03 3271.17 3263.16C3275.83 3264.15 3280.78 3265.21 3286.01 3266.34C3291.38 3267.33 3296.32 3268.81 3300.85 3270.79C3305.51 3272.77 3309.33 3275.67 3312.3 3279.48C3315.26 3283.16 3316.75 3288.11 3316.75 3294.32C3316.75 3302.52 3314.42 3309.52 3309.75 3315.31C3305.23 3320.97 3298.87 3325.28 3290.67 3328.24C3282.47 3331.07 3273.08 3332.48 3262.48 3332.48Z" fill="white"/>
<path d="M3149.58 3332.48C3138.55 3332.48 3128.87 3330.43 3120.53 3326.34C3112.34 3322.1 3105.98 3316.3 3101.45 3308.95C3096.93 3301.46 3094.67 3292.7 3094.67 3282.66C3094.67 3269.94 3097.57 3258.64 3103.36 3248.74C3109.16 3238.71 3117.07 3230.87 3127.11 3225.21C3137.28 3219.42 3148.87 3216.52 3161.88 3216.52C3173.04 3216.52 3182.72 3218.57 3190.92 3222.67C3199.26 3226.63 3205.69 3232.35 3210.21 3239.84C3214.73 3247.19 3216.99 3255.95 3216.99 3266.13C3216.99 3278.71 3214.1 3290.01 3208.3 3300.05C3202.51 3310.08 3194.52 3318 3184.35 3323.79C3174.31 3329.59 3162.72 3332.48 3149.58 3332.48ZM3151.27 3309.8C3158.91 3309.8 3165.62 3308.03 3171.41 3304.5C3177.21 3300.83 3181.8 3295.81 3185.19 3289.45C3188.59 3283.09 3190.28 3275.74 3190.28 3267.4C3190.28 3258.64 3187.67 3251.71 3182.44 3246.62C3177.21 3241.54 3169.86 3238.99 3160.39 3238.99C3152.9 3238.99 3146.19 3240.83 3140.25 3244.5C3134.46 3248.04 3129.86 3252.98 3126.47 3259.34C3123.08 3265.7 3121.38 3273.05 3121.38 3281.39C3121.38 3290.3 3124 3297.29 3129.23 3302.38C3134.46 3307.33 3141.81 3309.8 3151.27 3309.8Z" fill="white"/>
<path d="M3038.69 3331L3070.07 3173.7H3096.57L3065.19 3331H3038.69Z" fill="white"/>
<path d="M2918.38 3332.48C2907.07 3332.48 2897.25 3330.43 2888.91 3326.34C2880.57 3322.1 2874.07 3316.3 2869.41 3308.95C2864.88 3301.46 2862.62 3292.7 2862.62 3282.66C2862.62 3269.8 2865.45 3258.43 2871.1 3248.53C2876.76 3238.64 2884.46 3230.87 2894.21 3225.21C2904.1 3219.42 2915.34 3216.52 2927.92 3216.52C2938.52 3216.52 2947.7 3218.5 2955.48 3222.46C2963.25 3226.41 2969.26 3232.14 2973.5 3239.63C2977.88 3246.98 2980.07 3255.81 2980.07 3266.13C2980.07 3268.81 2979.93 3271.57 2979.65 3274.4C2979.36 3277.22 2978.94 3279.84 2978.37 3282.24H2882.34L2885.31 3264.64H2965.87L2955.05 3270.58C2956.18 3263.37 2955.69 3257.37 2953.57 3252.56C2951.45 3247.75 2948.06 3244.08 2943.39 3241.54C2938.73 3238.99 2933.15 3237.72 2926.65 3237.72C2918.87 3237.72 2912.09 3239.56 2906.29 3243.23C2900.64 3246.77 2896.26 3251.85 2893.15 3258.5C2890.04 3265 2888.49 3272.63 2888.49 3281.39C2888.49 3290.58 2891.1 3297.65 2896.33 3302.59C2901.7 3307.54 2909.97 3310.01 2921.13 3310.01C2927.49 3310.01 2933.57 3309.02 2939.37 3307.04C2945.16 3304.92 2949.97 3302.03 2953.78 3298.35L2964.81 3316.8C2958.87 3322.03 2951.8 3325.98 2943.61 3328.67C2935.55 3331.21 2927.14 3332.48 2918.38 3332.48Z" fill="white"/>
<path d="M2773.47 3332.48C2764.28 3332.48 2755.87 3330.51 2748.24 3326.55C2740.61 3322.59 2734.6 3316.94 2730.22 3309.59C2725.84 3302.1 2723.65 3293.12 2723.65 3282.66C2723.65 3273.05 2725.21 3264.22 2728.31 3256.16C2731.57 3248.11 2736.09 3241.11 2741.88 3235.18C2747.68 3229.24 2754.39 3224.65 2762.02 3221.4C2769.8 3218.15 2778.21 3216.52 2787.25 3216.52C2796.58 3216.52 2804.63 3218.15 2811.42 3221.4C2818.2 3224.65 2823.43 3229.52 2827.11 3236.02C2830.78 3242.53 2832.62 3250.58 2832.62 3260.19C2832.62 3270.79 2831.28 3280.54 2828.59 3289.45C2825.91 3298.21 2822.02 3305.84 2816.93 3312.34C2811.84 3318.7 2805.62 3323.65 2798.27 3327.18C2791.07 3330.72 2782.8 3332.48 2773.47 3332.48ZM2780.25 3309.8C2787.75 3309.8 2794.39 3308.03 2800.18 3304.5C2806.12 3300.83 2810.71 3295.81 2813.96 3289.45C2817.35 3283.09 2819.05 3275.74 2819.05 3267.4C2819.05 3258.64 2816.44 3251.71 2811.21 3246.62C2806.12 3241.54 2798.77 3238.99 2789.16 3238.99C2781.81 3238.99 2775.17 3240.83 2769.23 3244.5C2763.29 3248.04 2758.63 3252.98 2755.24 3259.34C2751.99 3265.7 2750.36 3273.05 2750.36 3281.39C2750.36 3290.15 2752.91 3297.08 2757.99 3302.17C2763.22 3307.26 2770.64 3309.8 2780.25 3309.8ZM2807.81 3331L2813.11 3305.14L2820.11 3275.03L2823.71 3244.72L2837.92 3173.7H2864.42L2833.04 3331H2807.81Z" fill="white"/>
<path d="M2615.23 3331L2646.6 3173.7H2673.1L2641.73 3331H2615.23Z" fill="white"/>
<path d="M2527.13 3332.48C2517.95 3332.48 2509.54 3330.51 2501.9 3326.55C2494.41 3322.59 2488.41 3316.94 2483.88 3309.59C2479.5 3302.1 2477.31 3293.12 2477.31 3282.66C2477.31 3273.05 2478.87 3264.22 2481.98 3256.16C2485.23 3248.11 2489.75 3241.11 2495.54 3235.18C2501.34 3229.24 2508.05 3224.65 2515.68 3221.4C2523.46 3218.15 2531.94 3216.52 2541.12 3216.52C2550.59 3216.52 2558.72 3218.22 2565.5 3221.61C2572.43 3225 2577.66 3230.16 2581.19 3237.08C2584.73 3243.87 2586.35 3252.35 2586.07 3262.52C2585.79 3276.52 2583.24 3288.81 2578.44 3299.41C2573.63 3309.87 2566.92 3318 2558.3 3323.79C2549.67 3329.59 2539.29 3332.48 2527.13 3332.48ZM2533.92 3309.8C2541.55 3309.8 2548.26 3308.03 2554.06 3304.5C2559.85 3300.83 2564.44 3295.81 2567.84 3289.45C2571.23 3283.09 2572.92 3275.74 2572.92 3267.4C2572.92 3258.64 2570.31 3251.71 2565.08 3246.62C2559.85 3241.54 2552.5 3238.99 2543.03 3238.99C2535.54 3238.99 2528.83 3240.83 2522.89 3244.5C2517.1 3248.04 2512.5 3252.98 2509.11 3259.34C2505.72 3265.7 2504.02 3273.05 2504.02 3281.39C2504.02 3290.15 2506.64 3297.08 2511.87 3302.17C2517.1 3307.26 2524.45 3309.8 2533.92 3309.8ZM2561.69 3331L2566.78 3305.14L2573.98 3275.03L2577.59 3244.72L2582.89 3217.79H2609.39L2586.92 3331H2561.69Z" fill="white"/>
<path d="M2395.66 3331L2418.13 3217.79H2443.36L2437 3250.02L2434.67 3240.69C2439.9 3231.5 2446.54 3225.21 2454.59 3221.82C2462.65 3218.29 2472.47 3216.52 2484.06 3216.52L2479.19 3241.75C2478.06 3241.47 2477 3241.32 2476.01 3241.32C2475.02 3241.18 2473.89 3241.11 2472.61 3241.11C2462.3 3241.11 2453.75 3243.87 2446.96 3249.38C2440.18 3254.75 2435.66 3263.37 2433.39 3275.24L2422.16 3331H2395.66Z" fill="white"/>
<path d="M2321.35 3332.48C2310.32 3332.48 2300.64 3330.43 2292.3 3326.34C2284.1 3322.1 2277.74 3316.3 2273.22 3308.95C2268.7 3301.46 2266.44 3292.7 2266.44 3282.66C2266.44 3269.94 2269.34 3258.64 2275.13 3248.74C2280.92 3238.71 2288.84 3230.87 2298.87 3225.21C2309.05 3219.42 2320.64 3216.52 2333.64 3216.52C2344.81 3216.52 2354.49 3218.57 2362.69 3222.67C2371.02 3226.63 2377.46 3232.35 2381.98 3239.84C2386.5 3247.19 2388.76 3255.95 2388.76 3266.13C2388.76 3278.71 2385.86 3290.01 2380.07 3300.05C2374.28 3310.08 2366.29 3318 2356.11 3323.79C2346.08 3329.59 2334.49 3332.48 2321.35 3332.48ZM2323.04 3309.8C2330.67 3309.8 2337.39 3308.03 2343.18 3304.5C2348.98 3300.83 2353.57 3295.81 2356.96 3289.45C2360.35 3283.09 2362.05 3275.74 2362.05 3267.4C2362.05 3258.64 2359.44 3251.71 2354.21 3246.62C2348.98 3241.54 2341.63 3238.99 2332.16 3238.99C2324.67 3238.99 2317.95 3240.83 2312.02 3244.5C2306.22 3248.04 2301.63 3252.98 2298.24 3259.34C2294.85 3265.7 2293.15 3273.05 2293.15 3281.39C2293.15 3290.3 2295.76 3297.29 2300.99 3302.38C2306.22 3307.33 2313.57 3309.8 2323.04 3309.8Z" fill="white"/>
<path d="M2126.4 3331L2157.78 3173.7H2184.28L2170.29 3244.08L2162.02 3273.55L2157.78 3300.26L2151.63 3331H2126.4ZM2194.88 3332.48C2185.55 3332.48 2177.49 3330.86 2170.71 3327.61C2163.93 3324.22 2158.7 3319.27 2155.02 3312.77C2151.35 3306.27 2149.51 3298.21 2149.51 3288.6C2149.51 3278 2150.78 3268.32 2153.33 3259.56C2156.01 3250.65 2159.9 3243.02 2164.99 3236.66C2170.22 3230.16 2176.43 3225.21 2183.64 3221.82C2190.99 3218.29 2199.33 3216.52 2208.66 3216.52C2217.99 3216.52 2226.4 3218.5 2233.89 3222.46C2241.38 3226.27 2247.31 3231.93 2251.69 3239.42C2256.22 3246.77 2258.48 3255.67 2258.48 3266.13C2258.48 3275.74 2256.85 3284.57 2253.6 3292.63C2250.49 3300.68 2246.04 3307.68 2240.25 3313.62C2234.45 3319.55 2227.67 3324.22 2219.89 3327.61C2212.26 3330.86 2203.92 3332.48 2194.88 3332.48ZM2192.76 3309.8C2200.39 3309.8 2207.1 3308.03 2212.9 3304.5C2218.69 3300.83 2223.29 3295.81 2226.68 3289.45C2230.07 3283.09 2231.77 3275.74 2231.77 3267.4C2231.77 3258.64 2229.15 3251.71 2223.92 3246.62C2218.69 3241.54 2211.34 3238.99 2201.87 3238.99C2194.38 3238.99 2187.67 3240.83 2181.73 3244.5C2175.94 3248.04 2171.35 3252.98 2167.95 3259.34C2164.56 3265.7 2162.87 3273.05 2162.87 3281.39C2162.87 3290.15 2165.48 3297.08 2170.71 3302.17C2175.94 3307.26 2183.29 3309.8 2192.76 3309.8Z" fill="white"/>
<path d="M2038.31 3332.48C2029.12 3332.48 2020.71 3330.51 2013.08 3326.55C2005.59 3322.59 1999.58 3316.94 1995.06 3309.59C1990.68 3302.1 1988.49 3293.12 1988.49 3282.66C1988.49 3273.05 1990.04 3264.22 1993.15 3256.16C1996.4 3248.11 2000.92 3241.11 2006.72 3235.18C2012.51 3229.24 2019.23 3224.65 2026.86 3221.4C2034.63 3218.15 2043.11 3216.52 2052.3 3216.52C2061.77 3216.52 2069.89 3218.22 2076.68 3221.61C2083.6 3225 2088.83 3230.16 2092.37 3237.08C2095.9 3243.87 2097.52 3252.35 2097.24 3262.52C2096.96 3276.52 2094.42 3288.81 2089.61 3299.41C2084.81 3309.87 2078.09 3318 2069.47 3323.79C2060.85 3329.59 2050.46 3332.48 2038.31 3332.48ZM2045.09 3309.8C2052.72 3309.8 2059.44 3308.03 2065.23 3304.5C2071.03 3300.83 2075.62 3295.81 2079.01 3289.45C2082.4 3283.09 2084.1 3275.74 2084.1 3267.4C2084.1 3258.64 2081.48 3251.71 2076.25 3246.62C2071.02 3241.54 2063.68 3238.99 2054.21 3238.99C2046.72 3238.99 2040 3240.83 2034.07 3244.5C2028.27 3248.04 2023.68 3252.98 2020.29 3259.34C2016.89 3265.7 2015.2 3273.05 2015.2 3281.39C2015.2 3290.15 2017.81 3297.08 2023.04 3302.17C2028.27 3307.26 2035.62 3309.8 2045.09 3309.8ZM2072.86 3331L2077.95 3305.14L2085.16 3275.03L2088.76 3244.72L2094.06 3217.79H2120.56L2098.09 3331H2072.86Z" fill="white"/>
<path d="M1870.46 3331L1900.14 3182.6H1927.7L1902.68 3307.68H1980.27L1975.61 3331H1870.46Z" fill="white"/>
<path d="M1727.59 3332.48C1718.4 3332.48 1709.99 3330.51 1702.36 3326.55C1694.87 3322.59 1688.86 3316.94 1684.34 3309.59C1679.96 3302.1 1677.77 3293.12 1677.77 3282.66C1677.77 3273.05 1679.32 3264.22 1682.43 3256.16C1685.68 3248.11 1690.2 3241.11 1696 3235.18C1701.79 3229.24 1708.51 3224.65 1716.14 3221.4C1723.91 3218.15 1732.39 3216.52 1741.58 3216.52C1751.05 3216.52 1759.17 3218.22 1765.96 3221.61C1772.88 3225 1778.11 3230.16 1781.65 3237.08C1785.18 3243.87 1786.8 3252.35 1786.52 3262.52C1786.24 3276.52 1783.69 3288.81 1778.89 3299.41C1774.08 3309.87 1767.37 3318 1758.75 3323.79C1750.13 3329.59 1739.74 3332.48 1727.59 3332.48ZM1734.37 3309.8C1742 3309.8 1748.71 3308.03 1754.51 3304.5C1760.3 3300.83 1764.9 3295.81 1768.29 3289.45C1771.68 3283.09 1773.38 3275.74 1773.38 3267.4C1773.38 3258.64 1770.76 3251.71 1765.53 3246.62C1760.3 3241.54 1752.95 3238.99 1743.49 3238.99C1735.99 3238.99 1729.28 3240.83 1723.35 3244.5C1717.55 3248.04 1712.96 3252.98 1709.57 3259.34C1706.17 3265.7 1704.48 3273.05 1704.48 3281.39C1704.48 3290.15 1707.09 3297.08 1712.32 3302.17C1717.55 3307.26 1724.9 3309.8 1734.37 3309.8ZM1762.14 3331L1767.23 3305.14L1774.44 3275.03L1778.04 3244.72L1783.34 3217.79H1809.84L1787.37 3331H1762.14Z" fill="white"/>
<path d="M1562.35 3331L1565.53 3314.25L1650.97 3229.88L1655.63 3238.99H1582.49L1586.73 3217.79H1681.07L1677.68 3234.54L1592.45 3318.92L1587.37 3309.8H1664.32L1660.08 3331H1562.35Z" fill="white"/>
<path d="M1489.23 3331L1511.7 3217.79H1536.93L1530.57 3250.02L1528.23 3240.69C1533.46 3231.5 1540.11 3225.21 1548.16 3221.82C1556.22 3218.29 1566.04 3216.52 1577.63 3216.52L1572.75 3241.75C1571.62 3241.47 1570.56 3241.32 1569.57 3241.32C1568.59 3241.18 1567.45 3241.11 1566.18 3241.11C1555.87 3241.11 1547.31 3243.87 1540.53 3249.38C1533.75 3254.75 1529.22 3263.37 1526.96 3275.24L1515.73 3331H1489.23Z" fill="white"/>
<path d="M1421.14 3332.48C1409.84 3332.48 1400.02 3330.43 1391.68 3326.34C1383.34 3322.1 1376.84 3316.3 1372.17 3308.95C1367.65 3301.46 1365.39 3292.7 1365.39 3282.66C1365.39 3269.8 1368.22 3258.43 1373.87 3248.53C1379.52 3238.64 1387.22 3230.87 1396.98 3225.21C1406.87 3219.42 1418.11 3216.52 1430.68 3216.52C1441.28 3216.52 1450.47 3218.5 1458.24 3222.46C1466.02 3226.41 1472.02 3232.14 1476.26 3239.63C1480.65 3246.98 1482.84 3255.81 1482.84 3266.13C1482.84 3268.81 1482.7 3271.57 1482.41 3274.4C1482.13 3277.22 1481.71 3279.84 1481.14 3282.24H1385.1L1388.07 3264.64H1468.63L1457.82 3270.58C1458.95 3263.37 1458.46 3257.37 1456.34 3252.56C1454.22 3247.75 1450.82 3244.08 1446.16 3241.54C1441.5 3238.99 1435.91 3237.72 1429.41 3237.72C1421.64 3237.72 1414.86 3239.56 1409.06 3243.23C1403.41 3246.77 1399.03 3251.85 1395.92 3258.5C1392.81 3265 1391.25 3272.63 1391.25 3281.39C1391.25 3290.58 1393.87 3297.65 1399.1 3302.59C1404.47 3307.54 1412.74 3310.01 1423.9 3310.01C1430.26 3310.01 1436.34 3309.02 1442.13 3307.04C1447.93 3304.92 1452.73 3302.03 1456.55 3298.35L1467.57 3316.8C1461.64 3322.03 1454.57 3325.98 1446.37 3328.67C1438.32 3331.21 1429.91 3332.48 1421.14 3332.48Z" fill="white"/>
<path d="M1274.94 3332.48C1265.47 3332.48 1257.34 3330.51 1250.56 3326.55C1243.91 3322.45 1239.18 3316.58 1236.35 3308.95C1233.52 3301.18 1233.24 3291.71 1235.5 3280.54L1248.01 3217.79H1274.51L1262 3279.91C1260.31 3289.09 1261.16 3296.3 1264.55 3301.53C1268.08 3306.62 1274.44 3309.16 1283.63 3309.16C1293.1 3309.16 1301.01 3306.48 1307.37 3301.11C1313.87 3295.74 1318.18 3287.54 1320.3 3276.52L1332.18 3217.79H1358.46L1335.99 3331H1310.76L1317.12 3298.78L1321.36 3308.95C1315.99 3317.01 1309.21 3322.94 1301.01 3326.76C1292.96 3330.58 1284.26 3332.48 1274.94 3332.48Z" fill="white"/>
<path d="M1144.75 3250.86H1218.74L1214.08 3274.18H1140.09L1144.75 3250.86ZM1130.97 3331H1103.41L1133.09 3182.6H1241.43L1236.76 3205.71H1155.99L1130.97 3331Z" fill="white"/>
<path d="M960.543 3332.48C951.356 3332.48 942.947 3330.51 935.315 3326.55C927.824 3322.59 921.818 3316.94 917.295 3309.59C912.914 3302.1 910.723 3293.12 910.723 3282.66C910.723 3273.05 912.278 3264.22 915.387 3256.16C918.638 3248.11 923.16 3241.11 928.955 3235.18C934.75 3229.24 941.463 3224.65 949.095 3221.4C956.868 3218.15 965.348 3216.52 974.535 3216.52C984.004 3216.52 992.131 3218.22 998.915 3221.61C1005.84 3225 1011.07 3230.16 1014.6 3237.08C1018.14 3243.87 1019.76 3252.35 1019.48 3262.52C1019.2 3276.52 1016.65 3288.81 1011.85 3299.41C1007.04 3309.87 1000.33 3318 991.707 3323.79C983.086 3329.59 972.698 3332.48 960.543 3332.48ZM967.327 3309.8C974.959 3309.8 981.672 3308.03 987.467 3304.5C993.262 3300.83 997.855 3295.81 1001.25 3289.45C1004.64 3283.09 1006.34 3275.74 1006.34 3267.4C1006.34 3258.64 1003.72 3251.71 998.491 3246.62C993.262 3241.54 985.912 3238.99 976.443 3238.99C968.952 3238.99 962.239 3240.83 956.303 3244.5C950.508 3248.04 945.915 3252.98 942.523 3259.34C939.131 3265.7 937.435 3273.05 937.435 3281.39C937.435 3290.15 940.05 3297.08 945.279 3302.17C950.508 3307.26 957.858 3309.8 967.327 3309.8ZM995.099 3331L1000.19 3305.14L1007.4 3275.03L1011 3244.72L1016.3 3217.79H1042.8L1020.33 3331H995.099Z" fill="white"/>
<path d="M792.692 3331L822.372 3182.6H849.932L824.916 3307.68H902.508L897.844 3331H792.692Z" fill="white"/>
</g>
<defs>
<clipPath id="clip0_0_1">
<rect width="5524" height="3820" fill="white"/>
</clipPath>
</defs>
</svg>
