<svg width="132" height="151" viewBox="0 0 132 151" fill="none" xmlns="http://www.w3.org/2000/svg">
<path d="M65.6445 130.538C67.1846 130.538 68.5891 130.783 69.8574 131.272C71.1437 131.762 72.2581 132.459 73.2002 133.365C74.1422 134.253 74.876 135.295 75.4014 136.49C75.9449 137.686 76.2168 139 76.2168 140.432C76.2168 141.863 75.9449 143.186 75.4014 144.399C74.8759 145.595 74.1424 146.638 73.2002 147.525C72.2581 148.413 71.1437 149.102 69.8574 149.591C68.5891 150.08 67.1846 150.324 65.6445 150.324C64.1225 150.324 62.7181 150.08 61.4316 149.591C60.1453 149.102 59.0218 148.413 58.0615 147.525C57.1193 146.619 56.3858 145.568 55.8604 144.372C55.335 143.176 55.0723 141.863 55.0723 140.432C55.0723 139 55.3349 137.686 55.8604 136.49C56.3858 135.295 57.1195 134.253 58.0615 133.365C59.0218 132.459 60.1452 131.762 61.4316 131.272C62.7181 130.783 64.1225 130.538 65.6445 130.538ZM5.66406 145.677H14.7412V147.556L22.0859 130.919H27.3857L35.8105 149.943H30.2119L28.7285 146.247H20.6611L19.1777 149.943H0.283203V130.919H5.66406V145.677ZM45.9785 130.919C48.4788 130.919 50.3451 131.381 51.5771 132.305C52.8092 133.211 53.4248 134.407 53.4248 135.893C53.4248 136.871 53.1622 137.732 52.6367 138.475C52.1999 139.099 51.601 139.613 50.8418 140.022C50.9623 140.065 51.0805 140.111 51.1963 140.159C52.1927 140.558 52.9633 141.147 53.5068 141.926C54.0685 142.687 54.3496 143.62 54.3496 144.726C54.3496 146.374 53.6787 147.661 52.3379 148.585C51.0152 149.491 49.0761 149.943 46.5215 149.943H36.248V130.919H45.9785ZM86.6445 130.919C88.3839 130.919 89.8787 131.2 91.1289 131.762C92.3971 132.323 93.3759 133.138 94.0645 134.207C94.753 135.258 95.0976 136.509 95.0977 137.958C95.0977 139.389 94.753 140.631 94.0645 141.682C93.4205 142.648 92.5223 143.406 91.3711 143.96L95.001 149.249L103.094 130.919H108.394L116.819 149.943H111.22L109.736 146.247H101.669L100.186 149.943H89.7158L86.2666 144.889H83.3291V149.943H77.9473V130.919H86.6445ZM122.639 145.677H131.717V149.943H117.258V130.919H122.639V145.677ZM41.5752 146.058H46.0869C47.0108 146.058 47.7086 145.904 48.1797 145.596C48.6688 145.27 48.914 144.78 48.9141 144.128C48.9141 143.476 48.6689 142.996 48.1797 142.688C47.7086 142.361 47.011 142.198 46.0869 142.198H41.5752V146.058ZM65.6445 134.996C64.9198 134.996 64.2396 135.122 63.6055 135.376C62.9897 135.63 62.4465 136.001 61.9756 136.49C61.5226 136.961 61.1595 137.533 60.8877 138.203C60.6341 138.855 60.5078 139.598 60.5078 140.432C60.5078 141.247 60.6341 141.99 60.8877 142.66C61.1595 143.331 61.5226 143.91 61.9756 144.399C62.4465 144.87 62.9897 145.233 63.6055 145.486C64.2396 145.74 64.9198 145.867 65.6445 145.867C66.3692 145.867 67.0393 145.74 67.6553 145.486C68.2894 145.233 68.8332 144.871 69.2861 144.399C69.7572 143.91 70.1194 143.33 70.373 142.66C70.6448 141.99 70.7812 141.247 70.7812 140.432C70.7812 139.598 70.6448 138.855 70.373 138.203C70.1194 137.533 69.7572 136.961 69.2861 136.49C68.8332 136.001 68.2893 135.63 67.6553 135.376C67.0394 135.122 66.3691 134.996 65.6445 134.996ZM22.2539 142.279H27.1357L24.6943 136.195L22.2539 142.279ZM103.262 142.279H108.144L105.702 136.195L103.262 142.279ZM83.3291 140.73H86.3184C87.4417 140.73 88.2758 140.485 88.8193 139.996C89.3808 139.507 89.6621 138.828 89.6621 137.958C89.6621 137.07 89.3809 136.382 88.8193 135.893C88.2758 135.403 87.4417 135.158 86.3184 135.158H83.3291V140.73ZM41.5752 138.475H45.2715C46.1774 138.475 46.8576 138.321 47.3105 138.013C47.7634 137.705 47.9893 137.242 47.9893 136.626C47.9892 136.01 47.7632 135.557 47.3105 135.268C46.8576 134.96 46.1774 134.806 45.2715 134.806H41.5752V138.475ZM100.576 104.226C101.826 104.226 103.049 104.37 104.245 104.66C105.459 104.932 106.537 105.34 107.479 105.884L105.821 109.879C104.915 109.39 104.019 109.028 103.131 108.792C102.243 108.538 101.382 108.411 100.549 108.411C99.806 108.411 99.2078 108.493 98.7549 108.656C98.3021 108.801 97.9756 109 97.7764 109.254C97.5773 109.507 97.4776 109.797 97.4775 110.123C97.4775 110.54 97.6683 110.875 98.0488 111.129C98.4474 111.364 98.9636 111.564 99.5977 111.727C100.25 111.872 100.957 112.026 101.718 112.189C102.497 112.353 103.267 112.561 104.028 112.814C104.807 113.05 105.513 113.376 106.147 113.793C106.782 114.192 107.289 114.726 107.67 115.396C108.068 116.049 108.268 116.873 108.268 117.869C108.268 118.974 107.951 119.998 107.316 120.94C106.7 121.865 105.767 122.607 104.517 123.169C103.285 123.731 101.727 124.012 99.8428 124.012C98.2847 124.012 96.7804 123.822 95.3311 123.441C93.8997 123.043 92.7302 122.535 91.8242 121.919L93.5908 117.951C94.4423 118.495 95.4212 118.947 96.5264 119.31C97.6496 119.654 98.764 119.826 99.8691 119.826C100.612 119.826 101.21 119.763 101.663 119.636C102.116 119.491 102.442 119.31 102.642 119.093C102.859 118.857 102.968 118.585 102.968 118.277C102.968 117.843 102.769 117.498 102.37 117.244C101.971 116.99 101.454 116.782 100.82 116.619C100.186 116.456 99.48 116.293 98.7012 116.13C97.9402 115.967 97.1697 115.759 96.3906 115.505C95.6296 115.251 94.932 114.925 94.2979 114.526C93.6638 114.11 93.1476 113.575 92.749 112.923C92.3504 112.253 92.1504 111.41 92.1504 110.396C92.1504 109.254 92.4591 108.221 93.0752 107.297C93.7093 106.373 94.6513 105.63 95.9014 105.068C97.1516 104.507 98.7099 104.226 100.576 104.226ZM9.27832 104.605C11.3801 104.605 13.2288 104.995 14.8232 105.774C16.4177 106.554 17.659 107.65 18.5469 109.063C19.4526 110.477 19.9053 112.162 19.9053 114.118C19.9053 116.057 19.4528 117.742 18.5469 119.174C17.6591 120.587 16.4176 121.683 14.8232 122.462C13.2288 123.241 11.3801 123.631 9.27832 123.631H0.283203V104.605H9.27832ZM36.5713 108.764H26.9775V111.972H35.4297V115.993H26.9775V119.473H36.9248V123.631H21.6504V104.605H36.5713V108.764ZM53.7441 108.764H44.2041V112.949H52.6025V117.108H44.2041V123.631H38.8232V104.605H53.7441V108.764ZM70.0947 108.764H60.501V111.972H68.9531V115.993H60.501V119.473H70.4482V123.631H55.1738V104.605H70.0947V108.764ZM85.1758 114.744V104.605H90.4482V123.631H86.0176L77.6201 113.492V123.631H72.3477V104.605H76.7773L85.1758 114.744ZM129.507 123.631H123.908L122.425 119.935H114.356L112.873 123.631H107.383L115.781 104.605H121.081L129.507 123.631ZM5.66406 119.337H9.06152C10.1486 119.337 11.0905 119.137 11.8877 118.738C12.7029 118.322 13.3371 117.724 13.79 116.945C14.243 116.148 14.4697 115.205 14.4697 114.118C14.4697 113.013 14.243 112.071 13.79 111.292C13.3371 110.513 12.7031 109.924 11.8877 109.525C11.0905 109.109 10.1486 108.9 9.06152 108.9H5.66406V119.337ZM115.949 115.967H120.832L118.39 109.883L115.949 115.967ZM66.0967 0.324219C66.271 0.367788 66.316 0.513042 66.3936 0.621094C67.0333 1.51401 67.6692 2.41043 68.3057 3.30566C69.1531 4.49817 69.0177 5.9973 67.9678 7.01953C67.7571 7.22444 67.5381 7.42081 67.3721 7.66699C66.9478 8.29826 66.9853 8.9254 67.4873 9.49219C67.7469 9.78527 68.0493 10.0366 68.4033 10.1934C68.6988 10.3242 68.762 10.5122 68.7588 10.8086C68.7458 11.8749 68.7652 12.942 68.7568 14.0088C68.7546 14.2767 68.8212 14.4686 69.0439 14.6396C69.4268 14.9337 69.7404 15.302 69.9795 15.7227C70.0828 15.9044 70.2088 15.97 70.4199 15.9854C71.8551 16.0902 73.28 16.2493 74.7012 16.5049C76.2142 16.7767 77.6953 17.1535 79.165 17.584C79.9986 17.8279 80.8186 18.1215 81.6396 18.4062C82.7766 18.8005 83.8977 19.2377 85.0234 19.6611C85.9603 20.0136 86.8972 20.3701 87.835 20.7217C88.7054 21.0478 89.572 21.3953 90.4434 21.7148C92.6077 22.5085 94.8038 23.2116 97.1143 23.4658C99.4706 23.725 101.784 23.5573 104.04 22.792C104.359 22.6839 104.765 22.693 104.972 22.4355C105.159 22.2037 105.199 21.8512 105.326 21.5586C105.478 21.2084 105.467 21.188 105.091 21.1055C104.181 20.9055 103.636 20.3118 103.38 19.4639C103.176 18.79 103.199 18.0935 103.552 17.4619C104.224 16.2587 105.231 15.5411 106.621 15.3203C108.693 14.9907 110.421 15.6556 111.812 17.1348C112.996 18.3941 113.109 19.9187 112.542 21.5088C112.342 22.0694 112.008 22.5506 111.595 22.9805C110.748 23.8613 109.761 24.5465 108.668 25.0869C108.309 25.2649 108.29 25.2744 108.417 25.6709C108.579 26.1749 108.781 26.6661 108.961 27.165C109.214 27.8706 109.461 28.5791 109.715 29.2842C109.935 29.8959 110.165 30.5049 110.388 31.1162C110.597 31.6905 110.801 32.2666 111.009 32.8418C111.24 33.4824 111.472 34.1231 111.704 34.7637C111.902 35.3094 112.099 35.8556 112.296 36.4014C112.537 37.0712 112.782 37.7409 113.02 38.4121C113.224 38.9901 113.416 39.5729 113.623 40.1504C113.843 40.7635 114.071 41.374 114.301 41.9834C114.511 42.5404 114.678 43.1117 114.901 43.665C115.162 44.3112 115.38 44.9755 115.616 45.6318C115.844 46.2645 116.072 46.8976 116.3 47.5303C116.505 48.1017 116.729 48.6673 116.911 49.2461C117.132 49.946 117.431 50.6173 117.633 51.3242C117.744 51.7152 117.916 52.0918 118.066 52.4707C118.297 53.0501 118.466 53.65 118.702 54.2275C118.967 54.8763 119.128 55.5683 119.404 56.2119C119.627 56.7314 119.763 57.2774 119.983 57.7969C120.257 58.443 120.456 59.1204 120.692 59.7822C120.881 60.311 121.082 60.836 121.271 61.3652C121.517 62.0564 121.762 62.7481 121.992 63.4443C122.029 63.5571 122.073 63.6724 122.109 63.7852C122.183 64.011 122.331 64.1421 122.624 64.1328C123.507 64.1055 124.391 64.123 125.271 64.123C125.33 64.2709 125.206 64.2851 125.14 64.3291C121.66 66.6488 117.893 68.2989 113.794 69.1807C112.021 69.5619 110.229 69.7888 108.419 69.9033C106.525 70.0234 104.637 69.9622 102.754 69.7734C100.732 69.5707 98.7339 69.2136 96.7812 68.6436C95.8058 68.3588 94.8191 68.0946 93.8721 67.7324C91.5226 66.8335 89.2616 65.7479 87.1592 64.3545C87.0964 64.3127 87.037 64.2653 86.9668 64.2129C87.0738 64.0849 87.2056 64.1391 87.3154 64.1387C88.1063 64.1331 88.8971 64.1236 89.6875 64.1436C89.9048 64.1491 90.0058 64.0558 90.0645 63.8916C90.3273 63.1588 90.5854 62.4233 90.8496 61.6924C91.0659 61.0945 91.2637 60.4865 91.5107 59.8975C91.735 59.3627 91.9107 58.8071 92.1074 58.2607C92.3433 57.6049 92.5786 56.9479 92.8154 56.292C93.0122 55.7457 93.211 55.1997 93.4082 54.6533C93.6501 53.9832 93.9185 53.3214 94.125 52.6406C94.3069 52.04 94.5864 51.4766 94.7432 50.8662C94.8604 50.4113 95.0559 49.9739 95.2266 49.5381C95.6099 48.5584 95.9289 47.5558 96.3076 46.5752C96.6923 45.5785 97.012 44.5567 97.3721 43.5498C97.5814 42.9636 97.8235 42.3894 98.0342 41.8037C98.3849 40.8302 98.7195 39.8504 99.0684 38.876C99.2991 38.2317 99.5504 37.594 99.7803 36.9492C100.133 35.9599 100.445 34.9544 100.832 33.9785C101.203 33.0434 101.522 32.0894 101.862 31.1445C102.1 30.4851 102.334 29.8201 102.572 29.1611C102.784 28.5754 102.941 27.9653 103.219 27.4023C103.28 27.2785 103.326 27.1443 103.362 27.0107C103.424 26.7824 103.369 26.7268 103.143 26.7773C101.892 27.0589 100.622 27.1802 99.3428 27.1904C98.1007 27.2002 96.8707 27.0565 95.6426 26.8682C94.3418 26.6683 93.0729 26.3288 91.8154 25.9707C90.8794 25.704 89.9394 25.4233 89.0312 25.0518C88.1273 24.6825 87.2038 24.3587 86.2803 24.04C85.5014 23.771 84.7259 23.489 83.9531 23.2051C82.697 22.7436 81.4444 22.2719 80.1641 21.8809C78.9382 21.5066 77.7093 21.1449 76.4541 20.875C74.99 20.56 73.5174 20.2998 72.0254 20.1602C71.9678 20.0866 71.9062 20.0732 71.8398 20.1494C71.3755 20.1239 70.9107 20.1024 70.4473 20.0713C70.2745 20.0598 70.1611 20.1104 70.0742 20.2705C69.783 20.8076 69.3877 21.2619 68.9043 21.6357C68.7801 21.7318 68.7328 21.8439 68.7402 21.9941C68.7463 22.1175 68.7402 22.2414 68.7402 22.3652C68.7402 39.4316 68.7424 56.498 68.7373 73.5645C68.7373 74.6489 68.7747 75.7304 68.9775 76.7939C69.1013 77.4409 69.3046 78.0755 69.5488 78.6924C70.5565 81.2343 72.3625 83.0382 74.7422 84.3281C75.6218 84.8049 76.5478 85.1746 77.499 85.4395C78.3861 85.6867 79.3021 85.8668 80.2432 85.8701C81.0548 85.8729 81.8461 86.0365 82.5703 86.4297C83.2231 86.7845 83.7311 87.2638 83.833 88.0439C83.8642 88.2822 84.0226 88.2453 84.1709 88.2471C85.2252 88.2596 86.2797 88.2816 87.334 88.2793C90.0161 88.2737 92.6987 88.2648 95.3809 88.2402C96.1727 88.2328 96.9538 88.3091 97.7256 88.457C98.3639 88.5795 98.9707 88.8143 99.5029 89.2002C100.167 89.6816 100.518 90.3445 100.595 91.1523C100.629 91.5098 100.618 91.5178 100.262 91.5225C98.9284 91.5396 97.5951 91.5625 96.2617 91.5635C86.2455 91.5728 76.2291 91.5834 66.2129 91.582C55.7778 91.5806 45.3423 91.5673 34.9072 91.5566C33.9308 91.5557 32.9539 91.5373 31.9775 91.5215C31.652 91.5164 31.6327 91.4894 31.668 91.1738C31.775 90.2183 32.2358 89.4891 33.0742 89.0039C33.7283 88.6255 34.4463 88.4522 35.1855 88.3428C35.7856 88.2538 36.3894 88.2432 36.9941 88.2441C40.5448 88.2502 44.0949 88.3122 47.6455 88.2598C47.8018 88.3599 47.9573 88.3563 48.1104 88.2529L48.1094 88.248C48.2955 88.2578 48.4345 88.2311 48.4619 87.9932C48.5425 87.3014 48.9861 86.858 49.5479 86.5186C50.3104 86.0579 51.1605 85.9098 52.0361 85.8564C55.2988 85.657 58.1181 84.4355 60.4629 82.1641C61.372 81.2832 62.0903 80.2485 62.5527 79.0703C62.8681 78.2665 63.1422 77.449 63.3027 76.584C63.5046 75.4964 63.5488 74.4119 63.5488 73.3174C63.5488 56.3167 63.5483 39.3161 63.5566 22.3154C63.5566 21.9478 63.4898 21.6828 63.1719 21.4551C62.8063 21.1936 62.5151 20.8356 62.3076 20.4355C62.1462 20.1249 61.9259 20.0328 61.5967 20.0693C61.2279 20.1101 60.855 20.1204 60.4844 20.1436C60.4188 20.068 60.357 20.0792 60.2988 20.1533L58.8086 20.3252C58.7394 20.2499 58.6793 20.2701 58.624 20.3428C56.4802 20.6721 54.3769 21.1729 52.3057 21.8135C50.6932 22.3121 49.1075 22.8865 47.5234 23.4658C44.7487 24.4807 41.9997 25.5736 39.1338 26.3223C37.1338 26.8445 35.1058 27.182 33.0332 27.1885C32.0717 27.1917 31.1158 27.1089 30.165 26.9531C29.7477 26.8845 29.3246 26.8429 28.8682 26.7256C28.8845 27.0446 28.9626 27.3253 29.084 27.5664C29.3673 28.1295 29.5009 28.7439 29.7363 29.3232C30.0098 29.9962 30.2304 30.6928 30.4854 31.375C30.7039 31.9598 30.8544 32.5719 31.0977 33.1455C31.347 33.7341 31.5151 34.3494 31.7617 34.9385C31.9868 35.4754 32.1652 36.032 32.3633 36.5801C32.6052 37.2498 32.8487 37.9197 33.0869 38.5908C33.2916 39.1688 33.4853 39.7516 33.6924 40.3291C33.9124 40.9416 34.1445 41.55 34.3682 42.1611C34.5738 42.7229 34.7762 43.287 34.9795 43.8496C35.2163 44.5049 35.4691 45.1551 35.6836 45.8174C35.8631 46.3705 36.083 46.9075 36.2783 47.4541C36.5128 48.11 36.749 48.7655 36.9854 49.4209C37.1821 49.9667 37.3804 50.5124 37.5771 51.0586C37.7827 51.6294 38.0019 52.1971 38.1875 52.7744C38.4122 53.473 38.7106 54.1457 38.9111 54.8535C39.0391 55.3062 39.2249 55.7461 39.3975 56.1807C39.7854 57.1579 40.0988 58.1602 40.4756 59.1406C40.6947 59.7107 40.8792 60.2991 41.0928 60.8701C41.3156 61.4657 41.4968 62.0774 41.748 62.665C41.9145 63.0545 42.0323 63.4675 42.1807 63.8672C42.2597 64.08 42.3769 64.1395 42.5908 64.1377C43.4896 64.1284 44.389 64.1338 45.3203 64.1338C45.2678 64.322 45.1066 64.3614 44.9912 64.4365C42.5608 66.0215 39.9419 67.2077 37.1904 68.1201C35.3728 68.7231 33.5253 69.2025 31.6328 69.4971C29.1493 69.8839 26.6533 70.0423 24.1377 69.918C22.5713 69.8405 21.0137 69.6781 19.4775 69.3975C17.8073 69.0923 16.1675 68.6363 14.5605 68.0732C11.8799 67.134 9.39546 65.8136 7.0293 64.2598C7.00464 64.2435 6.98387 64.2203 6.94434 64.1846C7.05409 64.0844 7.1813 64.1249 7.29199 64.124C8.09826 64.1198 8.90467 64.1148 9.71094 64.126C9.93147 64.1292 10.0583 64.0632 10.1113 63.8447C10.2848 63.1296 10.594 62.4591 10.8359 61.7676C11.0453 61.1688 11.2461 60.5617 11.4932 59.9727C11.729 59.41 11.897 58.8193 12.1035 58.2441C12.3236 57.6309 12.5545 57.021 12.7783 56.4092C12.9834 55.8472 13.1859 55.2841 13.3887 54.7217C13.6255 54.0654 13.8623 53.4092 14.0986 52.7529C14.2964 52.2042 14.4927 51.6552 14.6904 51.1064C14.9268 50.4497 15.1636 49.7935 15.3994 49.1367C15.6009 48.5764 15.8005 48.0154 16.002 47.4551C16.2332 46.8126 16.4669 46.1707 16.6953 45.5273C16.9358 44.8503 17.1444 44.1607 17.416 43.4971C17.6296 42.9752 17.7923 42.4356 17.9854 41.9082C18.237 41.22 18.5085 40.538 18.7197 39.834C18.8714 39.3285 19.0916 38.8443 19.2744 38.3477C19.5182 37.6871 19.7853 37.0324 19.9854 36.3584C20.1417 35.8316 20.3725 35.3356 20.5381 34.8125C20.7768 34.0573 21.0752 33.3193 21.3311 32.5674C21.4967 32.0804 21.7058 31.6056 21.8779 31.1182C22.1226 30.4252 22.3673 29.7326 22.6162 29.041C22.8367 28.4283 23.0619 27.8173 23.2852 27.2051C23.4843 26.6591 23.6722 26.1093 23.8867 25.5693C23.9858 25.3194 23.8973 25.2162 23.6787 25.1123C22.8064 24.699 22.0025 24.1775 21.2744 23.543C20.638 22.9882 20.0889 22.3685 19.7539 21.5781C19.593 21.1984 19.4635 20.8178 19.4561 20.4023C19.4467 19.8668 19.4025 19.3345 19.542 18.8008C19.7127 18.1454 20.023 17.57 20.4883 17.0918C21.7118 15.8349 23.1988 15.1644 24.9717 15.2344C26.4739 15.2937 27.7131 15.8793 28.5645 17.166C29.1581 18.0635 29.1608 19.2992 28.5537 20.1865C28.236 20.6508 27.8097 20.9665 27.251 21.0908C27.103 21.1238 26.9582 21.1714 26.7949 21.2178C26.9526 21.6223 27.1103 22.0023 27.2471 22.3887C27.2889 22.5062 27.3453 22.5439 27.4629 22.5801C28.8041 22.991 30.1498 23.3725 31.5557 23.502C32.609 23.5989 33.6605 23.6034 34.7129 23.5078C34.7803 23.5833 34.8412 23.5679 34.8984 23.4951C37.0087 23.2998 39.0232 22.7101 40.998 21.9814C43.9955 20.8761 46.9767 19.7279 49.9746 18.624C52.2975 17.7687 54.6668 17.0556 57.0977 16.5713C58.2645 16.3389 59.4441 16.1731 60.6318 16.0762C60.9868 16.0474 61.3423 16.017 61.6973 15.9873C61.7614 16.0608 61.8229 16.0551 61.8828 15.9814C62.025 15.9796 62.1546 15.969 62.2383 15.8203C62.523 15.3157 62.896 14.883 63.3594 14.5342C63.5389 14.3988 63.5289 14.2159 63.5303 14.0332C63.5354 13.3375 63.5338 12.6415 63.5361 11.9463C63.5375 11.5135 63.5512 11.0798 63.54 10.6475C63.535 10.4502 63.6037 10.3362 63.7793 10.25C64.1143 10.0853 64.413 9.86593 64.6875 9.61035C64.9586 9.35804 65.0933 9.03196 65.1826 8.69434C65.2891 8.28988 65.0626 7.94865 64.8682 7.62305C64.7593 7.44139 64.5992 7.28116 64.4355 7.14258C63.1147 6.02701 63.228 4.21158 64.0752 3.14844C64.7968 2.24256 65.4281 1.26535 66.0967 0.324219ZM26.3545 26.1309C26.2856 26.3725 26.3071 26.5585 26.3066 26.7412C26.3043 32.9391 26.3037 39.137 26.3027 45.335C26.3018 51.4249 26.3003 57.5146 26.2998 63.6045C26.2998 64.1235 26.3015 64.127 26.7393 64.127C31.669 64.1293 36.5991 64.1303 41.5293 64.1299C41.644 64.13 41.77 64.1588 41.8916 64.0654C41.8604 63.9657 41.8359 63.8779 41.8057 63.793C41.6382 63.319 41.4705 62.8451 41.2998 62.3721C41.0658 61.7251 40.8429 61.0731 40.5898 60.4336C40.3949 59.9411 40.2023 59.4443 40.0381 58.9453C39.8092 58.2482 39.5286 57.5701 39.3076 56.8701C39.1481 56.3642 38.9108 55.8786 38.7559 55.375C38.5712 54.7754 38.3399 54.1931 38.125 53.6084C37.7677 52.6376 37.446 51.6533 37.0654 50.6895C36.8942 50.2553 36.7255 49.8104 36.5752 49.3633C36.3417 48.6677 36.1056 47.9732 35.8545 47.2842C35.6722 46.7847 35.4561 46.2918 35.2988 45.7891C35.1165 45.2052 34.8972 44.6335 34.6855 44.0645C34.325 43.0946 34.0069 42.1089 33.625 41.1455C33.4524 40.711 33.2589 40.2723 33.1416 39.8174C32.9848 39.2074 32.7058 38.6432 32.5225 38.043C32.3145 37.3627 32.047 36.7003 31.8047 36.0303C31.6065 35.482 31.426 34.9262 31.2041 34.3877C30.9612 33.7977 30.7894 33.1833 30.5391 32.5947C30.2953 32.021 30.1683 31.3981 29.9189 30.8271C29.6929 30.3087 29.5393 29.7661 29.3389 29.2412C29.0299 28.4323 28.7461 27.6095 28.4707 26.7861C28.4312 26.6681 28.355 26.6076 28.2441 26.5811C27.6287 26.4331 27.0128 26.2872 26.3545 26.1309ZM104.05 26.5781C103.918 26.6092 103.829 26.6841 103.792 26.8145C103.706 27.1211 103.544 27.3967 103.456 27.707C103.293 28.2789 103.064 28.8318 102.861 29.3926C102.63 30.0336 102.397 30.6739 102.166 31.3154C101.963 31.8785 101.763 32.4423 101.561 33.0049C101.329 33.6464 101.095 34.2872 100.863 34.9287C100.655 35.5029 100.448 36.0772 100.241 36.6514C100.046 37.1934 99.853 37.7368 99.6562 38.2783C99.4055 38.9681 99.152 39.6569 98.8984 40.3457C98.7212 40.8276 98.5359 41.3063 98.3643 41.79C98.1191 42.4812 97.8849 43.1766 97.6416 43.8682C97.4458 44.4261 97.2435 44.9816 97.043 45.5381C96.8411 46.0989 96.6389 46.6599 96.4355 47.2197C96.2081 47.8452 95.9775 48.4693 95.752 49.0957C95.5449 49.6709 95.3465 50.2495 95.1367 50.8232C94.9134 51.4355 94.6756 52.0425 94.4551 52.6553C94.2476 53.2323 94.0592 53.8156 93.8545 54.3936C93.6168 55.0656 93.3905 55.7424 93.123 56.4023C92.8988 56.9553 92.7317 57.5274 92.5195 58.084C92.3144 58.6224 92.128 59.1688 91.9326 59.7109C91.694 60.3728 91.4705 61.0403 91.21 61.6934C91.0141 62.1849 90.8458 62.6873 90.6621 63.1826C90.5551 63.471 90.4081 63.7735 90.3936 64.1133C90.5018 64.1198 90.594 64.1313 90.6855 64.1309C95.6474 64.1304 100.609 64.1293 105.571 64.127C105.979 64.127 105.979 64.1216 105.985 63.7207C105.986 63.6743 105.985 63.6274 105.985 63.5811C105.984 51.2607 105.983 38.9395 105.98 26.6191C105.981 26.4671 106.011 26.3102 105.933 26.1318C105.308 26.2798 104.679 26.4302 104.05 26.5781ZM106.844 25.8389C106.307 26.0263 106.306 26.025 106.306 26.6104C106.299 38.9142 106.293 51.2186 106.287 63.5225C106.287 63.6151 106.295 63.7091 106.286 63.8008C106.263 64.0313 106.342 64.1552 106.595 64.126C106.686 64.1154 106.78 64.124 106.873 64.124C111.71 64.1226 116.548 64.122 121.385 64.1211C121.539 64.1211 121.693 64.1201 121.913 64.1201C117.257 51.1857 112.627 38.3205 107.986 25.4287C107.593 25.5702 107.22 25.7076 106.844 25.8389ZM24.2871 25.4678C24.1208 25.5417 24.1675 25.8213 24.0801 25.9961C23.816 26.5232 23.6742 27.0953 23.4678 27.6455L23.2744 28.1289C23.0503 28.7145 22.8852 29.3248 22.6592 29.9102C22.435 30.4922 22.2467 31.0857 22.0342 31.6709C21.8045 32.3028 21.5969 32.9436 21.3389 33.5635C21.1226 34.0838 20.9796 34.6277 20.7656 35.1494C20.4935 35.8132 20.284 36.5025 20.0449 37.1797C19.8425 37.7525 19.6373 38.324 19.4316 38.8955C19.2037 39.5282 18.9731 40.1603 18.7451 40.793C18.5391 41.3643 18.336 41.9365 18.1309 42.5078C17.9089 43.1261 17.7202 43.76 17.4531 44.3584C17.2224 44.8755 17.0686 45.4189 16.876 45.9453C16.6573 46.5441 16.4376 47.149 16.2236 47.751C16.0152 48.3378 15.8145 48.932 15.5889 49.5146C15.4144 49.965 15.2369 50.4218 15.0811 50.8828C14.8462 51.578 14.6078 52.2718 14.3594 52.9619C14.1793 53.4619 13.9714 53.9546 13.7988 54.4551C13.5398 55.2054 13.2471 55.9438 13.0029 56.6982C12.8439 57.1907 12.6369 57.6641 12.4727 58.1533C12.2391 58.8496 11.9864 59.5398 11.7412 60.2314C11.5486 60.7741 11.3546 61.3162 11.1602 61.8584C10.9326 62.492 10.7159 63.1297 10.4717 63.7568C10.3396 64.0957 10.3298 64.1149 10.6777 64.1182C11.3291 64.1242 11.9805 64.1211 12.6318 64.1211C16.9275 64.122 21.2229 64.1226 25.5186 64.123C25.9942 64.1231 25.9756 64.1697 25.9756 63.6758V45.0771H25.9658V29.4463C25.9658 28.4105 25.9607 27.3746 25.9668 26.3389C25.9682 26.1331 25.9364 26.0103 25.6943 25.9551C25.4177 25.892 25.1523 25.7701 24.8887 25.6523C24.6961 25.5665 24.4816 25.3815 24.2871 25.4678ZM105.949 21.2012C105.688 21.4563 105.509 21.9174 105.492 22.332C105.661 22.2311 105.936 22.2907 105.968 22.0352C106.001 21.7722 106.008 21.4975 105.949 21.2012ZM26.376 21.1885C26.2709 21.4876 26.305 21.7045 26.3105 21.916C26.3199 22.2463 26.3924 22.2891 26.8027 22.2432C26.6739 21.9134 26.6602 21.541 26.376 21.1885ZM25.8936 21.127C25.7398 21.2628 25.7227 21.4215 25.6738 21.5615C25.5813 21.8262 25.586 21.8279 25.9609 21.9717C25.9381 21.6693 26.0242 21.4029 25.8936 21.127ZM106.387 21.1143C106.289 21.3865 106.325 21.5849 106.325 21.7793C106.325 21.8858 106.371 21.9501 106.495 21.9258C106.607 21.9035 106.656 21.8377 106.641 21.7314C106.614 21.5353 106.551 21.3508 106.387 21.1143ZM26.749 17.6719C25.8926 17.2123 25.0531 17.2803 24.2432 17.7803C23.1146 18.477 22.9542 19.595 23.834 20.5732C24.2369 21.0212 24.7025 21.3881 25.25 21.6543C25.3114 21.5004 25.3686 21.3918 25.3975 21.2764C25.4435 21.0946 25.4838 20.9378 25.2373 20.8135C24.7909 20.5881 24.4205 20.2547 24.1865 19.7998C23.859 19.1625 24.1869 18.3589 24.8652 18.1367C24.9926 18.095 25.1567 18.0249 25.2627 18.1201C25.3692 18.2161 25.3166 18.3767 25.2725 18.5098C25.2334 18.6265 25.1877 18.7428 25.1621 18.8623C25.077 19.258 25.2709 19.6475 25.6348 19.8252C25.717 19.8655 25.7894 19.8933 25.8906 19.8379C26.2586 19.6366 26.2621 19.6428 26.3984 20.0547H26.3994C26.8819 19.88 26.9774 19.8386 27.1025 19.6689C27.631 18.9542 27.3892 18.016 26.749 17.6719ZM108.723 18.4375C108.115 17.5188 106.635 17.0374 105.556 17.6523C104.678 18.1524 104.626 19.3592 105.471 19.9131C105.745 20.0934 105.769 20.1067 105.926 19.8438C106.036 19.6586 106.197 19.6287 106.294 19.7412C106.5 19.9823 106.647 19.8332 106.801 19.7168C107.023 19.548 107.132 19.3189 107.124 19.0332C107.117 18.8116 107.036 18.6136 106.966 18.4092C106.863 18.1119 106.919 18.0538 107.239 18.0996C108.029 18.2128 108.463 19.1359 108.061 19.8525C107.827 20.2682 107.47 20.5604 107.069 20.8076C106.76 20.9987 106.761 21.0037 106.889 21.3506C106.925 21.4484 106.927 21.5682 107.066 21.6387C107.705 21.3061 108.262 20.8539 108.695 20.2578C109.096 19.7077 109.103 19.0122 108.723 18.4375Z" fill="#191A2F"/>
</svg>
