<svg width="4756" height="3820" viewBox="0 0 4756 3820" fill="none" xmlns="http://www.w3.org/2000/svg">
<rect width="4756" height="3819.38" transform="translate(0 0.0595703)" fill="#191A2F"/>
<path d="M1990.99 2345.58C1994.99 2345.79 1997.96 2345.21 1998.55 2340.08C2000.28 2325.16 2009.83 2315.6 2021.91 2308.28C2038.3 2298.35 2056.56 2295.16 2075.38 2294.01C2145.51 2289.71 2206.1 2263.37 2256.5 2214.4C2276.04 2195.41 2291.49 2173.12 2301.43 2147.72C2308.21 2130.39 2314.09 2112.76 2317.54 2094.11C2321.88 2070.66 2322.84 2047.28 2322.84 2023.68C2322.84 1657.17 2322.82 1290.67 2323 924.16C2323 916.23 2321.57 910.51 2314.73 905.6C2306.87 899.96 2300.61 892.25 2296.15 883.62C2292.68 876.92 2287.95 874.95 2280.87 875.74C2272.94 876.62 2264.93 876.84 2256.96 877.34C2255.55 875.71 2254.23 875.95 2252.98 877.55L2220.95 881.26C2219.46 879.63 2218.17 880.06 2216.98 881.63C2170.9 888.73 2125.69 899.52 2081.17 913.33C2046.51 924.08 2012.43 936.47 1978.38 948.96C1918.74 970.84 1859.67 994.41 1798.07 1010.55C1755.08 1021.81 1711.49 1029.07 1666.94 1029.21C1646.27 1029.28 1625.72 1027.5 1605.28 1024.14C1596.31 1022.66 1587.23 1021.76 1577.42 1019.23C1577.77 1026.11 1579.44 1032.16 1582.05 1037.36C1588.14 1049.5 1591.01 1062.74 1596.07 1075.23C1601.95 1089.74 1606.69 1104.75 1612.17 1119.46C1616.87 1132.07 1620.1 1145.27 1625.33 1157.64C1630.69 1170.33 1634.3 1183.59 1639.6 1196.29C1644.44 1207.87 1648.28 1219.87 1652.54 1231.69C1657.74 1246.13 1662.97 1260.57 1668.09 1275.04C1672.49 1287.5 1676.65 1300.05 1681.1 1312.5C1685.83 1325.71 1690.82 1338.83 1695.63 1352.01C1700.05 1364.12 1704.39 1376.27 1708.76 1388.4C1713.85 1402.53 1719.29 1416.54 1723.9 1430.82C1727.76 1442.75 1732.49 1454.33 1736.69 1466.12C1741.73 1480.26 1746.81 1494.38 1751.89 1508.51C1756.12 1520.28 1760.38 1532.05 1764.61 1543.83C1769.03 1556.14 1773.74 1568.37 1777.73 1580.82C1782.56 1595.88 1788.96 1610.37 1793.27 1625.63C1796.02 1635.39 1800.02 1644.87 1803.73 1654.24C1812.07 1675.31 1818.81 1696.92 1826.91 1718.06C1831.62 1730.35 1835.58 1743.03 1840.17 1755.34C1844.96 1768.18 1848.86 1781.36 1854.26 1794.03C1857.84 1802.43 1860.37 1811.34 1863.56 1819.96C1865.26 1824.55 1867.77 1825.83 1872.37 1825.79C1891.69 1825.59 1911.02 1825.71 1931.04 1825.71C1929.91 1829.77 1926.43 1830.6 1923.95 1832.22C1871.71 1866.39 1815.43 1891.97 1756.29 1911.64C1717.22 1924.64 1677.51 1934.98 1636.83 1941.33C1583.45 1949.67 1529.81 1953.09 1475.74 1950.41C1442.07 1948.74 1408.59 1945.22 1375.57 1939.17C1339.67 1932.59 1304.42 1922.78 1269.88 1910.64C1212.26 1890.39 1158.86 1861.92 1108 1828.42C1107.47 1828.07 1107.04 1827.56 1106.19 1826.79C1108.55 1824.63 1111.28 1825.52 1113.66 1825.5C1130.99 1825.41 1148.32 1825.3 1165.65 1825.54C1170.39 1825.61 1173.11 1824.18 1174.25 1819.47C1177.98 1804.05 1184.62 1789.59 1189.82 1774.68C1194.32 1761.77 1198.64 1748.69 1203.95 1735.99C1209.02 1723.86 1212.64 1711.13 1217.08 1698.73C1221.81 1685.51 1226.76 1672.37 1231.57 1659.18C1235.98 1647.06 1240.34 1634.92 1244.7 1622.79C1249.79 1608.64 1254.87 1594.49 1259.95 1580.34C1264.2 1568.51 1268.43 1556.68 1272.68 1544.85C1277.76 1530.69 1282.84 1516.54 1287.91 1502.38C1292.24 1490.3 1296.53 1478.21 1300.86 1466.13C1305.83 1452.28 1310.87 1438.45 1315.78 1424.58C1320.95 1409.98 1325.43 1395.11 1331.27 1380.8C1335.86 1369.55 1339.35 1357.93 1343.5 1346.56C1348.91 1331.72 1354.74 1317.01 1359.28 1301.83C1362.54 1290.93 1367.28 1280.49 1371.21 1269.78C1376.45 1255.54 1382.19 1241.44 1386.49 1226.91C1389.85 1215.55 1394.8 1204.85 1398.36 1193.57C1403.49 1177.29 1409.91 1161.39 1415.41 1145.18C1418.97 1134.68 1423.46 1124.44 1427.16 1113.93C1432.42 1098.99 1437.68 1084.06 1443.03 1069.15C1447.77 1055.94 1452.62 1042.77 1457.42 1029.57C1461.7 1017.8 1465.74 1005.95 1470.35 994.31C1472.48 988.92 1470.57 986.69 1465.87 984.45C1447.12 975.54 1429.84 964.3 1414.19 950.62C1400.51 938.66 1388.72 925.31 1381.52 908.27C1378.06 900.08 1375.28 891.88 1375.12 882.92C1374.92 871.37 1373.95 859.89 1376.95 848.38C1380.62 834.25 1387.3 821.86 1397.3 811.55C1423.6 784.45 1455.56 769.99 1493.67 771.5C1525.96 772.78 1552.58 785.41 1570.88 813.15C1583.64 832.5 1583.71 859.14 1570.66 878.27C1563.83 888.28 1554.66 895.07 1542.65 897.75C1539.47 898.46 1536.37 899.5 1532.86 900.5C1536.25 909.22 1539.62 917.4 1542.56 925.73C1543.46 928.27 1544.67 929.09 1547.2 929.87C1576.03 938.73 1604.96 946.94 1635.18 949.73C1657.82 951.82 1680.42 951.92 1703.04 949.86C1704.49 951.49 1705.79 951.16 1707.02 949.59C1752.38 945.38 1795.68 932.67 1838.13 916.96C1902.56 893.13 1966.64 868.37 2031.08 844.57C2081.01 826.13 2131.93 810.77 2184.18 800.33C2209.26 795.32 2234.61 791.74 2260.14 789.65C2267.77 789.03 2275.4 788.37 2283.03 787.73C2284.41 789.32 2285.73 789.2 2287.02 787.61C2290.08 787.57 2292.87 787.34 2294.67 784.13C2300.79 773.25 2308.81 763.93 2318.77 756.41C2322.63 753.49 2322.4 749.54 2322.43 745.6C2322.54 730.6 2322.52 715.6 2322.57 700.61C2322.6 691.28 2322.89 681.94 2322.65 672.62C2322.54 668.36 2324.02 665.91 2327.8 664.05C2335 660.5 2341.4 655.76 2347.3 650.25C2353.13 644.81 2356.04 637.79 2357.96 630.51C2360.25 621.79 2355.38 614.44 2351.2 607.42C2348.86 603.5 2345.41 600.05 2341.89 597.06C2313.5 573.01 2315.93 533.86 2334.14 510.94C2349.65 491.41 2363.23 470.35 2377.6 450.06C2381.35 451 2382.32 454.13 2383.99 456.46C2397.74 475.71 2411.39 495.03 2425.07 514.33C2443.29 540.04 2440.39 572.35 2417.82 594.39C2413.29 598.81 2408.59 603.05 2405.02 608.36C2395.9 621.97 2396.7 635.48 2407.49 647.7C2413.07 654.02 2419.57 659.44 2427.18 662.82C2433.53 665.64 2434.88 669.69 2434.81 676.08C2434.53 699.07 2434.95 722.07 2434.77 745.07C2434.72 750.85 2436.15 754.99 2440.94 758.68C2449.17 765.02 2455.92 772.95 2461.06 782.02C2463.28 785.94 2465.98 787.35 2470.52 787.68C2501.37 789.94 2532 793.38 2562.55 798.89C2595.07 804.75 2626.89 812.87 2658.48 822.15C2676.4 827.41 2694.02 833.74 2711.67 839.88C2736.11 848.38 2760.21 857.81 2784.41 866.94C2804.55 874.54 2824.69 882.22 2844.85 889.8C2863.56 896.83 2882.18 904.31 2900.91 911.2C2947.43 928.31 2994.62 943.47 3044.28 948.95C3094.93 954.54 3144.66 950.93 3193.15 934.43C3200 932.1 3208.72 932.3 3213.17 926.75C3217.19 921.75 3218.07 914.15 3220.8 907.84C3224.07 900.29 3223.83 899.86 3215.73 898.08C3196.17 893.77 3184.48 880.97 3178.97 862.69C3174.59 848.16 3175.06 833.14 3182.65 819.52C3197.1 793.58 3218.75 778.12 3248.62 773.36C3293.16 766.25 3330.31 780.57 3360.2 812.46C3385.65 839.61 3388.08 872.49 3375.89 906.77C3371.59 918.86 3364.4 929.23 3355.52 938.5C3337.32 957.49 3316.12 972.26 3292.63 983.91C3284.9 987.75 3284.49 987.94 3287.23 996.49C3290.72 1007.36 3295.07 1017.95 3298.93 1028.71C3304.38 1043.92 3309.66 1059.19 3315.12 1074.39C3319.86 1087.58 3324.81 1100.71 3329.59 1113.89C3334.09 1126.27 3338.48 1138.69 3342.94 1151.09C3347.91 1164.9 3352.9 1178.71 3357.88 1192.52C3362.13 1204.29 3366.37 1216.07 3370.61 1227.84C3375.8 1242.28 3381.05 1256.71 3386.15 1271.18C3390.55 1283.64 3394.67 1296.2 3399.12 1308.65C3403.85 1321.87 3408.76 1335.03 3413.7 1348.17C3418.21 1360.18 3421.8 1372.5 3426.6 1384.43C3432.21 1398.36 3436.88 1412.68 3441.96 1426.83C3446.86 1440.47 3451.77 1454.11 3456.66 1467.75C3461.08 1480.07 3465.87 1492.27 3469.79 1504.75C3474.53 1519.84 3480.98 1534.3 3485.32 1549.54C3487.72 1557.97 3491.4 1566.09 3494.64 1574.26C3499.6 1586.75 3503.21 1599.68 3508.29 1612.13C3513.99 1626.12 3517.46 1641.04 3523.39 1654.92C3528.17 1666.12 3531.1 1677.89 3535.83 1689.09C3541.71 1703.02 3545.99 1717.62 3551.08 1731.89C3555.14 1743.29 3559.45 1754.61 3563.5 1766.02C3568.79 1780.92 3574.06 1795.83 3579.01 1810.84C3579.81 1813.27 3580.75 1815.75 3581.54 1818.18C3583.12 1823.05 3586.28 1825.88 3592.59 1825.68C3611.56 1825.09 3630.56 1825.47 3649.47 1825.47C3650.75 1828.66 3648.08 1828.96 3646.66 1829.91C3571.87 1879.92 3490.9 1915.49 3402.8 1934.5C3364.69 1942.72 3326.19 1947.61 3287.28 1950.08C3246.56 1952.67 3205.99 1951.36 3165.5 1947.29C3122.04 1942.92 3079.11 1935.22 3037.14 1922.93C3016.17 1916.79 2994.96 1911.09 2974.6 1903.28C2924.1 1883.9 2875.5 1860.5 2830.31 1830.46C2828.96 1829.56 2827.7 1828.53 2826.19 1827.4C2828.49 1824.64 2831.31 1825.82 2833.67 1825.81C2850.67 1825.69 2867.67 1825.48 2884.66 1825.91C2889.33 1826.03 2891.5 1824.02 2892.76 1820.48C2898.41 1804.68 2903.95 1788.82 2909.63 1773.06C2914.28 1760.17 2918.54 1747.07 2923.85 1734.37C2928.67 1722.84 2932.44 1710.86 2936.67 1699.08C2941.74 1684.94 2946.8 1670.79 2951.89 1656.65C2956.12 1644.87 2960.38 1633.1 2964.62 1621.32C2969.82 1606.87 2975.6 1592.6 2980.04 1577.92C2983.95 1564.97 2989.95 1552.83 2993.32 1539.67C2995.84 1529.86 3000.05 1520.43 3003.72 1511.03C3011.96 1489.91 3018.82 1468.31 3026.96 1447.17C3035.23 1425.68 3042.1 1403.65 3049.84 1381.94C3054.34 1369.3 3059.54 1356.92 3064.07 1344.29C3071.61 1323.3 3078.78 1302.18 3086.28 1281.17C3091.24 1267.28 3096.65 1253.54 3101.59 1239.64C3109.18 1218.31 3115.88 1196.63 3124.2 1175.59C3132.18 1155.43 3139.02 1134.88 3146.34 1114.51C3151.45 1100.29 3156.49 1085.96 3161.61 1071.75C3166.16 1059.12 3169.52 1045.96 3175.5 1033.82C3176.82 1031.15 3177.81 1028.27 3178.58 1025.39C3179.91 1020.46 3178.72 1019.25 3173.86 1020.34C3146.97 1026.41 3119.67 1029.04 3092.18 1029.26C3065.48 1029.47 3039.05 1026.36 3012.65 1022.3C2984.69 1017.99 2957.42 1010.68 2930.39 1002.96C2910.27 997.21 2890.07 991.16 2870.55 983.15C2851.12 975.19 2831.27 968.21 2811.42 961.34C2794.68 955.54 2778.02 949.45 2761.41 943.33C2734.41 933.38 2707.49 923.21 2679.97 914.78C2653.62 906.71 2627.2 898.93 2600.22 893.11C2568.75 886.32 2537.1 880.71 2505.03 877.7C2503.79 876.11 2502.47 875.82 2501.04 877.47C2491.06 876.92 2481.08 876.44 2471.12 875.77C2467.4 875.52 2464.96 876.62 2463.09 880.08C2456.83 891.66 2448.33 901.44 2437.94 909.5C2435.27 911.57 2434.25 913.99 2434.41 917.23C2434.54 919.89 2434.43 922.56 2434.43 925.23C2434.43 1293.16 2434.46 1661.09 2434.35 2029.02C2434.35 2052.4 2435.16 2075.71 2439.52 2098.64C2442.18 2112.59 2446.55 2126.27 2451.8 2139.57C2473.46 2194.37 2512.28 2233.25 2563.43 2261.06C2582.34 2271.34 2602.24 2279.32 2622.69 2285.03C2641.76 2290.36 2661.44 2294.24 2681.67 2294.31C2699.12 2294.37 2716.12 2297.9 2731.69 2306.38C2745.72 2314.03 2756.64 2324.35 2758.83 2341.17C2759.5 2346.31 2762.9 2345.52 2766.09 2345.56C2788.75 2345.83 2811.41 2346.3 2834.07 2346.25C2891.72 2346.13 2949.38 2345.93 3007.03 2345.4C3024.05 2345.24 3040.84 2346.89 3057.43 2350.08C3071.15 2352.72 3084.18 2357.78 3095.62 2366.1C3109.89 2376.48 3117.44 2390.77 3119.09 2408.19C3119.82 2415.9 3119.59 2416.06 3111.93 2416.16C3083.27 2416.53 3054.62 2417.03 3025.96 2417.05C2810.67 2417.25 2595.38 2417.47 2380.09 2417.44C2155.8 2417.41 1931.51 2417.13 1707.22 2416.9C1686.23 2416.88 1665.23 2416.49 1644.24 2416.15C1637.24 2416.04 1636.84 2415.45 1637.6 2408.64C1639.9 2388.04 1649.79 2372.32 1667.81 2361.86C1681.87 2353.7 1697.3 2349.97 1713.19 2347.61C1726.09 2345.69 1739.07 2345.47 1752.07 2345.49C1828.39 2345.62 1904.7 2346.95 1981.02 2345.82C1984.38 2347.98 1987.71 2347.9 1991 2345.67L1990.99 2345.58ZM3577.32 1825.41C3477.25 1546.56 3377.71 1269.21 3277.97 991.28C3269.52 994.33 3261.49 997.29 3253.41 1000.12C3241.88 1004.16 3241.86 1004.12 3241.85 1016.74C3241.71 1282 3241.58 1547.27 3241.45 1812.53C3241.45 1814.53 3241.61 1816.55 3241.42 1818.53C3240.93 1823.5 3242.62 1826.16 3248.05 1825.53C3250.02 1825.3 3252.04 1825.5 3254.04 1825.5C3358.01 1825.47 3461.99 1825.44 3565.96 1825.42C3569.27 1825.42 3572.58 1825.42 3577.32 1825.42V1825.41ZM1515.23 1414.86H1515.02C1515.02 1302.54 1515.02 1190.21 1515.02 1077.89C1515.02 1055.56 1514.93 1033.23 1515.06 1010.9C1515.09 1006.46 1514.4 1003.81 1509.19 1002.62C1503.24 1001.26 1497.54 998.63 1491.87 996.09C1487.73 994.24 1483.13 990.25 1478.95 992.11C1475.37 993.7 1476.37 999.73 1474.49 1003.5C1468 1016.49 1464.95 1030.75 1459.33 1044.12C1453.35 1058.35 1449.51 1073.46 1443.96 1087.88C1439.14 1100.43 1435.1 1113.22 1430.53 1125.84C1425.59 1139.47 1421.12 1153.29 1415.57 1166.66C1410.92 1177.88 1407.86 1189.6 1403.26 1200.85C1397.41 1215.16 1392.9 1230.01 1387.76 1244.61C1383.41 1256.96 1379.01 1269.28 1374.59 1281.6C1369.69 1295.24 1364.73 1308.86 1359.83 1322.5C1355.4 1334.82 1351.04 1347.16 1346.63 1359.48C1341.86 1372.81 1337.8 1386.47 1332.06 1399.37C1327.1 1410.52 1323.8 1422.24 1319.66 1433.59C1314.96 1446.5 1310.24 1459.54 1305.64 1472.52C1301.16 1485.17 1296.83 1497.97 1291.98 1510.53C1288.23 1520.24 1284.43 1530.09 1281.08 1540.03C1276.03 1555.02 1270.9 1569.98 1265.56 1584.86C1261.69 1595.64 1257.23 1606.25 1253.52 1617.04C1247.95 1633.22 1241.65 1649.14 1236.4 1665.41C1232.98 1676.03 1228.53 1686.23 1225 1696.78C1219.98 1711.79 1214.56 1726.66 1209.29 1741.57C1205.15 1753.27 1200.98 1764.96 1196.8 1776.65C1191.91 1790.31 1187.25 1804.05 1182 1817.57C1179.16 1824.88 1178.95 1825.3 1186.43 1825.37C1200.43 1825.5 1214.43 1825.42 1228.43 1825.42C1320.76 1825.44 1413.08 1825.47 1505.41 1825.48C1515.64 1825.48 1515.23 1826.48 1515.23 1815.83C1515.23 1814.83 1515.23 1813.83 1515.23 1812.83C1515.23 1680.17 1515.23 1547.52 1515.23 1414.86ZM3233.82 1006.44C3220.39 1009.63 3206.89 1012.86 3193.37 1016.05C3190.53 1016.72 3188.61 1018.34 3187.82 1021.16C3185.97 1027.77 3182.49 1033.7 3180.59 1040.39C3177.09 1052.72 3172.16 1064.64 3167.81 1076.73C3162.84 1090.55 3157.84 1104.36 3152.88 1118.19C3148.52 1130.33 3144.21 1142.48 3139.85 1154.61C3134.88 1168.44 3129.87 1182.25 3124.88 1196.08C3120.41 1208.46 3115.95 1220.83 3111.5 1233.21C3107.3 1244.9 3103.15 1256.62 3098.92 1268.3C3093.53 1283.17 3088.08 1298.01 3082.63 1312.86C3078.82 1323.25 3074.84 1333.57 3071.15 1344C3065.88 1358.9 3060.85 1373.89 3055.62 1388.8C3051.41 1400.83 3047.07 1412.81 3042.76 1424.81C3038.42 1436.9 3034.07 1448.98 3029.7 1461.05C3024.81 1474.54 3019.85 1488 3015 1501.51C3010.55 1513.91 3006.3 1526.38 3001.79 1538.75C2996.99 1551.95 2991.87 1565.03 2987.13 1578.24C2982.67 1590.68 2978.63 1603.26 2974.23 1615.72C2969.12 1630.21 2964.25 1644.8 2958.5 1659.03C2953.68 1670.95 2950.09 1683.27 2945.53 1695.27C2941.12 1706.88 2937.12 1718.66 2932.92 1730.35C2927.79 1744.62 2922.99 1759.01 2917.39 1773.09C2913.18 1783.69 2909.55 1794.52 2905.6 1805.2C2903.3 1811.42 2900.15 1817.94 2899.84 1825.27C2902.17 1825.41 2904.15 1825.64 2906.12 1825.63C3012.77 1825.62 3119.41 1825.6 3226.06 1825.55C3234.82 1825.55 3234.82 1825.44 3234.96 1816.79C3234.98 1815.79 3234.96 1814.79 3234.96 1813.79C3234.94 1548.18 3234.92 1282.56 3234.86 1016.95C3234.86 1013.67 3235.52 1010.29 3233.83 1006.44H3233.82ZM1523.38 1006.42C1521.9 1011.63 1522.37 1015.63 1522.36 1019.57C1522.31 1153.19 1522.29 1286.81 1522.27 1420.43C1522.25 1551.72 1522.22 1683 1522.21 1814.29C1522.21 1825.48 1522.24 1825.56 1531.65 1825.56C1637.61 1825.61 1743.57 1825.63 1849.54 1825.62C1852.01 1825.62 1854.72 1826.24 1857.34 1824.22C1856.67 1822.07 1856.14 1820.19 1855.49 1818.36C1851.89 1808.14 1848.29 1797.93 1844.62 1787.73C1839.59 1773.78 1834.79 1759.73 1829.35 1745.94C1825.16 1735.32 1821.02 1724.61 1817.49 1713.85C1812.57 1698.82 1806.54 1684.2 1801.79 1669.11C1798.36 1658.2 1793.26 1647.73 1789.93 1636.87C1785.96 1623.94 1780.99 1611.39 1776.37 1598.78C1768.69 1577.85 1761.78 1556.64 1753.6 1535.86C1749.92 1526.5 1746.29 1516.92 1743.06 1507.28C1738.04 1492.28 1732.97 1477.3 1727.57 1462.44C1723.65 1451.67 1719.01 1441.05 1715.63 1430.21C1711.71 1417.62 1707 1405.3 1702.45 1393.03C1694.7 1372.12 1687.87 1350.87 1679.66 1330.1C1675.95 1320.73 1671.78 1311.28 1669.26 1301.47C1665.89 1288.32 1659.9 1276.17 1655.96 1263.23C1651.49 1248.56 1645.75 1234.27 1640.54 1219.82C1636.28 1208 1632.39 1196.03 1627.62 1184.42C1622.4 1171.7 1618.7 1158.46 1613.32 1145.77C1608.08 1133.4 1605.35 1119.97 1599.99 1107.66C1595.13 1096.48 1591.83 1084.78 1587.52 1073.46C1580.88 1056.02 1574.8 1038.29 1568.88 1020.54C1568.03 1017.99 1566.38 1016.68 1563.99 1016.11C1550.76 1012.92 1537.52 1009.78 1523.37 1006.41L1523.38 1006.42ZM3258.2 909.57C3271.93 902.4 3283.89 892.65 3293.21 879.8C3301.83 867.94 3301.97 852.95 3293.8 840.56C3280.73 820.75 3248.93 810.36 3225.72 823.62C3206.86 834.4 3205.74 860.42 3223.9 872.36C3229.81 876.25 3230.31 876.55 3233.68 870.88C3236.06 866.88 3239.51 866.24 3241.59 868.67C3246.03 873.87 3249.19 870.64 3252.49 868.13C3257.26 864.49 3259.62 859.56 3259.44 853.4C3259.3 848.62 3257.54 844.35 3256.03 839.94C3253.83 833.53 3255.03 832.28 3261.92 833.27C3278.89 835.71 3288.22 855.62 3279.56 871.07C3274.54 880.03 3266.88 886.33 3258.27 891.66C3251.61 895.78 3251.62 895.88 3254.37 903.36C3255.15 905.47 3255.2 908.05 3258.2 909.57ZM1524.34 875.43C1534.72 871.66 1536.78 870.77 1539.47 867.11C1550.83 851.7 1545.63 831.47 1531.87 824.05C1513.46 814.14 1495.42 815.61 1478.01 826.39C1453.75 841.41 1450.29 865.51 1469.2 886.6C1477.86 896.26 1487.87 904.17 1499.64 909.91C1500.96 906.59 1502.19 904.25 1502.81 901.76C1503.8 897.84 1504.68 894.46 1499.38 891.78C1489.78 886.92 1481.82 879.73 1476.79 869.92C1469.75 856.18 1476.79 838.87 1491.37 834.08C1494.11 833.18 1497.64 831.66 1499.92 833.72C1502.21 835.79 1501.08 839.25 1500.13 842.12C1499.29 844.64 1498.3 847.14 1497.75 849.72C1495.92 858.25 1500.09 866.65 1507.91 870.48C1509.68 871.35 1511.24 871.94 1513.42 870.74C1521.33 866.4 1521.4 866.53 1524.33 875.41L1524.34 875.43ZM3234.18 900.14C3228.57 905.64 3224.71 915.58 3224.36 924.52C3227.98 922.34 3233.89 923.63 3234.58 918.12C3235.3 912.45 3235.45 906.53 3234.18 900.14ZM1523.84 899.87C1521.58 906.32 1522.31 910.99 1522.43 915.55C1522.63 922.67 1524.19 923.58 1533.01 922.59C1530.24 915.48 1529.95 907.47 1523.84 899.87ZM1514.92 916.74C1514.43 910.22 1516.29 904.48 1513.48 898.53C1510.17 901.46 1509.8 904.88 1508.75 907.9C1506.76 913.61 1506.86 913.64 1514.92 916.74ZM3243.59 898.27C3241.49 904.14 3242.27 908.41 3242.27 912.6C3242.27 914.9 3243.25 916.28 3245.93 915.75C3248.33 915.27 3249.36 913.86 3249.04 911.57C3248.46 907.34 3247.11 903.38 3243.58 898.28L3243.59 898.27Z" fill="white"/>
<path d="M431.741 2985.44V2670.44H580.691C615.491 2670.44 646.091 2676.89 672.491 2689.79C698.891 2702.69 719.441 2720.84 734.141 2744.24C749.141 2767.64 756.641 2795.54 756.641 2827.94C756.641 2860.04 749.141 2887.94 734.141 2911.64C719.441 2935.04 698.891 2953.19 672.491 2966.09C646.091 2978.99 615.491 2985.44 580.691 2985.44H431.741ZM520.841 2914.34H577.091C595.091 2914.34 610.691 2911.04 623.891 2904.44C637.391 2897.54 647.891 2887.64 655.391 2874.74C662.891 2861.54 666.641 2845.94 666.641 2827.94C666.641 2809.64 662.891 2794.04 655.391 2781.14C647.891 2768.24 637.391 2758.49 623.891 2751.89C610.691 2744.99 595.091 2741.54 577.091 2741.54H520.841V2914.34ZM885.419 2792.39H1031.67V2858.99H885.419V2792.39ZM891.719 2916.59H1056.42V2985.44H803.519V2670.44H1050.57V2739.29H891.719V2916.59ZM1188.66 2808.59H1334.01V2877.44H1188.66V2808.59ZM1194.96 2985.44H1105.86V2670.44H1352.91V2739.29H1194.96V2985.44ZM1476.48 2792.39H1622.73V2858.99H1476.48V2792.39ZM1482.78 2916.59H1647.48V2985.44H1394.58V2670.44H1641.63V2739.29H1482.78V2916.59ZM1696.93 2985.44V2670.44H1770.28L1943.98 2880.14H1909.33V2670.44H1996.63V2985.44H1923.28L1749.58 2775.74H1784.23V2985.44H1696.93ZM2170.18 2991.74C2144.38 2991.74 2119.48 2988.59 2095.48 2982.29C2071.78 2975.69 2052.43 2967.29 2037.43 2957.09L2066.68 2891.39C2080.78 2900.39 2096.98 2907.89 2115.28 2913.89C2133.88 2919.59 2152.33 2922.44 2170.63 2922.44C2182.93 2922.44 2192.83 2921.39 2200.33 2919.29C2207.83 2916.89 2213.23 2913.89 2216.53 2910.29C2220.13 2906.39 2221.93 2901.89 2221.93 2896.79C2221.93 2889.59 2218.63 2883.89 2212.03 2879.69C2205.43 2875.49 2196.88 2872.04 2186.38 2869.34C2175.88 2866.64 2164.18 2863.94 2151.28 2861.24C2138.68 2858.54 2125.93 2855.09 2113.03 2850.89C2100.43 2846.69 2088.88 2841.29 2078.38 2834.69C2067.88 2827.79 2059.33 2818.94 2052.73 2808.14C2046.13 2797.04 2042.83 2783.09 2042.83 2766.29C2042.83 2747.39 2047.93 2730.29 2058.13 2714.99C2068.63 2699.69 2084.23 2687.39 2104.93 2678.09C2125.63 2668.79 2151.43 2664.14 2182.33 2664.14C2203.03 2664.14 2223.28 2666.54 2243.08 2671.34C2263.18 2675.84 2281.03 2682.59 2296.63 2691.59L2269.18 2757.74C2254.18 2749.64 2239.33 2743.64 2224.63 2739.74C2209.93 2735.54 2195.68 2733.44 2181.88 2733.44C2169.58 2733.44 2159.68 2734.79 2152.18 2737.49C2144.68 2739.89 2139.28 2743.19 2135.98 2747.39C2132.68 2751.59 2131.03 2756.39 2131.03 2761.79C2131.03 2768.69 2134.18 2774.24 2140.48 2778.44C2147.08 2782.34 2155.63 2785.64 2166.13 2788.34C2176.93 2790.74 2188.63 2793.29 2201.23 2795.99C2214.13 2798.69 2226.88 2802.14 2239.48 2806.34C2252.38 2810.24 2264.08 2815.64 2274.58 2822.54C2285.08 2829.14 2293.48 2837.99 2299.78 2849.09C2306.38 2859.89 2309.68 2873.54 2309.68 2890.04C2309.68 2908.34 2304.43 2925.29 2293.93 2940.89C2283.73 2956.19 2268.28 2968.49 2247.58 2977.79C2227.18 2987.09 2201.38 2991.74 2170.18 2991.74ZM2313.03 2985.44L2452.08 2670.44H2539.83L2679.33 2985.44H2586.63L2477.73 2714.09H2512.83L2403.93 2985.44H2313.03ZM2389.08 2924.24L2412.03 2858.54H2565.93L2588.88 2924.24H2389.08ZM2835.55 2985.44V2670.44H2924.65V2914.79H3074.95V2985.44H2835.55ZM3192.11 2792.39H3338.36V2858.99H3192.11V2792.39ZM3198.41 2916.59H3363.11V2985.44H3110.21V2670.44H3357.26V2739.29H3198.41V2916.59ZM3570.05 2991.74C3545.15 2991.74 3522.05 2987.84 3500.75 2980.04C3479.45 2971.94 3461 2960.54 3445.4 2945.84C3430.1 2931.14 3418.1 2913.89 3409.4 2894.09C3400.7 2873.99 3396.35 2851.94 3396.35 2827.94C3396.35 2803.94 3400.7 2782.04 3409.4 2762.24C3418.1 2742.14 3430.25 2724.74 3445.85 2710.04C3461.45 2695.34 3479.9 2684.09 3501.2 2676.29C3522.8 2668.19 3546.35 2664.14 3571.85 2664.14C3601.55 2664.14 3628.1 2669.09 3651.5 2678.99C3674.9 2688.89 3694.25 2703.14 3709.55 2721.74L3652.85 2773.04C3642.05 2761.34 3630.35 2752.64 3617.75 2746.94C3605.45 2740.94 3591.65 2737.94 3576.35 2737.94C3562.85 2737.94 3550.55 2740.04 3539.45 2744.24C3528.35 2748.44 3518.9 2754.59 3511.1 2762.69C3503.3 2770.49 3497.15 2779.94 3492.65 2791.04C3488.45 2801.84 3486.35 2814.14 3486.35 2827.94C3486.35 2841.14 3488.45 2853.29 3492.65 2864.39C3497.15 2875.49 3503.3 2885.09 3511.1 2893.19C3518.9 2900.99 3528.2 2907.14 3539 2911.64C3550.1 2915.84 3562.25 2917.94 3575.45 2917.94C3588.65 2917.94 3601.55 2915.84 3614.15 2911.64C3626.75 2907.14 3639.5 2899.64 3652.4 2889.14L3702.35 2951.69C3684.35 2964.59 3663.5 2974.49 3639.8 2981.39C3616.1 2988.29 3592.85 2991.74 3570.05 2991.74ZM3623.6 2939.99V2821.19H3702.35V2951.69L3623.6 2939.99ZM3721.04 2985.44L3860.09 2670.44H3947.84L4087.34 2985.44H3994.64L3885.74 2714.09H3920.84L3811.94 2985.44H3721.04ZM3797.09 2924.24L3820.04 2858.54H3973.94L3996.89 2924.24H3797.09ZM4112.6 2985.44V2670.44H4201.7V2914.79H4352V2985.44H4112.6Z" fill="white"/>
<path d="M441.984 3313.44L473.064 3158.04H495.264L467.958 3294.13H552.318L548.544 3313.44H441.984ZM616.679 3314.77C606.763 3314.77 597.883 3312.78 590.039 3308.78C582.195 3304.64 575.979 3298.79 571.391 3291.24C566.951 3283.69 564.731 3274.59 564.731 3263.94C564.731 3253.87 566.359 3244.62 569.615 3236.19C573.019 3227.75 577.681 3220.42 583.601 3214.21C589.669 3207.99 596.773 3203.18 604.913 3199.78C613.053 3196.37 621.859 3194.67 631.331 3194.67C641.543 3194.67 650.201 3196.45 657.305 3200C664.409 3203.55 669.885 3208.81 673.733 3215.76C677.581 3222.57 679.505 3230.93 679.505 3240.85C679.505 3255.35 676.989 3268.23 671.957 3279.48C666.925 3290.58 659.673 3299.23 650.201 3305.45C640.877 3311.67 629.703 3314.77 616.679 3314.77ZM621.341 3296.13C630.221 3296.13 638.139 3293.98 645.095 3289.69C652.051 3285.4 657.453 3279.55 661.301 3272.15C665.297 3264.6 667.295 3256.02 667.295 3246.4C667.295 3236.04 664.261 3227.97 658.193 3222.2C652.125 3216.28 643.467 3213.32 632.219 3213.32C623.487 3213.32 615.643 3215.47 608.687 3219.76C601.731 3223.9 596.255 3229.75 592.259 3237.3C588.263 3244.7 586.265 3253.28 586.265 3263.05C586.265 3273.26 589.299 3281.33 595.367 3287.25C601.435 3293.17 610.093 3296.13 621.341 3296.13ZM655.307 3313.44L661.523 3283.03L668.627 3255.72L671.513 3227.75L677.729 3195.78H699.041L675.731 3313.44H655.307ZM769.902 3313.44L795.876 3184.68C798.244 3172.84 803.054 3163.67 810.306 3157.15C817.706 3150.64 827.4 3147.39 839.388 3147.39C844.272 3147.39 848.86 3148.05 853.152 3149.38C857.592 3150.57 861.218 3152.34 864.03 3154.71L855.15 3170.47C851.006 3166.77 845.752 3164.92 839.388 3164.92C833.024 3164.92 827.918 3166.7 824.07 3170.25C820.37 3173.8 817.78 3179.21 816.3 3186.46L812.97 3201.78L811.86 3210.66L791.214 3313.44H769.902ZM769.902 3213.32L773.232 3195.78H848.49L844.938 3213.32H769.902ZM890.79 3314.77C880.726 3314.77 872.216 3312.7 865.26 3308.56C858.452 3304.41 853.642 3298.42 850.83 3290.58C848.018 3282.58 847.722 3272.96 849.942 3261.72L863.04 3195.78H884.352L871.254 3261.94C869.182 3272.45 870.218 3280.73 874.362 3286.8C878.654 3292.72 886.202 3295.68 897.006 3295.68C908.106 3295.68 917.43 3292.57 924.978 3286.36C932.526 3280.14 937.558 3270.74 940.074 3258.16L952.506 3195.78H973.818L950.508 3313.44H930.084L936.744 3279.7L940.518 3288.8C935.042 3297.68 927.938 3304.27 919.206 3308.56C910.622 3312.7 901.15 3314.77 890.79 3314.77ZM1042.81 3314.77C1031.26 3314.77 1021.27 3312.7 1012.84 3308.56C1004.4 3304.27 997.888 3298.35 993.3 3290.8C988.712 3283.1 986.418 3274.07 986.418 3263.71C986.418 3250.39 989.304 3238.55 995.076 3228.19C1000.85 3217.83 1008.69 3209.69 1018.61 3203.77C1028.67 3197.71 1040.07 3194.67 1052.8 3194.67C1063.45 3194.67 1072.7 3196.74 1080.55 3200.89C1088.39 3204.88 1094.46 3210.66 1098.75 3218.2C1103.19 3225.75 1105.41 3234.85 1105.41 3245.51C1105.41 3248.17 1105.26 3250.91 1104.97 3253.72C1104.67 3256.39 1104.3 3258.9 1103.86 3261.27H1001.96L1004.62 3245.73H1093.64L1084.99 3251.06C1086.32 3242.77 1085.73 3235.82 1083.21 3230.19C1080.69 3224.42 1076.7 3220.05 1071.22 3217.09C1065.89 3213.99 1059.46 3212.43 1051.91 3212.43C1043.03 3212.43 1035.18 3214.58 1028.38 3218.87C1021.72 3223.01 1016.54 3228.86 1012.84 3236.41C1009.14 3243.81 1007.29 3252.54 1007.29 3262.6C1007.29 3273.26 1010.32 3281.55 1016.39 3287.47C1022.6 3293.24 1032 3296.13 1044.58 3296.13C1051.98 3296.13 1058.86 3294.94 1065.23 3292.57C1071.59 3290.06 1076.85 3286.73 1080.99 3282.58L1090.09 3297.9C1084.47 3303.38 1077.44 3307.6 1069 3310.56C1060.57 3313.37 1051.83 3314.77 1042.81 3314.77ZM1117.91 3313.44L1141.22 3195.78H1161.65L1154.99 3229.97L1152.77 3221.53C1158.24 3211.62 1165.2 3204.66 1173.64 3200.67C1182.07 3196.67 1192.51 3194.67 1204.94 3194.67L1200.94 3215.32C1200.05 3215.17 1199.17 3215.1 1198.28 3215.1C1197.39 3215.1 1196.43 3215.1 1195.39 3215.1C1183.7 3215.1 1174.01 3218.28 1166.31 3224.64C1158.76 3231.01 1153.66 3241 1150.99 3254.61L1139.23 3313.44H1117.91ZM1192.76 3313.44L1195.65 3299.68L1288.67 3205.99L1292.89 3213.32H1214.74L1218.07 3195.78H1313.31L1310.42 3209.77L1217.41 3303.23L1212.97 3295.9H1294.88L1291.33 3313.44H1192.76ZM1365.85 3314.77C1355.93 3314.77 1347.05 3312.78 1339.21 3308.78C1331.37 3304.64 1325.15 3298.79 1320.56 3291.24C1316.12 3283.69 1313.9 3274.59 1313.9 3263.94C1313.9 3253.87 1315.53 3244.62 1318.79 3236.19C1322.19 3227.75 1326.85 3220.42 1332.77 3214.21C1338.84 3207.99 1345.94 3203.18 1354.08 3199.78C1362.22 3196.37 1371.03 3194.67 1380.5 3194.67C1390.71 3194.67 1399.37 3196.45 1406.48 3200C1413.58 3203.55 1419.06 3208.81 1422.9 3215.76C1426.75 3222.57 1428.68 3230.93 1428.68 3240.85C1428.68 3255.35 1426.16 3268.23 1421.13 3279.48C1416.1 3290.58 1408.84 3299.23 1399.37 3305.45C1390.05 3311.67 1378.87 3314.77 1365.85 3314.77ZM1370.51 3296.13C1379.39 3296.13 1387.31 3293.98 1394.27 3289.69C1401.22 3285.4 1406.62 3279.55 1410.47 3272.15C1414.47 3264.6 1416.47 3256.02 1416.47 3246.4C1416.47 3236.04 1413.43 3227.97 1407.36 3222.2C1401.3 3216.28 1392.64 3213.32 1381.39 3213.32C1372.66 3213.32 1364.81 3215.47 1357.86 3219.76C1350.9 3223.9 1345.43 3229.75 1341.43 3237.3C1337.43 3244.7 1335.44 3253.28 1335.44 3263.05C1335.44 3273.26 1338.47 3281.33 1344.54 3287.25C1350.61 3293.17 1359.26 3296.13 1370.51 3296.13ZM1404.48 3313.44L1410.69 3283.03L1417.8 3255.72L1420.68 3227.75L1426.9 3195.78H1448.21L1424.9 3313.44H1404.48ZM1519.07 3313.44L1550.15 3158.04H1572.35L1545.05 3294.13H1629.41L1625.63 3313.44H1519.07ZM1698.21 3314.77C1686.67 3314.77 1676.68 3312.7 1668.24 3308.56C1659.8 3304.27 1653.29 3298.35 1648.7 3290.8C1644.12 3283.1 1641.82 3274.07 1641.82 3263.71C1641.82 3250.39 1644.71 3238.55 1650.48 3228.19C1656.25 3217.83 1664.1 3209.69 1674.01 3203.77C1684.08 3197.71 1695.47 3194.67 1708.2 3194.67C1718.86 3194.67 1728.11 3196.74 1735.95 3200.89C1743.79 3204.88 1749.86 3210.66 1754.15 3218.2C1758.59 3225.75 1760.81 3234.85 1760.81 3245.51C1760.81 3248.17 1760.67 3250.91 1760.37 3253.72C1760.07 3256.39 1759.7 3258.9 1759.26 3261.27H1657.36L1660.03 3245.73H1749.05L1740.39 3251.06C1741.72 3242.77 1741.13 3235.82 1738.61 3230.19C1736.1 3224.42 1732.1 3220.05 1726.63 3217.09C1721.3 3213.99 1714.86 3212.43 1707.31 3212.43C1698.43 3212.43 1690.59 3214.58 1683.78 3218.87C1677.12 3223.01 1671.94 3228.86 1668.24 3236.41C1664.54 3243.81 1662.69 3252.54 1662.69 3262.6C1662.69 3273.26 1665.72 3281.55 1671.79 3287.47C1678.01 3293.24 1687.41 3296.13 1699.99 3296.13C1707.39 3296.13 1714.27 3294.94 1720.63 3292.57C1727 3290.06 1732.25 3286.73 1736.39 3282.58L1745.5 3297.9C1739.87 3303.38 1732.84 3307.6 1724.41 3310.56C1715.97 3313.37 1707.24 3314.77 1698.21 3314.77ZM1818.61 3357.84C1807.51 3357.84 1797.37 3356.36 1788.19 3353.4C1779.02 3350.59 1771.25 3346.52 1764.88 3341.19L1776.65 3324.76C1781.24 3329.06 1787.3 3332.46 1794.85 3334.98C1802.55 3337.64 1810.98 3338.97 1820.16 3338.97C1834.07 3338.97 1844.73 3335.79 1852.13 3329.43C1859.53 3323.21 1864.49 3313.66 1867 3300.79L1872.55 3273.48L1879.21 3251.5L1882.54 3227.97L1888.98 3195.78H1909.18L1888.98 3297.46C1884.69 3318.77 1876.77 3334.16 1865.23 3343.63C1853.68 3353.11 1838.14 3357.84 1818.61 3357.84ZM1826.15 3308.56C1815.94 3308.56 1806.84 3306.63 1798.85 3302.79C1791 3298.94 1784.86 3293.46 1780.42 3286.36C1775.98 3279.11 1773.76 3270.52 1773.76 3260.61C1773.76 3251.13 1775.39 3242.48 1778.65 3234.63C1782.05 3226.64 1786.71 3219.68 1792.63 3213.76C1798.55 3207.7 1805.58 3203.03 1813.72 3199.78C1822.01 3196.37 1831.04 3194.67 1840.81 3194.67C1849.69 3194.67 1857.75 3196.23 1865 3199.33C1872.4 3202.44 1878.25 3207.25 1882.54 3213.76C1886.98 3220.13 1889.2 3228.42 1889.2 3238.63C1889.35 3251.65 1886.91 3263.49 1881.88 3274.15C1876.84 3284.66 1869.59 3293.02 1860.12 3299.23C1850.8 3305.45 1839.47 3308.56 1826.15 3308.56ZM1830.37 3289.91C1839.4 3289.91 1847.32 3287.91 1854.13 3283.92C1861.08 3279.92 1866.56 3274.44 1870.55 3267.49C1874.55 3260.53 1876.55 3252.61 1876.55 3243.73C1876.55 3234.26 1873.44 3226.86 1867.22 3221.53C1861.16 3216.06 1852.57 3213.32 1841.47 3213.32C1832.44 3213.32 1824.45 3215.32 1817.5 3219.31C1810.69 3223.16 1805.29 3228.56 1801.29 3235.52C1797.29 3242.48 1795.3 3250.39 1795.3 3259.27C1795.3 3268.89 1798.4 3276.44 1804.62 3281.92C1810.84 3287.25 1819.42 3289.91 1830.37 3289.91ZM1973.88 3314.77C1963.96 3314.77 1955.08 3312.78 1947.24 3308.78C1939.4 3304.64 1933.18 3298.79 1928.59 3291.24C1924.15 3283.69 1921.93 3274.59 1921.93 3263.94C1921.93 3253.87 1923.56 3244.62 1926.82 3236.19C1930.22 3227.75 1934.88 3220.42 1940.8 3214.21C1946.87 3207.99 1953.97 3203.18 1962.11 3199.78C1970.25 3196.37 1979.06 3194.67 1988.53 3194.67C1998.74 3194.67 2007.4 3196.45 2014.51 3200C2021.61 3203.55 2027.09 3208.81 2030.93 3215.76C2034.78 3222.57 2036.71 3230.93 2036.71 3240.85C2036.71 3255.35 2034.19 3268.23 2029.16 3279.48C2024.13 3290.58 2016.87 3299.23 2007.4 3305.45C1998.08 3311.67 1986.9 3314.77 1973.88 3314.77ZM1978.54 3296.13C1987.42 3296.13 1995.34 3293.98 2002.3 3289.69C2009.25 3285.4 2014.65 3279.55 2018.5 3272.15C2022.5 3264.6 2024.5 3256.02 2024.5 3246.4C2024.5 3236.04 2021.46 3227.97 2015.39 3222.2C2009.33 3216.28 2000.67 3213.32 1989.42 3213.32C1980.69 3213.32 1972.84 3215.47 1965.89 3219.76C1958.93 3223.9 1953.46 3229.75 1949.46 3237.3C1945.46 3244.7 1943.47 3253.28 1943.47 3263.05C1943.47 3273.26 1946.5 3281.33 1952.57 3287.25C1958.64 3293.17 1967.29 3296.13 1978.54 3296.13ZM2012.51 3313.44L2018.72 3283.03L2025.83 3255.72L2028.71 3227.75L2034.93 3195.78H2056.24L2032.93 3313.44H2012.51ZM2069.04 3313.44L2101.89 3148.72H2123.21L2090.35 3313.44H2069.04ZM2233.51 3314.77C2223.59 3314.77 2214.71 3312.78 2206.87 3308.78C2199.02 3304.64 2192.81 3298.79 2188.22 3291.24C2183.78 3283.69 2181.56 3274.59 2181.56 3263.94C2181.56 3253.87 2183.19 3244.62 2186.44 3236.19C2189.85 3227.75 2194.51 3220.42 2200.43 3214.21C2206.5 3207.99 2213.6 3203.18 2221.74 3199.78C2229.88 3196.37 2238.69 3194.67 2248.16 3194.67C2258.37 3194.67 2267.03 3196.45 2274.13 3200C2281.24 3203.55 2286.71 3208.81 2290.56 3215.76C2294.41 3222.57 2296.33 3230.93 2296.33 3240.85C2296.33 3251.8 2294.93 3261.79 2292.11 3270.82C2289.3 3279.85 2285.08 3287.69 2279.46 3294.35C2273.98 3300.86 2267.4 3305.89 2259.7 3309.45C2252.01 3313 2243.27 3314.77 2233.51 3314.77ZM2238.17 3296.13C2247.05 3296.13 2254.97 3293.98 2261.92 3289.69C2268.88 3285.4 2274.28 3279.55 2278.13 3272.15C2282.12 3264.6 2284.12 3256.02 2284.12 3246.4C2284.12 3236.04 2281.09 3227.97 2275.02 3222.2C2268.95 3216.28 2260.29 3213.32 2249.05 3213.32C2240.31 3213.32 2232.47 3215.47 2225.51 3219.76C2218.56 3223.9 2213.08 3229.75 2209.09 3237.3C2205.09 3244.7 2203.09 3253.28 2203.09 3263.05C2203.09 3273.26 2206.13 3281.33 2212.19 3287.25C2218.26 3293.17 2226.92 3296.13 2238.17 3296.13ZM2272.13 3313.44L2278.35 3283.03L2285.23 3255.72L2288.34 3227.75L2304.1 3148.72H2325.41L2292.56 3313.44H2272.13ZM2384.83 3314.77C2373.29 3314.77 2363.3 3312.7 2354.86 3308.56C2346.42 3304.27 2339.91 3298.35 2335.32 3290.8C2330.74 3283.1 2328.44 3274.07 2328.44 3263.71C2328.44 3250.39 2331.33 3238.55 2337.1 3228.19C2342.87 3217.83 2350.72 3209.69 2360.63 3203.77C2370.7 3197.71 2382.09 3194.67 2394.82 3194.67C2405.48 3194.67 2414.73 3196.74 2422.57 3200.89C2430.41 3204.88 2436.48 3210.66 2440.77 3218.2C2445.21 3225.75 2447.43 3234.85 2447.43 3245.51C2447.43 3248.17 2447.29 3250.91 2446.99 3253.72C2446.69 3256.39 2446.32 3258.9 2445.88 3261.27H2343.98L2346.65 3245.73H2435.67L2427.01 3251.06C2428.34 3242.77 2427.75 3235.82 2425.23 3230.19C2422.72 3224.42 2418.72 3220.05 2413.25 3217.09C2407.92 3213.99 2401.48 3212.43 2393.93 3212.43C2385.05 3212.43 2377.21 3214.58 2370.4 3218.87C2363.74 3223.01 2358.56 3228.86 2354.86 3236.41C2351.16 3243.81 2349.31 3252.54 2349.31 3262.6C2349.31 3273.26 2352.34 3281.55 2358.41 3287.47C2364.63 3293.24 2374.03 3296.13 2386.61 3296.13C2394.01 3296.13 2400.89 3294.94 2407.25 3292.57C2413.62 3290.06 2418.87 3286.73 2423.01 3282.58L2432.12 3297.9C2426.49 3303.38 2419.46 3307.6 2411.03 3310.56C2402.59 3313.37 2393.86 3314.77 2384.83 3314.77ZM2515.12 3313.44L2547.97 3148.72H2569.29L2536.43 3313.44H2515.12ZM2627.74 3314.77C2616.49 3314.77 2606.72 3312.7 2598.43 3308.56C2590.29 3304.27 2583.93 3298.35 2579.34 3290.8C2574.75 3283.1 2572.46 3274.15 2572.46 3263.94C2572.46 3250.62 2575.42 3238.78 2581.34 3228.42C2587.26 3217.91 2595.4 3209.69 2605.76 3203.77C2616.27 3197.71 2628.18 3194.67 2641.5 3194.67C2652.6 3194.67 2662.3 3196.74 2670.58 3200.89C2678.87 3205.03 2685.24 3210.88 2689.68 3218.43C2694.26 3225.97 2696.56 3234.93 2696.56 3245.29C2696.56 3258.61 2693.6 3270.52 2687.68 3281.03C2681.76 3291.39 2673.62 3299.6 2663.26 3305.67C2653.05 3311.74 2641.21 3314.77 2627.74 3314.77ZM2629.07 3296.13C2637.95 3296.13 2645.87 3293.98 2652.82 3289.69C2659.78 3285.4 2665.18 3279.55 2669.03 3272.15C2673.03 3264.6 2675.02 3256.02 2675.02 3246.4C2675.02 3236.04 2671.99 3227.97 2665.92 3222.2C2659.85 3216.28 2651.2 3213.32 2639.95 3213.32C2631.22 3213.32 2623.37 3215.47 2616.42 3219.76C2609.46 3223.9 2603.98 3229.75 2599.99 3237.3C2595.99 3244.7 2593.99 3253.28 2593.99 3263.05C2593.99 3273.26 2597.03 3281.33 2603.1 3287.25C2609.16 3293.17 2617.82 3296.13 2629.07 3296.13ZM2746.23 3314.77C2736.32 3314.77 2726.92 3313.52 2718.04 3311C2709.31 3308.34 2702.57 3305.08 2697.84 3301.23L2707.38 3284.36C2711.97 3287.91 2717.89 3290.8 2725.14 3293.02C2732.54 3295.24 2740.24 3296.35 2748.23 3296.35C2758.44 3296.35 2766.14 3294.79 2771.32 3291.69C2776.5 3288.58 2779.09 3284.36 2779.09 3279.03C2779.09 3275.18 2777.54 3272.3 2774.43 3270.37C2771.32 3268.3 2767.25 3266.75 2762.22 3265.71C2757.33 3264.53 2752.08 3263.42 2746.46 3262.38C2740.83 3261.2 2735.58 3259.57 2730.69 3257.5C2725.81 3255.43 2721.74 3252.47 2718.48 3248.62C2715.38 3244.62 2713.82 3239.37 2713.82 3232.86C2713.82 3225.01 2716.04 3218.28 2720.48 3212.65C2724.92 3206.88 2731.14 3202.44 2739.13 3199.33C2747.12 3196.23 2756.45 3194.67 2767.1 3194.67C2774.8 3194.67 2782.35 3195.63 2789.75 3197.56C2797.29 3199.33 2803.44 3201.92 2808.17 3205.33L2799.74 3222.2C2794.85 3218.8 2789.38 3216.43 2783.31 3215.1C2777.24 3213.62 2771.17 3212.88 2765.1 3212.88C2755.19 3212.88 2747.71 3214.58 2742.68 3217.98C2737.65 3221.24 2735.13 3225.38 2735.13 3230.41C2735.13 3234.26 2736.69 3237.3 2739.8 3239.52C2742.9 3241.59 2746.9 3243.22 2751.78 3244.4C2756.82 3245.58 2762.07 3246.77 2767.55 3247.95C2773.17 3248.99 2778.42 3250.54 2783.31 3252.61C2788.34 3254.54 2792.41 3257.42 2795.52 3261.27C2798.63 3264.97 2800.18 3270.08 2800.18 3276.59C2800.18 3284.73 2797.89 3291.69 2793.3 3297.46C2788.86 3303.08 2782.57 3307.37 2774.43 3310.33C2766.29 3313.29 2756.89 3314.77 2746.23 3314.77ZM2904.86 3313.44L2931.94 3177.36H2878.89L2882.66 3158.04H3011.2L3007.2 3177.36H2954.14L2926.84 3313.44H2904.86ZM2994.15 3313.44L3017.46 3195.78H3037.89L3031.23 3229.97L3029.01 3221.53C3034.48 3211.62 3041.44 3204.66 3049.88 3200.67C3058.31 3196.67 3068.75 3194.67 3081.18 3194.67L3077.18 3215.32C3076.29 3215.17 3075.41 3215.1 3074.52 3215.1C3073.63 3215.1 3072.67 3215.1 3071.63 3215.1C3059.94 3215.1 3050.25 3218.28 3042.55 3224.64C3035 3231.01 3029.9 3241 3027.23 3254.61L3015.47 3313.44H2994.15ZM3129.89 3314.77C3119.98 3314.77 3111.1 3312.78 3103.25 3308.78C3095.41 3304.64 3089.19 3298.79 3084.6 3291.24C3080.16 3283.69 3077.94 3274.59 3077.94 3263.94C3077.94 3253.87 3079.57 3244.62 3082.83 3236.19C3086.23 3227.75 3090.89 3220.42 3096.81 3214.21C3102.88 3207.99 3109.99 3203.18 3118.13 3199.78C3126.27 3196.37 3135.07 3194.67 3144.54 3194.67C3154.76 3194.67 3163.41 3196.45 3170.52 3200C3177.62 3203.55 3183.1 3208.81 3186.95 3215.76C3190.79 3222.57 3192.72 3230.93 3192.72 3240.85C3192.72 3255.35 3190.2 3268.23 3185.17 3279.48C3180.14 3290.58 3172.89 3299.23 3163.41 3305.45C3154.09 3311.67 3142.92 3314.77 3129.89 3314.77ZM3134.55 3296.13C3143.43 3296.13 3151.35 3293.98 3158.31 3289.69C3165.26 3285.4 3170.67 3279.55 3174.51 3272.15C3178.51 3264.6 3180.51 3256.02 3180.51 3246.4C3180.51 3236.04 3177.47 3227.97 3171.41 3222.2C3165.34 3216.28 3156.68 3213.32 3145.43 3213.32C3136.7 3213.32 3128.86 3215.47 3121.9 3219.76C3114.94 3223.9 3109.47 3229.75 3105.47 3237.3C3101.48 3244.7 3099.48 3253.28 3099.48 3263.05C3099.48 3273.26 3102.51 3281.33 3108.58 3287.25C3114.65 3293.17 3123.31 3296.13 3134.55 3296.13ZM3168.52 3313.44L3174.74 3283.03L3181.84 3255.72L3184.73 3227.75L3190.94 3195.78H3212.25L3188.94 3313.44H3168.52ZM3225.05 3313.44L3257.91 3148.72H3279.22L3263.46 3226.64L3255.69 3253.5L3252.36 3278.81L3245.25 3313.44H3225.05ZM3292.76 3314.77C3282.7 3314.77 3274.04 3313 3266.79 3309.45C3259.68 3305.75 3254.21 3300.49 3250.36 3293.68C3246.51 3286.73 3244.59 3278.37 3244.59 3268.6C3244.59 3257.65 3245.99 3247.66 3248.8 3238.63C3251.62 3229.45 3255.76 3221.61 3261.24 3215.1C3266.86 3208.58 3273.52 3203.55 3281.22 3200C3288.91 3196.45 3297.64 3194.67 3307.41 3194.67C3317.48 3194.67 3326.36 3196.67 3334.05 3200.67C3341.9 3204.66 3348.04 3210.51 3352.48 3218.2C3357.07 3225.75 3359.36 3234.78 3359.36 3245.29C3359.36 3255.35 3357.66 3264.6 3354.25 3273.04C3351 3281.47 3346.34 3288.8 3340.27 3295.02C3334.35 3301.23 3327.32 3306.12 3319.18 3309.67C3311.04 3313.07 3302.23 3314.77 3292.76 3314.77ZM3291.87 3296.13C3300.75 3296.13 3308.6 3293.98 3315.4 3289.69C3322.36 3285.4 3327.84 3279.55 3331.83 3272.15C3335.83 3264.6 3337.83 3256.02 3337.83 3246.4C3337.83 3236.04 3334.79 3227.97 3328.72 3222.2C3322.66 3216.28 3314 3213.32 3302.75 3213.32C3294.02 3213.32 3286.1 3215.47 3279 3219.76C3272.04 3223.9 3266.56 3229.75 3262.57 3237.3C3258.72 3244.7 3256.8 3253.28 3256.8 3263.05C3256.8 3273.26 3259.83 3281.33 3265.9 3287.25C3271.97 3293.17 3280.62 3296.13 3291.87 3296.13ZM3423.66 3314.77C3413.74 3314.77 3404.86 3312.78 3397.02 3308.78C3389.18 3304.64 3382.96 3298.79 3378.37 3291.24C3373.93 3283.69 3371.71 3274.59 3371.71 3263.94C3371.71 3253.87 3373.34 3244.62 3376.6 3236.19C3380 3227.75 3384.66 3220.42 3390.58 3214.21C3396.65 3207.99 3403.75 3203.18 3411.89 3199.78C3420.03 3196.37 3428.84 3194.67 3438.31 3194.67C3448.52 3194.67 3457.18 3196.45 3464.29 3200C3471.39 3203.55 3476.87 3208.81 3480.71 3215.76C3484.56 3222.57 3486.49 3230.93 3486.49 3240.85C3486.49 3255.35 3483.97 3268.23 3478.94 3279.48C3473.91 3290.58 3466.65 3299.23 3457.18 3305.45C3447.86 3311.67 3436.68 3314.77 3423.66 3314.77ZM3428.32 3296.13C3437.2 3296.13 3445.12 3293.98 3452.08 3289.69C3459.03 3285.4 3464.43 3279.55 3468.28 3272.15C3472.28 3264.6 3474.28 3256.02 3474.28 3246.4C3474.28 3236.04 3471.24 3227.97 3465.17 3222.2C3459.11 3216.28 3450.45 3213.32 3439.2 3213.32C3430.47 3213.32 3422.62 3215.47 3415.67 3219.76C3408.71 3223.9 3403.24 3229.75 3399.24 3237.3C3395.24 3244.7 3393.25 3253.28 3393.25 3263.05C3393.25 3273.26 3396.28 3281.33 3402.35 3287.25C3408.42 3293.17 3417.07 3296.13 3428.32 3296.13ZM3462.29 3313.44L3468.5 3283.03L3475.61 3255.72L3478.49 3227.75L3484.71 3195.78H3506.02L3482.71 3313.44H3462.29ZM3496.84 3357.84C3491.51 3357.84 3486.7 3357.25 3482.41 3356.07C3477.97 3354.88 3474.12 3353.11 3470.87 3350.74L3480.19 3334.31C3484.63 3338.01 3490.25 3339.86 3497.06 3339.86C3502.98 3339.86 3507.64 3338.16 3511.05 3334.75C3514.45 3331.5 3516.89 3326.24 3518.37 3318.99L3543.02 3195.78H3564.33L3539.69 3318.99C3534.65 3344.89 3520.37 3357.84 3496.84 3357.84ZM3560.11 3173.14C3556.11 3173.14 3552.86 3171.88 3550.34 3169.36C3547.97 3166.85 3546.79 3163.81 3546.79 3160.26C3546.79 3156.12 3548.2 3152.64 3551.01 3149.83C3553.82 3146.87 3557.52 3145.39 3562.11 3145.39C3565.96 3145.39 3569.14 3146.65 3571.65 3149.16C3574.32 3151.53 3575.65 3154.42 3575.65 3157.82C3575.65 3162.41 3574.24 3166.11 3571.43 3168.92C3568.62 3171.73 3564.85 3173.14 3560.11 3173.14ZM3629.19 3314.77C3619.28 3314.77 3610.4 3312.78 3602.55 3308.78C3594.71 3304.64 3588.49 3298.79 3583.9 3291.24C3579.46 3283.69 3577.24 3274.59 3577.24 3263.94C3577.24 3253.87 3578.87 3244.62 3582.13 3236.19C3585.53 3227.75 3590.19 3220.42 3596.11 3214.21C3602.18 3207.99 3609.29 3203.18 3617.43 3199.78C3625.57 3196.37 3634.37 3194.67 3643.84 3194.67C3654.06 3194.67 3662.71 3196.45 3669.82 3200C3676.92 3203.55 3682.4 3208.81 3686.25 3215.76C3690.09 3222.57 3692.02 3230.93 3692.02 3240.85C3692.02 3255.35 3689.5 3268.23 3684.47 3279.48C3679.44 3290.58 3672.19 3299.23 3662.71 3305.45C3653.39 3311.67 3642.22 3314.77 3629.19 3314.77ZM3633.85 3296.13C3642.73 3296.13 3650.65 3293.98 3657.61 3289.69C3664.56 3285.4 3669.97 3279.55 3673.81 3272.15C3677.81 3264.6 3679.81 3256.02 3679.81 3246.4C3679.81 3236.04 3676.77 3227.97 3670.71 3222.2C3664.64 3216.28 3655.98 3213.32 3644.73 3213.32C3636 3213.32 3628.16 3215.47 3621.2 3219.76C3614.24 3223.9 3608.77 3229.75 3604.77 3237.3C3600.78 3244.7 3598.78 3253.28 3598.78 3263.05C3598.78 3273.26 3601.81 3281.33 3607.88 3287.25C3613.95 3293.17 3622.61 3296.13 3633.85 3296.13ZM3667.82 3313.44L3674.04 3283.03L3681.14 3255.72L3684.03 3227.75L3690.24 3195.78H3711.55L3688.24 3313.44H3667.82ZM3776.08 3314.77C3766.16 3314.77 3757.28 3312.78 3749.44 3308.78C3741.59 3304.64 3735.38 3298.79 3730.79 3291.24C3726.35 3283.69 3724.13 3274.59 3724.13 3263.94C3724.13 3253.87 3725.76 3244.62 3729.01 3236.19C3732.42 3227.75 3737.08 3220.42 3743 3214.21C3749.07 3207.99 3756.17 3203.18 3764.31 3199.78C3772.45 3196.37 3781.26 3194.67 3790.73 3194.67C3800.94 3194.67 3809.6 3196.45 3816.7 3200C3823.81 3203.55 3829.28 3208.81 3833.13 3215.76C3836.98 3222.57 3838.9 3230.93 3838.9 3240.85C3838.9 3251.8 3837.5 3261.79 3834.69 3270.82C3831.87 3279.85 3827.66 3287.69 3822.03 3294.35C3816.56 3300.86 3809.97 3305.89 3802.27 3309.45C3794.58 3313 3785.85 3314.77 3776.08 3314.77ZM3780.74 3296.13C3789.62 3296.13 3797.54 3293.98 3804.49 3289.69C3811.45 3285.4 3816.85 3279.55 3820.7 3272.15C3824.7 3264.6 3826.69 3256.02 3826.69 3246.4C3826.69 3236.04 3823.66 3227.97 3817.59 3222.2C3811.52 3216.28 3802.87 3213.32 3791.62 3213.32C3782.89 3213.32 3775.04 3215.47 3768.09 3219.76C3761.13 3223.9 3755.65 3229.75 3751.66 3237.3C3747.66 3244.7 3745.66 3253.28 3745.66 3263.05C3745.66 3273.26 3748.7 3281.33 3754.77 3287.25C3760.83 3293.17 3769.49 3296.13 3780.74 3296.13ZM3814.71 3313.44L3820.92 3283.03L3827.8 3255.72L3830.91 3227.75L3846.67 3148.72H3867.99L3835.13 3313.44H3814.71ZM3926.29 3314.77C3915.04 3314.77 3905.28 3312.7 3896.99 3308.56C3888.85 3304.27 3882.48 3298.35 3877.9 3290.8C3873.31 3283.1 3871.01 3274.15 3871.01 3263.94C3871.01 3250.62 3873.97 3238.78 3879.89 3228.42C3885.81 3217.91 3893.95 3209.69 3904.31 3203.77C3914.82 3197.71 3926.74 3194.67 3940.06 3194.67C3951.16 3194.67 3960.85 3196.74 3969.14 3200.89C3977.43 3205.03 3983.79 3210.88 3988.23 3218.43C3992.82 3225.97 3995.11 3234.93 3995.11 3245.29C3995.11 3258.61 3992.15 3270.52 3986.23 3281.03C3980.31 3291.39 3972.17 3299.6 3961.81 3305.67C3951.6 3311.74 3939.76 3314.77 3926.29 3314.77ZM3927.62 3296.13C3936.5 3296.13 3944.42 3293.98 3951.38 3289.69C3958.33 3285.4 3963.74 3279.55 3967.58 3272.15C3971.58 3264.6 3973.58 3256.02 3973.58 3246.4C3973.58 3236.04 3970.54 3227.97 3964.48 3222.2C3958.41 3216.28 3949.75 3213.32 3938.5 3213.32C3929.77 3213.32 3921.93 3215.47 3914.97 3219.76C3908.01 3223.9 3902.54 3229.75 3898.54 3237.3C3894.55 3244.7 3892.55 3253.28 3892.55 3263.05C3892.55 3273.26 3895.58 3281.33 3901.65 3287.25C3907.72 3293.17 3916.38 3296.13 3927.62 3296.13ZM4007.71 3313.44L4031.02 3195.78H4051.45L4044.79 3229.97L4042.57 3221.53C4048.04 3211.62 4055 3204.66 4063.44 3200.67C4071.87 3196.67 4082.31 3194.67 4094.74 3194.67L4090.74 3215.32C4089.85 3215.17 4088.97 3215.1 4088.08 3215.1C4087.19 3215.1 4086.23 3215.1 4085.19 3215.1C4073.5 3215.1 4063.81 3218.28 4056.11 3224.64C4048.56 3231.01 4043.46 3241 4040.79 3254.61L4029.03 3313.44H4007.71ZM4147.89 3314.77C4136.35 3314.77 4126.36 3312.7 4117.92 3308.56C4109.49 3304.27 4102.97 3298.35 4098.39 3290.8C4093.8 3283.1 4091.5 3274.07 4091.5 3263.71C4091.5 3250.39 4094.39 3238.55 4100.16 3228.19C4105.93 3217.83 4113.78 3209.69 4123.69 3203.77C4133.76 3197.71 4145.15 3194.67 4157.88 3194.67C4168.54 3194.67 4177.79 3196.74 4185.63 3200.89C4193.48 3204.88 4199.54 3210.66 4203.84 3218.2C4208.28 3225.75 4210.5 3234.85 4210.5 3245.51C4210.5 3248.17 4210.35 3250.91 4210.05 3253.72C4209.76 3256.39 4209.39 3258.9 4208.94 3261.27H4107.04L4109.71 3245.73H4198.73L4190.07 3251.06C4191.4 3242.77 4190.81 3235.82 4188.3 3230.19C4185.78 3224.42 4181.78 3220.05 4176.31 3217.09C4170.98 3213.99 4164.54 3212.43 4156.99 3212.43C4148.11 3212.43 4140.27 3214.58 4133.46 3218.87C4126.8 3223.01 4121.62 3228.86 4117.92 3236.41C4114.22 3243.81 4112.37 3252.54 4112.37 3262.6C4112.37 3273.26 4115.41 3281.55 4121.47 3287.47C4127.69 3293.24 4137.09 3296.13 4149.67 3296.13C4157.07 3296.13 4163.95 3294.94 4170.31 3292.57C4176.68 3290.06 4181.93 3286.73 4186.08 3282.58L4195.18 3297.9C4189.55 3303.38 4182.52 3307.6 4174.09 3310.56C4165.65 3313.37 4156.92 3314.77 4147.89 3314.77ZM4260.08 3314.77C4250.16 3314.77 4240.76 3313.52 4231.88 3311C4223.15 3308.34 4216.42 3305.08 4211.68 3301.23L4221.23 3284.36C4225.81 3287.91 4231.73 3290.8 4238.99 3293.02C4246.39 3295.24 4254.08 3296.35 4262.07 3296.35C4272.29 3296.35 4279.98 3294.79 4285.16 3291.69C4290.34 3288.58 4292.93 3284.36 4292.93 3279.03C4292.93 3275.18 4291.38 3272.3 4288.27 3270.37C4285.16 3268.3 4281.09 3266.75 4276.06 3265.71C4271.18 3264.53 4265.92 3263.42 4260.3 3262.38C4254.67 3261.2 4249.42 3259.57 4244.54 3257.5C4239.65 3255.43 4235.58 3252.47 4232.33 3248.62C4229.22 3244.62 4227.66 3239.37 4227.66 3232.86C4227.66 3225.01 4229.88 3218.28 4234.32 3212.65C4238.76 3206.88 4244.98 3202.44 4252.97 3199.33C4260.96 3196.23 4270.29 3194.67 4280.94 3194.67C4288.64 3194.67 4296.19 3195.63 4303.59 3197.56C4311.14 3199.33 4317.28 3201.92 4322.01 3205.33L4313.58 3222.2C4308.69 3218.8 4303.22 3216.43 4297.15 3215.1C4291.08 3213.62 4285.01 3212.88 4278.95 3212.88C4269.03 3212.88 4261.56 3214.58 4256.52 3217.98C4251.49 3221.24 4248.98 3225.38 4248.98 3230.41C4248.98 3234.26 4250.53 3237.3 4253.64 3239.52C4256.75 3241.59 4260.74 3243.22 4265.63 3244.4C4270.66 3245.58 4275.91 3246.77 4281.39 3247.95C4287.01 3248.99 4292.27 3250.54 4297.15 3252.61C4302.18 3254.54 4306.25 3257.42 4309.36 3261.27C4312.47 3264.97 4314.02 3270.08 4314.02 3276.59C4314.02 3284.73 4311.73 3291.69 4307.14 3297.46C4302.7 3303.08 4296.41 3307.37 4288.27 3310.33C4280.13 3313.29 4270.73 3314.77 4260.08 3314.77Z" fill="white"/>
</svg>
