<svg width="5524" height="3820" viewBox="0 0 5524 3820" fill="none" xmlns="http://www.w3.org/2000/svg">
<rect width="5524" height="3819.38" fill="#191A2F"/>
<path d="M2374.99 2345.52C2378.99 2345.73 2381.96 2345.15 2382.55 2340.02C2384.28 2325.1 2393.83 2315.54 2405.91 2308.22C2422.3 2298.29 2440.56 2295.1 2459.38 2293.95C2529.51 2289.65 2590.1 2263.31 2640.5 2214.34C2660.04 2195.35 2675.49 2173.06 2685.43 2147.66C2692.21 2130.33 2698.09 2112.7 2701.54 2094.05C2705.88 2070.6 2706.84 2047.22 2706.84 2023.62C2706.84 1657.11 2706.82 1290.61 2707 924.1C2707 916.17 2705.57 910.45 2698.73 905.54C2690.87 899.9 2684.61 892.19 2680.15 883.56C2676.68 876.86 2671.95 874.89 2664.87 875.68C2656.94 876.56 2648.93 876.78 2640.96 877.28C2639.55 875.65 2638.23 875.89 2636.98 877.49L2604.95 881.2C2603.46 879.57 2602.17 880 2600.98 881.57C2554.9 888.67 2509.69 899.46 2465.17 913.27C2430.51 924.02 2396.43 936.41 2362.38 948.9C2302.74 970.78 2243.67 994.35 2182.07 1010.49C2139.08 1021.75 2095.49 1029.01 2050.94 1029.15C2030.27 1029.22 2009.72 1027.44 1989.28 1024.08C1980.31 1022.6 1971.23 1021.7 1961.42 1019.17C1961.77 1026.05 1963.44 1032.1 1966.05 1037.3C1972.14 1049.44 1975.01 1062.68 1980.07 1075.17C1985.95 1089.68 1990.69 1104.69 1996.17 1119.4C2000.87 1132.01 2004.1 1145.21 2009.33 1157.58C2014.69 1170.27 2018.3 1183.53 2023.6 1196.23C2028.44 1207.81 2032.28 1219.81 2036.54 1231.63C2041.74 1246.07 2046.97 1260.51 2052.09 1274.98C2056.49 1287.44 2060.65 1299.99 2065.1 1312.44C2069.83 1325.65 2074.82 1338.77 2079.63 1351.95C2084.05 1364.06 2088.39 1376.21 2092.76 1388.34C2097.85 1402.47 2103.29 1416.48 2107.9 1430.76C2111.76 1442.69 2116.49 1454.27 2120.69 1466.06C2125.73 1480.2 2130.81 1494.32 2135.89 1508.45C2140.12 1520.22 2144.38 1531.99 2148.61 1543.77C2153.03 1556.08 2157.74 1568.31 2161.73 1580.76C2166.56 1595.82 2172.96 1610.31 2177.27 1625.57C2180.02 1635.33 2184.02 1644.81 2187.73 1654.18C2196.07 1675.25 2202.81 1696.86 2210.91 1718C2215.62 1730.29 2219.58 1742.97 2224.17 1755.28C2228.96 1768.12 2232.86 1781.3 2238.26 1793.97C2241.84 1802.37 2244.37 1811.28 2247.56 1819.9C2249.26 1824.49 2251.77 1825.77 2256.37 1825.73C2275.69 1825.53 2295.02 1825.65 2315.04 1825.65C2313.91 1829.71 2310.43 1830.54 2307.95 1832.16C2255.71 1866.33 2199.43 1891.91 2140.29 1911.58C2101.22 1924.58 2061.51 1934.92 2020.83 1941.27C1967.45 1949.61 1913.81 1953.03 1859.74 1950.35C1826.07 1948.68 1792.59 1945.16 1759.57 1939.11C1723.67 1932.53 1688.42 1922.72 1653.88 1910.58C1596.26 1890.33 1542.86 1861.86 1492 1828.36C1491.47 1828.01 1491.04 1827.5 1490.19 1826.73C1492.55 1824.57 1495.28 1825.46 1497.66 1825.44C1514.99 1825.35 1532.32 1825.24 1549.65 1825.48C1554.39 1825.55 1557.11 1824.12 1558.25 1819.41C1561.98 1803.99 1568.62 1789.53 1573.82 1774.62C1578.32 1761.71 1582.64 1748.63 1587.95 1735.93C1593.02 1723.8 1596.64 1711.07 1601.08 1698.67C1605.81 1685.45 1610.76 1672.31 1615.57 1659.12C1619.98 1647 1624.34 1634.86 1628.7 1622.73C1633.79 1608.58 1638.87 1594.43 1643.95 1580.28C1648.2 1568.45 1652.43 1556.62 1656.68 1544.79C1661.76 1530.63 1666.84 1516.48 1671.91 1502.32C1676.24 1490.24 1680.53 1478.15 1684.86 1466.07C1689.83 1452.22 1694.87 1438.39 1699.78 1424.52C1704.95 1409.92 1709.43 1395.05 1715.27 1380.74C1719.86 1369.49 1723.35 1357.87 1727.5 1346.5C1732.91 1331.66 1738.74 1316.95 1743.28 1301.77C1746.54 1290.87 1751.28 1280.43 1755.21 1269.72C1760.45 1255.48 1766.19 1241.38 1770.49 1226.85C1773.85 1215.49 1778.8 1204.79 1782.36 1193.51C1787.49 1177.23 1793.91 1161.33 1799.41 1145.12C1802.97 1134.62 1807.46 1124.38 1811.16 1113.87C1816.42 1098.93 1821.68 1084 1827.03 1069.09C1831.77 1055.88 1836.62 1042.71 1841.42 1029.51C1845.7 1017.74 1849.74 1005.89 1854.35 994.25C1856.48 988.86 1854.57 986.63 1849.87 984.39C1831.12 975.48 1813.84 964.24 1798.19 950.56C1784.51 938.6 1772.72 925.25 1765.52 908.21C1762.06 900.02 1759.28 891.82 1759.12 882.86C1758.92 871.31 1757.95 859.83 1760.95 848.32C1764.62 834.19 1771.3 821.8 1781.3 811.49C1807.6 784.39 1839.56 769.93 1877.67 771.44C1909.96 772.72 1936.58 785.35 1954.88 813.09C1967.64 832.44 1967.71 859.08 1954.66 878.21C1947.83 888.22 1938.66 895.01 1926.65 897.69C1923.47 898.4 1920.37 899.44 1916.86 900.44C1920.25 909.16 1923.62 917.34 1926.56 925.67C1927.46 928.21 1928.67 929.03 1931.2 929.81C1960.03 938.67 1988.96 946.88 2019.18 949.67C2041.82 951.76 2064.42 951.86 2087.04 949.8C2088.49 951.43 2089.79 951.1 2091.02 949.53C2136.38 945.32 2179.68 932.61 2222.13 916.9C2286.56 893.07 2350.64 868.31 2415.08 844.51C2465.01 826.07 2515.93 810.71 2568.18 800.27C2593.26 795.26 2618.61 791.68 2644.14 789.59C2651.77 788.97 2659.4 788.31 2667.03 787.67C2668.41 789.26 2669.73 789.14 2671.02 787.55C2674.08 787.51 2676.87 787.28 2678.67 784.07C2684.79 773.19 2692.81 763.87 2702.77 756.35C2706.63 753.43 2706.4 749.48 2706.43 745.54C2706.54 730.54 2706.52 715.54 2706.57 700.55C2706.6 691.22 2706.89 681.88 2706.65 672.56C2706.54 668.3 2708.02 665.85 2711.8 663.99C2719 660.44 2725.4 655.7 2731.3 650.19C2737.13 644.75 2740.04 637.73 2741.96 630.45C2744.25 621.73 2739.38 614.38 2735.2 607.36C2732.86 603.44 2729.41 599.99 2725.89 597C2697.5 572.95 2699.93 533.8 2718.14 510.88C2733.65 491.35 2747.23 470.29 2761.6 450C2765.35 450.94 2766.32 454.07 2767.99 456.4C2781.74 475.65 2795.39 494.97 2809.07 514.27C2827.29 539.98 2824.39 572.29 2801.82 594.33C2797.29 598.75 2792.59 602.99 2789.02 608.3C2779.9 621.91 2780.7 635.42 2791.49 647.64C2797.07 653.96 2803.57 659.38 2811.18 662.76C2817.53 665.58 2818.88 669.63 2818.81 676.02C2818.53 699.01 2818.95 722.01 2818.77 745.01C2818.72 750.79 2820.15 754.93 2824.94 758.62C2833.17 764.96 2839.92 772.89 2845.06 781.96C2847.28 785.88 2849.98 787.29 2854.52 787.62C2885.37 789.88 2916 793.32 2946.55 798.83C2979.07 804.69 3010.89 812.81 3042.48 822.09C3060.4 827.35 3078.02 833.68 3095.67 839.82C3120.11 848.32 3144.21 857.75 3168.41 866.88C3188.55 874.48 3208.69 882.16 3228.85 889.74C3247.56 896.77 3266.18 904.25 3284.91 911.14C3331.43 928.25 3378.62 943.41 3428.28 948.89C3478.93 954.48 3528.66 950.87 3577.15 934.37C3584 932.04 3592.72 932.24 3597.17 926.69C3601.19 921.69 3602.07 914.09 3604.8 907.78C3608.07 900.23 3607.83 899.8 3599.73 898.02C3580.17 893.71 3568.48 880.91 3562.97 862.63C3558.59 848.1 3559.06 833.08 3566.65 819.46C3581.1 793.52 3602.75 778.06 3632.62 773.3C3677.16 766.19 3714.31 780.51 3744.2 812.4C3769.65 839.55 3772.08 872.43 3759.89 906.71C3755.59 918.8 3748.4 929.17 3739.52 938.44C3721.32 957.43 3700.12 972.2 3676.63 983.85C3668.9 987.69 3668.49 987.88 3671.23 996.43C3674.72 1007.3 3679.07 1017.89 3682.93 1028.65C3688.38 1043.86 3693.66 1059.13 3699.12 1074.33C3703.86 1087.52 3708.81 1100.65 3713.59 1113.83C3718.09 1126.21 3722.48 1138.63 3726.94 1151.03C3731.91 1164.84 3736.9 1178.65 3741.88 1192.46C3746.13 1204.23 3750.37 1216.01 3754.61 1227.78C3759.8 1242.22 3765.05 1256.65 3770.15 1271.12C3774.55 1283.58 3778.67 1296.14 3783.12 1308.59C3787.85 1321.81 3792.76 1334.97 3797.7 1348.11C3802.21 1360.12 3805.8 1372.44 3810.6 1384.37C3816.21 1398.3 3820.88 1412.62 3825.96 1426.77C3830.86 1440.41 3835.77 1454.05 3840.66 1467.69C3845.08 1480.01 3849.87 1492.21 3853.79 1504.69C3858.53 1519.78 3864.98 1534.24 3869.32 1549.48C3871.72 1557.91 3875.4 1566.03 3878.64 1574.2C3883.6 1586.69 3887.21 1599.62 3892.29 1612.07C3897.99 1626.06 3901.46 1640.98 3907.39 1654.86C3912.17 1666.06 3915.1 1677.83 3919.83 1689.03C3925.71 1702.96 3929.99 1717.56 3935.08 1731.83C3939.14 1743.23 3943.45 1754.55 3947.5 1765.96C3952.79 1780.86 3958.06 1795.77 3963.01 1810.78C3963.81 1813.21 3964.75 1815.69 3965.54 1818.12C3967.12 1822.99 3970.28 1825.82 3976.59 1825.62C3995.56 1825.03 4014.56 1825.41 4033.47 1825.41C4034.75 1828.6 4032.08 1828.9 4030.66 1829.85C3955.87 1879.86 3874.9 1915.43 3786.8 1934.44C3748.69 1942.66 3710.19 1947.55 3671.28 1950.02C3630.56 1952.61 3589.99 1951.3 3549.5 1947.23C3506.04 1942.86 3463.11 1935.16 3421.14 1922.87C3400.17 1916.73 3378.96 1911.03 3358.6 1903.22C3308.1 1883.84 3259.5 1860.44 3214.31 1830.4C3212.96 1829.5 3211.7 1828.47 3210.19 1827.34C3212.49 1824.58 3215.31 1825.76 3217.67 1825.75C3234.67 1825.63 3251.67 1825.42 3268.66 1825.85C3273.33 1825.97 3275.5 1823.96 3276.76 1820.42C3282.41 1804.62 3287.95 1788.76 3293.63 1773C3298.28 1760.11 3302.54 1747.01 3307.85 1734.31C3312.67 1722.78 3316.44 1710.8 3320.67 1699.02C3325.74 1684.88 3330.8 1670.73 3335.89 1656.59C3340.12 1644.81 3344.38 1633.04 3348.62 1621.26C3353.82 1606.81 3359.6 1592.54 3364.04 1577.86C3367.95 1564.91 3373.95 1552.77 3377.32 1539.61C3379.84 1529.8 3384.05 1520.37 3387.72 1510.97C3395.96 1489.85 3402.82 1468.25 3410.96 1447.11C3419.23 1425.62 3426.1 1403.59 3433.84 1381.88C3438.34 1369.24 3443.54 1356.86 3448.07 1344.23C3455.61 1323.24 3462.78 1302.12 3470.28 1281.11C3475.24 1267.22 3480.65 1253.48 3485.59 1239.58C3493.18 1218.25 3499.88 1196.57 3508.2 1175.53C3516.18 1155.37 3523.02 1134.82 3530.34 1114.45C3535.45 1100.23 3540.49 1085.9 3545.61 1071.69C3550.16 1059.06 3553.52 1045.9 3559.5 1033.76C3560.82 1031.09 3561.81 1028.21 3562.58 1025.33C3563.91 1020.4 3562.72 1019.19 3557.86 1020.28C3530.97 1026.35 3503.67 1028.98 3476.18 1029.2C3449.48 1029.41 3423.05 1026.3 3396.65 1022.24C3368.69 1017.93 3341.42 1010.62 3314.39 1002.9C3294.27 997.15 3274.07 991.1 3254.55 983.09C3235.12 975.13 3215.27 968.15 3195.42 961.28C3178.68 955.48 3162.02 949.39 3145.41 943.27C3118.41 933.32 3091.49 923.15 3063.97 914.72C3037.62 906.65 3011.2 898.87 2984.22 893.05C2952.75 886.26 2921.1 880.65 2889.03 877.64C2887.79 876.05 2886.47 875.76 2885.04 877.41C2875.06 876.86 2865.08 876.38 2855.12 875.71C2851.4 875.46 2848.96 876.56 2847.09 880.02C2840.83 891.6 2832.33 901.38 2821.94 909.44C2819.27 911.51 2818.25 913.93 2818.41 917.17C2818.54 919.83 2818.43 922.5 2818.43 925.17C2818.43 1293.1 2818.46 1661.03 2818.35 2028.96C2818.35 2052.34 2819.16 2075.65 2823.52 2098.58C2826.18 2112.53 2830.55 2126.21 2835.8 2139.51C2857.46 2194.31 2896.28 2233.19 2947.43 2261C2966.34 2271.28 2986.24 2279.26 3006.69 2284.97C3025.76 2290.3 3045.44 2294.18 3065.67 2294.25C3083.12 2294.31 3100.12 2297.84 3115.69 2306.32C3129.72 2313.97 3140.64 2324.29 3142.83 2341.11C3143.5 2346.25 3146.9 2345.46 3150.09 2345.5C3172.75 2345.77 3195.41 2346.24 3218.07 2346.19C3275.72 2346.07 3333.38 2345.87 3391.03 2345.34C3408.05 2345.18 3424.84 2346.83 3441.43 2350.02C3455.15 2352.66 3468.18 2357.72 3479.62 2366.04C3493.89 2376.42 3501.44 2390.71 3503.09 2408.13C3503.82 2415.84 3503.59 2416 3495.93 2416.1C3467.27 2416.47 3438.62 2416.97 3409.96 2416.99C3194.67 2417.19 2979.38 2417.41 2764.09 2417.38C2539.8 2417.35 2315.51 2417.07 2091.22 2416.84C2070.23 2416.82 2049.23 2416.43 2028.24 2416.09C2021.24 2415.98 2020.84 2415.39 2021.6 2408.58C2023.9 2387.98 2033.79 2372.26 2051.81 2361.8C2065.87 2353.64 2081.3 2349.91 2097.19 2347.55C2110.09 2345.63 2123.07 2345.41 2136.07 2345.43C2212.39 2345.56 2288.7 2346.89 2365.02 2345.76C2368.38 2347.92 2371.71 2347.84 2375 2345.61L2374.99 2345.52ZM3961.32 1825.35C3861.25 1546.5 3761.71 1269.15 3661.97 991.22C3653.52 994.27 3645.49 997.23 3637.41 1000.06C3625.88 1004.1 3625.86 1004.06 3625.85 1016.68C3625.71 1281.94 3625.58 1547.21 3625.45 1812.47C3625.45 1814.47 3625.61 1816.49 3625.42 1818.47C3624.93 1823.44 3626.62 1826.1 3632.05 1825.47C3634.02 1825.24 3636.04 1825.44 3638.04 1825.44C3742.01 1825.41 3845.99 1825.38 3949.96 1825.36C3953.27 1825.36 3956.58 1825.36 3961.32 1825.36V1825.35ZM1899.23 1414.8H1899.02C1899.02 1302.48 1899.02 1190.15 1899.02 1077.83C1899.02 1055.5 1898.93 1033.17 1899.06 1010.84C1899.09 1006.4 1898.4 1003.75 1893.19 1002.56C1887.24 1001.2 1881.54 998.57 1875.87 996.03C1871.73 994.18 1867.13 990.19 1862.95 992.05C1859.37 993.64 1860.37 999.67 1858.49 1003.44C1852 1016.43 1848.95 1030.69 1843.33 1044.06C1837.35 1058.29 1833.51 1073.4 1827.96 1087.82C1823.14 1100.37 1819.1 1113.16 1814.53 1125.78C1809.59 1139.41 1805.12 1153.23 1799.57 1166.6C1794.92 1177.82 1791.86 1189.54 1787.26 1200.79C1781.41 1215.1 1776.9 1229.95 1771.76 1244.55C1767.41 1256.9 1763.01 1269.22 1758.59 1281.54C1753.69 1295.18 1748.73 1308.8 1743.83 1322.44C1739.4 1334.76 1735.04 1347.1 1730.63 1359.42C1725.86 1372.75 1721.8 1386.41 1716.06 1399.31C1711.1 1410.46 1707.8 1422.18 1703.66 1433.53C1698.96 1446.44 1694.24 1459.48 1689.64 1472.46C1685.16 1485.11 1680.83 1497.91 1675.98 1510.47C1672.23 1520.18 1668.43 1530.03 1665.08 1539.97C1660.03 1554.96 1654.9 1569.92 1649.56 1584.8C1645.69 1595.58 1641.23 1606.19 1637.52 1616.98C1631.95 1633.16 1625.65 1649.08 1620.4 1665.35C1616.98 1675.97 1612.53 1686.17 1609 1696.72C1603.98 1711.73 1598.56 1726.6 1593.29 1741.51C1589.15 1753.21 1584.98 1764.9 1580.8 1776.59C1575.91 1790.25 1571.25 1803.99 1566 1817.51C1563.16 1824.82 1562.95 1825.24 1570.43 1825.31C1584.43 1825.44 1598.43 1825.36 1612.43 1825.36C1704.76 1825.38 1797.08 1825.41 1889.41 1825.42C1899.64 1825.42 1899.23 1826.42 1899.23 1815.77C1899.23 1814.77 1899.23 1813.77 1899.23 1812.77C1899.23 1680.11 1899.23 1547.46 1899.23 1414.8ZM3617.82 1006.38C3604.39 1009.57 3590.89 1012.8 3577.37 1015.99C3574.53 1016.66 3572.61 1018.28 3571.82 1021.1C3569.97 1027.71 3566.49 1033.64 3564.59 1040.33C3561.09 1052.66 3556.16 1064.58 3551.81 1076.67C3546.84 1090.49 3541.84 1104.3 3536.88 1118.13C3532.52 1130.27 3528.21 1142.42 3523.85 1154.55C3518.88 1168.38 3513.87 1182.19 3508.88 1196.02C3504.41 1208.4 3499.95 1220.77 3495.5 1233.15C3491.3 1244.84 3487.15 1256.56 3482.92 1268.24C3477.53 1283.11 3472.08 1297.95 3466.63 1312.8C3462.82 1323.19 3458.84 1333.51 3455.15 1343.94C3449.88 1358.84 3444.85 1373.83 3439.62 1388.74C3435.41 1400.77 3431.07 1412.75 3426.76 1424.75C3422.42 1436.84 3418.07 1448.92 3413.7 1460.99C3408.81 1474.48 3403.85 1487.94 3399 1501.45C3394.55 1513.85 3390.3 1526.32 3385.79 1538.69C3380.99 1551.89 3375.87 1564.97 3371.13 1578.18C3366.67 1590.62 3362.63 1603.2 3358.23 1615.66C3353.12 1630.15 3348.25 1644.74 3342.5 1658.97C3337.68 1670.89 3334.09 1683.21 3329.53 1695.21C3325.12 1706.82 3321.12 1718.6 3316.92 1730.29C3311.79 1744.56 3306.99 1758.95 3301.39 1773.03C3297.18 1783.63 3293.55 1794.46 3289.6 1805.14C3287.3 1811.36 3284.15 1817.88 3283.84 1825.21C3286.17 1825.35 3288.15 1825.58 3290.12 1825.57C3396.77 1825.56 3503.41 1825.54 3610.06 1825.49C3618.82 1825.49 3618.82 1825.38 3618.96 1816.73C3618.98 1815.73 3618.96 1814.73 3618.96 1813.73C3618.94 1548.12 3618.92 1282.5 3618.86 1016.89C3618.86 1013.61 3619.52 1010.23 3617.83 1006.38H3617.82ZM1907.38 1006.36C1905.9 1011.57 1906.37 1015.57 1906.36 1019.51C1906.31 1153.13 1906.29 1286.75 1906.27 1420.37C1906.25 1551.66 1906.22 1682.94 1906.21 1814.23C1906.21 1825.42 1906.24 1825.5 1915.65 1825.5C2021.61 1825.55 2127.57 1825.57 2233.54 1825.56C2236.01 1825.56 2238.72 1826.18 2241.34 1824.16C2240.67 1822.01 2240.14 1820.13 2239.49 1818.3C2235.89 1808.08 2232.29 1797.87 2228.62 1787.67C2223.59 1773.72 2218.79 1759.67 2213.35 1745.88C2209.16 1735.26 2205.02 1724.55 2201.49 1713.79C2196.57 1698.76 2190.54 1684.14 2185.79 1669.05C2182.36 1658.14 2177.26 1647.67 2173.93 1636.81C2169.96 1623.88 2164.99 1611.33 2160.37 1598.72C2152.69 1577.79 2145.78 1556.58 2137.6 1535.8C2133.92 1526.44 2130.29 1516.86 2127.06 1507.22C2122.04 1492.22 2116.97 1477.24 2111.57 1462.38C2107.65 1451.61 2103.01 1440.99 2099.63 1430.15C2095.71 1417.56 2091 1405.24 2086.45 1392.97C2078.7 1372.06 2071.87 1350.81 2063.66 1330.04C2059.95 1320.67 2055.78 1311.22 2053.26 1301.41C2049.89 1288.26 2043.9 1276.11 2039.96 1263.17C2035.49 1248.5 2029.75 1234.21 2024.54 1219.76C2020.28 1207.94 2016.39 1195.97 2011.62 1184.36C2006.4 1171.64 2002.7 1158.4 1997.32 1145.71C1992.08 1133.34 1989.35 1119.91 1983.99 1107.6C1979.13 1096.42 1975.83 1084.72 1971.52 1073.4C1964.88 1055.96 1958.8 1038.23 1952.88 1020.48C1952.03 1017.93 1950.38 1016.62 1947.99 1016.05C1934.76 1012.86 1921.52 1009.72 1907.37 1006.35L1907.38 1006.36ZM3642.2 909.51C3655.93 902.34 3667.89 892.59 3677.21 879.74C3685.83 867.88 3685.97 852.89 3677.8 840.5C3664.73 820.69 3632.93 810.3 3609.72 823.56C3590.86 834.34 3589.74 860.36 3607.9 872.3C3613.81 876.19 3614.31 876.49 3617.68 870.82C3620.06 866.82 3623.51 866.18 3625.59 868.61C3630.03 873.81 3633.19 870.58 3636.49 868.07C3641.26 864.43 3643.62 859.5 3643.44 853.34C3643.3 848.56 3641.54 844.29 3640.03 839.88C3637.83 833.47 3639.03 832.22 3645.92 833.21C3662.89 835.65 3672.22 855.56 3663.56 871.01C3658.54 879.97 3650.88 886.27 3642.27 891.6C3635.61 895.72 3635.62 895.82 3638.37 903.3C3639.15 905.41 3639.2 907.99 3642.2 909.51ZM1908.34 875.37C1918.72 871.6 1920.78 870.71 1923.47 867.05C1934.83 851.64 1929.63 831.41 1915.87 823.99C1897.46 814.08 1879.42 815.55 1862.01 826.33C1837.75 841.35 1834.29 865.45 1853.2 886.54C1861.86 896.2 1871.87 904.11 1883.64 909.85C1884.96 906.53 1886.19 904.19 1886.81 901.7C1887.8 897.78 1888.68 894.4 1883.38 891.72C1873.78 886.86 1865.82 879.67 1860.79 869.86C1853.75 856.12 1860.79 838.81 1875.37 834.02C1878.11 833.12 1881.64 831.6 1883.92 833.66C1886.21 835.73 1885.08 839.19 1884.13 842.06C1883.29 844.58 1882.3 847.08 1881.75 849.66C1879.92 858.19 1884.09 866.59 1891.91 870.42C1893.68 871.29 1895.24 871.88 1897.42 870.68C1905.33 866.34 1905.4 866.47 1908.33 875.35L1908.34 875.37ZM3618.18 900.08C3612.57 905.58 3608.71 915.52 3608.36 924.46C3611.98 922.28 3617.89 923.57 3618.58 918.06C3619.3 912.39 3619.45 906.47 3618.18 900.08ZM1907.84 899.81C1905.58 906.26 1906.31 910.93 1906.43 915.49C1906.63 922.61 1908.19 923.52 1917.01 922.53C1914.24 915.42 1913.95 907.41 1907.84 899.81ZM1898.92 916.68C1898.43 910.16 1900.29 904.42 1897.48 898.47C1894.17 901.4 1893.8 904.82 1892.75 907.84C1890.76 913.55 1890.86 913.58 1898.92 916.68ZM3627.59 898.21C3625.49 904.08 3626.27 908.35 3626.27 912.54C3626.27 914.84 3627.25 916.22 3629.93 915.69C3632.33 915.21 3633.36 913.8 3633.04 911.51C3632.46 907.28 3631.11 903.32 3627.58 898.22L3627.59 898.21Z" fill="white"/>
<path d="M431.879 2985.38V2670.38H580.829C615.629 2670.38 646.229 2676.83 672.629 2689.73C699.029 2702.63 719.579 2720.78 734.279 2744.18C749.279 2767.58 756.779 2795.48 756.779 2827.88C756.779 2859.98 749.279 2887.88 734.279 2911.58C719.579 2934.98 699.029 2953.13 672.629 2966.03C646.229 2978.93 615.629 2985.38 580.829 2985.38H431.879ZM520.979 2914.28H577.229C595.229 2914.28 610.829 2910.98 624.029 2904.38C637.529 2897.48 648.029 2887.58 655.529 2874.68C663.029 2861.48 666.779 2845.88 666.779 2827.88C666.779 2809.58 663.029 2793.98 655.529 2781.08C648.029 2768.18 637.529 2758.43 624.029 2751.83C610.829 2744.93 595.229 2741.48 577.229 2741.48H520.979V2914.28ZM885.556 2792.33H1031.81V2858.93H885.556V2792.33ZM891.856 2916.53H1056.56V2985.38H803.656V2670.38H1050.71V2739.23H891.856V2916.53ZM1188.8 2808.53H1334.15V2877.38H1188.8V2808.53ZM1195.1 2985.38H1106V2670.38H1353.05V2739.23H1195.1V2985.38ZM1476.62 2792.33H1622.87V2858.93H1476.62V2792.33ZM1482.92 2916.53H1647.62V2985.38H1394.72V2670.38H1641.77V2739.23H1482.92V2916.53ZM1697.06 2985.38V2670.38H1770.41L1944.11 2880.08H1909.46V2670.38H1996.76V2985.38H1923.41L1749.71 2775.68H1784.36V2985.38H1697.06ZM2170.31 2991.68C2144.51 2991.68 2119.61 2988.53 2095.61 2982.23C2071.91 2975.63 2052.56 2967.23 2037.56 2957.03L2066.81 2891.33C2080.91 2900.33 2097.11 2907.83 2115.41 2913.83C2134.01 2919.53 2152.46 2922.38 2170.76 2922.38C2183.06 2922.38 2192.96 2921.33 2200.46 2919.23C2207.96 2916.83 2213.36 2913.83 2216.66 2910.23C2220.26 2906.33 2222.06 2901.83 2222.06 2896.73C2222.06 2889.53 2218.76 2883.83 2212.16 2879.63C2205.56 2875.43 2197.01 2871.98 2186.51 2869.28C2176.01 2866.58 2164.31 2863.88 2151.41 2861.18C2138.81 2858.48 2126.06 2855.03 2113.16 2850.83C2100.56 2846.63 2089.01 2841.23 2078.51 2834.63C2068.01 2827.73 2059.46 2818.88 2052.86 2808.08C2046.26 2796.98 2042.96 2783.03 2042.96 2766.23C2042.96 2747.33 2048.06 2730.23 2058.26 2714.93C2068.76 2699.63 2084.36 2687.33 2105.06 2678.03C2125.76 2668.73 2151.56 2664.08 2182.46 2664.08C2203.16 2664.08 2223.41 2666.48 2243.21 2671.28C2263.31 2675.78 2281.16 2682.53 2296.76 2691.53L2269.31 2757.68C2254.31 2749.58 2239.46 2743.58 2224.76 2739.68C2210.06 2735.48 2195.81 2733.38 2182.01 2733.38C2169.71 2733.38 2159.81 2734.73 2152.31 2737.43C2144.81 2739.83 2139.41 2743.13 2136.11 2747.33C2132.81 2751.53 2131.16 2756.33 2131.16 2761.73C2131.16 2768.63 2134.31 2774.18 2140.61 2778.38C2147.21 2782.28 2155.76 2785.58 2166.26 2788.28C2177.06 2790.68 2188.76 2793.23 2201.36 2795.93C2214.26 2798.63 2227.01 2802.08 2239.61 2806.28C2252.51 2810.18 2264.21 2815.58 2274.71 2822.48C2285.21 2829.08 2293.61 2837.93 2299.91 2849.03C2306.51 2859.83 2309.81 2873.48 2309.81 2889.98C2309.81 2908.28 2304.56 2925.23 2294.06 2940.83C2283.86 2956.13 2268.41 2968.43 2247.71 2977.73C2227.31 2987.03 2201.51 2991.68 2170.31 2991.68ZM2313.17 2985.38L2452.22 2670.38H2539.97L2679.47 2985.38H2586.77L2477.87 2714.03H2512.97L2404.07 2985.38H2313.17ZM2389.22 2924.18L2412.17 2858.48H2566.07L2589.02 2924.18H2389.22ZM2835.69 2985.38V2670.38H2924.79V2914.73H3075.09V2985.38H2835.69ZM3075.62 2985.38L3214.67 2670.38H3302.42L3441.92 2985.38H3349.22L3240.32 2714.03H3275.42L3166.52 2985.38H3075.62ZM3151.67 2924.18L3174.62 2858.48H3328.52L3351.47 2924.18H3151.67ZM3467.18 2985.38V2670.38H3628.28C3669.68 2670.38 3700.58 2678.03 3720.98 2693.33C3741.38 2708.33 3751.58 2728.13 3751.58 2752.73C3751.58 2768.93 3747.23 2783.18 3738.53 2795.48C3730.13 2807.48 3718.13 2817.08 3702.53 2824.28C3687.23 2831.18 3668.93 2834.63 3647.63 2834.63L3656.63 2813.03C3678.83 2813.03 3698.18 2816.48 3714.68 2823.38C3731.18 2829.98 3743.93 2839.73 3752.93 2852.63C3762.23 2865.23 3766.88 2880.68 3766.88 2898.98C3766.88 2926.28 3755.78 2947.58 3733.58 2962.88C3711.68 2977.88 3679.58 2985.38 3637.28 2985.38H3467.18ZM3555.38 2921.03H3630.08C3645.38 2921.03 3656.93 2918.48 3664.73 2913.38C3672.83 2907.98 3676.88 2899.88 3676.88 2889.08C3676.88 2878.28 3672.83 2870.33 3664.73 2865.23C3656.93 2859.83 3645.38 2857.13 3630.08 2857.13H3549.08V2795.48H3616.58C3631.58 2795.48 3642.83 2792.93 3650.33 2787.83C3657.83 2782.73 3661.58 2775.08 3661.58 2764.88C3661.58 2754.68 3657.83 2747.18 3650.33 2742.38C3642.83 2737.28 3631.58 2734.73 3616.58 2734.73H3555.38V2921.03ZM3971.88 2991.68C3946.68 2991.68 3923.43 2987.63 3902.13 2979.53C3880.83 2971.43 3862.23 2960.03 3846.33 2945.33C3830.73 2930.33 3818.58 2912.93 3809.88 2893.13C3801.18 2873.33 3796.83 2851.58 3796.83 2827.88C3796.83 2804.18 3801.18 2782.43 3809.88 2762.63C3818.58 2742.83 3830.73 2725.58 3846.33 2710.88C3862.23 2695.88 3880.83 2684.33 3902.13 2676.23C3923.43 2668.13 3946.68 2664.08 3971.88 2664.08C3997.38 2664.08 4020.63 2668.13 4041.63 2676.23C4062.93 2684.33 4081.38 2695.88 4096.98 2710.88C4112.58 2725.58 4124.73 2742.83 4133.43 2762.63C4142.43 2782.43 4146.93 2804.18 4146.93 2827.88C4146.93 2851.58 4142.43 2873.48 4133.43 2893.58C4124.73 2913.38 4112.58 2930.63 4096.98 2945.33C4081.38 2960.03 4062.93 2971.43 4041.63 2979.53C4020.63 2987.63 3997.38 2991.68 3971.88 2991.68ZM3971.88 2917.88C3983.88 2917.88 3994.98 2915.78 4005.18 2911.58C4015.68 2907.38 4024.68 2901.38 4032.18 2893.58C4039.98 2885.48 4045.98 2875.88 4050.18 2864.78C4054.68 2853.68 4056.93 2841.38 4056.93 2827.88C4056.93 2814.08 4054.68 2801.78 4050.18 2790.98C4045.98 2779.88 4039.98 2770.43 4032.18 2762.63C4024.68 2754.53 4015.68 2748.38 4005.18 2744.18C3994.98 2739.98 3983.88 2737.88 3971.88 2737.88C3959.88 2737.88 3948.63 2739.98 3938.13 2744.18C3927.93 2748.38 3918.93 2754.53 3911.13 2762.63C3903.63 2770.43 3897.63 2779.88 3893.13 2790.98C3888.93 2801.78 3886.83 2814.08 3886.83 2827.88C3886.83 2841.38 3888.93 2853.68 3893.13 2864.78C3897.63 2875.88 3903.63 2885.48 3911.13 2893.58C3918.93 2901.38 3927.93 2907.38 3938.13 2911.58C3948.63 2915.78 3959.88 2917.88 3971.88 2917.88ZM4193.6 2985.38V2670.38H4337.6C4366.4 2670.38 4391.15 2675.03 4411.85 2684.33C4432.85 2693.63 4449.05 2707.13 4460.45 2724.83C4471.85 2742.23 4477.55 2762.93 4477.55 2786.93C4477.55 2810.63 4471.85 2831.18 4460.45 2848.58C4449.05 2865.68 4432.85 2878.88 4411.85 2888.18C4391.15 2897.18 4366.4 2901.68 4337.6 2901.68H4243.1L4282.7 2864.33V2985.38H4193.6ZM4388.45 2985.38L4310.15 2870.63H4405.1L4483.85 2985.38H4388.45ZM4282.7 2873.78L4243.1 2832.83H4332.2C4350.8 2832.83 4364.6 2828.78 4373.6 2820.68C4382.9 2812.58 4387.55 2801.33 4387.55 2786.93C4387.55 2772.23 4382.9 2760.83 4373.6 2752.73C4364.6 2744.63 4350.8 2740.58 4332.2 2740.58H4243.1L4282.7 2699.63V2873.78ZM4488.9 2985.38L4627.95 2670.38H4715.7L4855.2 2985.38H4762.5L4653.6 2714.03H4688.7L4579.8 2985.38H4488.9ZM4564.95 2924.18L4587.9 2858.48H4741.8L4764.75 2924.18H4564.95ZM4880.46 2985.38V2670.38H4969.56V2914.73H5119.86V2985.38H4880.46Z" fill="white"/>
<path d="M825.984 3313.38L857.064 3157.98H879.264L851.958 3294.07H936.318L932.544 3313.38H825.984ZM1000.68 3314.71C990.763 3314.71 981.883 3312.72 974.039 3308.72C966.195 3304.58 959.979 3298.73 955.391 3291.18C950.951 3283.63 948.731 3274.53 948.731 3263.88C948.731 3253.81 950.359 3244.56 953.615 3236.13C957.019 3227.69 961.681 3220.36 967.601 3214.15C973.669 3207.93 980.773 3203.12 988.913 3199.72C997.053 3196.31 1005.86 3194.61 1015.33 3194.61C1025.54 3194.61 1034.2 3196.39 1041.3 3199.94C1048.41 3203.49 1053.88 3208.75 1057.73 3215.7C1061.58 3222.51 1063.5 3230.87 1063.5 3240.79C1063.5 3255.29 1060.99 3268.17 1055.96 3279.42C1050.92 3290.52 1043.67 3299.17 1034.2 3305.39C1024.88 3311.61 1013.7 3314.71 1000.68 3314.71ZM1005.34 3296.07C1014.22 3296.07 1022.14 3293.92 1029.09 3289.63C1036.05 3285.34 1041.45 3279.49 1045.3 3272.09C1049.3 3264.54 1051.29 3255.96 1051.29 3246.34C1051.29 3235.98 1048.26 3227.91 1042.19 3222.14C1036.12 3216.22 1027.47 3213.26 1016.22 3213.26C1007.49 3213.26 999.643 3215.41 992.687 3219.7C985.731 3223.84 980.255 3229.69 976.259 3237.24C972.263 3244.64 970.265 3253.22 970.265 3262.99C970.265 3273.2 973.299 3281.27 979.367 3287.19C985.435 3293.11 994.093 3296.07 1005.34 3296.07ZM1039.31 3313.38L1045.52 3282.97L1052.63 3255.66L1055.51 3227.69L1061.73 3195.72H1083.04L1059.73 3313.38H1039.31ZM1153.9 3313.38L1179.88 3184.62C1182.24 3172.78 1187.05 3163.61 1194.31 3157.09C1201.71 3150.58 1211.4 3147.33 1223.39 3147.33C1228.27 3147.33 1232.86 3147.99 1237.15 3149.32C1241.59 3150.51 1245.22 3152.28 1248.03 3154.65L1239.15 3170.41C1235.01 3166.71 1229.75 3164.86 1223.39 3164.86C1217.02 3164.86 1211.92 3166.64 1208.07 3170.19C1204.37 3173.74 1201.78 3179.15 1200.3 3186.4L1196.97 3201.72L1195.86 3210.6L1175.21 3313.38H1153.9ZM1153.9 3213.26L1157.23 3195.72H1232.49L1228.94 3213.26H1153.9ZM1274.79 3314.71C1264.73 3314.71 1256.22 3312.64 1249.26 3308.5C1242.45 3304.35 1237.64 3298.36 1234.83 3290.52C1232.02 3282.52 1231.72 3272.9 1233.94 3261.66L1247.04 3195.72H1268.35L1255.25 3261.88C1253.18 3272.39 1254.22 3280.67 1258.36 3286.74C1262.65 3292.66 1270.2 3295.62 1281.01 3295.62C1292.11 3295.62 1301.43 3292.51 1308.98 3286.3C1316.53 3280.08 1321.56 3270.68 1324.07 3258.1L1336.51 3195.72H1357.82L1334.51 3313.38H1314.08L1320.74 3279.64L1324.52 3288.74C1319.04 3297.62 1311.94 3304.21 1303.21 3308.5C1294.62 3312.64 1285.15 3314.71 1274.79 3314.71ZM1426.81 3314.71C1415.26 3314.71 1405.27 3312.64 1396.84 3308.5C1388.4 3304.21 1381.89 3298.29 1377.3 3290.74C1372.71 3283.04 1370.42 3274.01 1370.42 3263.65C1370.42 3250.33 1373.3 3238.49 1379.08 3228.13C1384.85 3217.77 1392.69 3209.63 1402.61 3203.71C1412.67 3197.65 1424.07 3194.61 1436.8 3194.61C1447.45 3194.61 1456.7 3196.68 1464.55 3200.83C1472.39 3204.82 1478.46 3210.6 1482.75 3218.14C1487.19 3225.69 1489.41 3234.79 1489.41 3245.45C1489.41 3248.11 1489.26 3250.85 1488.97 3253.66C1488.67 3256.33 1488.3 3258.84 1487.86 3261.21H1385.96L1388.62 3245.67H1477.64L1468.99 3251C1470.32 3242.71 1469.73 3235.76 1467.21 3230.13C1464.69 3224.36 1460.7 3219.99 1455.22 3217.03C1449.89 3213.93 1443.46 3212.37 1435.91 3212.37C1427.03 3212.37 1419.18 3214.52 1412.38 3218.81C1405.72 3222.95 1400.54 3228.8 1396.84 3236.35C1393.14 3243.75 1391.29 3252.48 1391.29 3262.54C1391.29 3273.2 1394.32 3281.49 1400.39 3287.41C1406.6 3293.18 1416 3296.07 1428.58 3296.07C1435.98 3296.07 1442.86 3294.88 1449.23 3292.51C1455.59 3290 1460.85 3286.67 1464.99 3282.52L1474.09 3297.84C1468.47 3303.32 1461.44 3307.54 1453 3310.5C1444.57 3313.31 1435.83 3314.71 1426.81 3314.71ZM1501.91 3313.38L1525.22 3195.72H1545.65L1538.99 3229.91L1536.77 3221.47C1542.24 3211.56 1549.2 3204.6 1557.64 3200.61C1566.07 3196.61 1576.51 3194.61 1588.94 3194.61L1584.94 3215.26C1584.05 3215.11 1583.17 3215.04 1582.28 3215.04C1581.39 3215.04 1580.43 3215.04 1579.39 3215.04C1567.7 3215.04 1558.01 3218.22 1550.31 3224.58C1542.76 3230.95 1537.66 3240.94 1534.99 3254.55L1523.23 3313.38H1501.91ZM1576.76 3313.38L1579.65 3299.62L1672.67 3205.93L1676.89 3213.26H1598.74L1602.07 3195.72H1697.31L1694.42 3209.71L1601.41 3303.17L1596.97 3295.84H1678.88L1675.33 3313.38H1576.76ZM1749.85 3314.71C1739.93 3314.71 1731.05 3312.72 1723.21 3308.72C1715.37 3304.58 1709.15 3298.73 1704.56 3291.18C1700.12 3283.63 1697.9 3274.53 1697.9 3263.88C1697.9 3253.81 1699.53 3244.56 1702.79 3236.13C1706.19 3227.69 1710.85 3220.36 1716.77 3214.15C1722.84 3207.93 1729.94 3203.12 1738.08 3199.72C1746.22 3196.31 1755.03 3194.61 1764.5 3194.61C1774.71 3194.61 1783.37 3196.39 1790.48 3199.94C1797.58 3203.49 1803.06 3208.75 1806.9 3215.7C1810.75 3222.51 1812.68 3230.87 1812.68 3240.79C1812.68 3255.29 1810.16 3268.17 1805.13 3279.42C1800.1 3290.52 1792.84 3299.17 1783.37 3305.39C1774.05 3311.61 1762.87 3314.71 1749.85 3314.71ZM1754.51 3296.07C1763.39 3296.07 1771.31 3293.92 1778.27 3289.63C1785.22 3285.34 1790.62 3279.49 1794.47 3272.09C1798.47 3264.54 1800.47 3255.96 1800.47 3246.34C1800.47 3235.98 1797.43 3227.91 1791.36 3222.14C1785.3 3216.22 1776.64 3213.26 1765.39 3213.26C1756.66 3213.26 1748.81 3215.41 1741.86 3219.7C1734.9 3223.84 1729.43 3229.69 1725.43 3237.24C1721.43 3244.64 1719.44 3253.22 1719.44 3262.99C1719.44 3273.2 1722.47 3281.27 1728.54 3287.19C1734.61 3293.11 1743.26 3296.07 1754.51 3296.07ZM1788.48 3313.38L1794.69 3282.97L1801.8 3255.66L1804.68 3227.69L1810.9 3195.72H1832.21L1808.9 3313.38H1788.48ZM1903.07 3313.38L1934.15 3157.98H1956.35L1929.05 3294.07H2013.41L2009.63 3313.38H1903.07ZM2082.21 3314.71C2070.67 3314.71 2060.68 3312.64 2052.24 3308.5C2043.8 3304.21 2037.29 3298.29 2032.7 3290.74C2028.12 3283.04 2025.82 3274.01 2025.82 3263.65C2025.82 3250.33 2028.71 3238.49 2034.48 3228.13C2040.25 3217.77 2048.1 3209.63 2058.01 3203.71C2068.08 3197.65 2079.47 3194.61 2092.2 3194.61C2102.86 3194.61 2112.11 3196.68 2119.95 3200.83C2127.79 3204.82 2133.86 3210.6 2138.15 3218.14C2142.59 3225.69 2144.81 3234.79 2144.81 3245.45C2144.81 3248.11 2144.67 3250.85 2144.37 3253.66C2144.07 3256.33 2143.7 3258.84 2143.26 3261.21H2041.36L2044.03 3245.67H2133.05L2124.39 3251C2125.72 3242.71 2125.13 3235.76 2122.61 3230.13C2120.1 3224.36 2116.1 3219.99 2110.63 3217.03C2105.3 3213.93 2098.86 3212.37 2091.31 3212.37C2082.43 3212.37 2074.59 3214.52 2067.78 3218.81C2061.12 3222.95 2055.94 3228.8 2052.24 3236.35C2048.54 3243.75 2046.69 3252.48 2046.69 3262.54C2046.69 3273.2 2049.72 3281.49 2055.79 3287.41C2062.01 3293.18 2071.41 3296.07 2083.99 3296.07C2091.39 3296.07 2098.27 3294.88 2104.63 3292.51C2111 3290 2116.25 3286.67 2120.39 3282.52L2129.5 3297.84C2123.87 3303.32 2116.84 3307.54 2108.41 3310.5C2099.97 3313.31 2091.24 3314.71 2082.21 3314.71ZM2202.61 3357.78C2191.51 3357.78 2181.37 3356.3 2172.19 3353.34C2163.02 3350.53 2155.25 3346.46 2148.88 3341.13L2160.65 3324.7C2165.24 3329 2171.3 3332.4 2178.85 3334.92C2186.55 3337.58 2194.98 3338.91 2204.16 3338.91C2218.07 3338.91 2228.73 3335.73 2236.13 3329.37C2243.53 3323.15 2248.49 3313.6 2251 3300.73L2256.55 3273.42L2263.21 3251.44L2266.54 3227.91L2272.98 3195.72H2293.18L2272.98 3297.4C2268.69 3318.71 2260.77 3334.1 2249.23 3343.57C2237.68 3353.05 2222.14 3357.78 2202.61 3357.78ZM2210.15 3308.5C2199.94 3308.5 2190.84 3306.57 2182.85 3302.73C2175 3298.88 2168.86 3293.4 2164.42 3286.3C2159.98 3279.05 2157.76 3270.46 2157.76 3260.55C2157.76 3251.07 2159.39 3242.42 2162.65 3234.57C2166.05 3226.58 2170.71 3219.62 2176.63 3213.7C2182.55 3207.64 2189.58 3202.97 2197.72 3199.72C2206.01 3196.31 2215.04 3194.61 2224.81 3194.61C2233.69 3194.61 2241.75 3196.17 2249 3199.27C2256.4 3202.38 2262.25 3207.19 2266.54 3213.7C2270.98 3220.07 2273.2 3228.36 2273.2 3238.57C2273.35 3251.59 2270.91 3263.43 2265.88 3274.09C2260.84 3284.6 2253.59 3292.96 2244.12 3299.17C2234.8 3305.39 2223.47 3308.5 2210.15 3308.5ZM2214.37 3289.85C2223.4 3289.85 2231.32 3287.85 2238.13 3283.86C2245.08 3279.86 2250.56 3274.38 2254.55 3267.43C2258.55 3260.47 2260.55 3252.55 2260.55 3243.67C2260.55 3234.2 2257.44 3226.8 2251.22 3221.47C2245.16 3216 2236.57 3213.26 2225.47 3213.26C2216.44 3213.26 2208.45 3215.26 2201.5 3219.25C2194.69 3223.1 2189.29 3228.5 2185.29 3235.46C2181.29 3242.42 2179.3 3250.33 2179.3 3259.21C2179.3 3268.83 2182.4 3276.38 2188.62 3281.86C2194.84 3287.19 2203.42 3289.85 2214.37 3289.85ZM2357.88 3314.71C2347.96 3314.71 2339.08 3312.72 2331.24 3308.72C2323.4 3304.58 2317.18 3298.73 2312.59 3291.18C2308.15 3283.63 2305.93 3274.53 2305.93 3263.88C2305.93 3253.81 2307.56 3244.56 2310.82 3236.13C2314.22 3227.69 2318.88 3220.36 2324.8 3214.15C2330.87 3207.93 2337.97 3203.12 2346.11 3199.72C2354.25 3196.31 2363.06 3194.61 2372.53 3194.61C2382.74 3194.61 2391.4 3196.39 2398.51 3199.94C2405.61 3203.49 2411.09 3208.75 2414.93 3215.7C2418.78 3222.51 2420.71 3230.87 2420.71 3240.79C2420.71 3255.29 2418.19 3268.17 2413.16 3279.42C2408.13 3290.52 2400.87 3299.17 2391.4 3305.39C2382.08 3311.61 2370.9 3314.71 2357.88 3314.71ZM2362.54 3296.07C2371.42 3296.07 2379.34 3293.92 2386.3 3289.63C2393.25 3285.34 2398.65 3279.49 2402.5 3272.09C2406.5 3264.54 2408.5 3255.96 2408.5 3246.34C2408.5 3235.98 2405.46 3227.91 2399.39 3222.14C2393.33 3216.22 2384.67 3213.26 2373.42 3213.26C2364.69 3213.26 2356.84 3215.41 2349.89 3219.7C2342.93 3223.84 2337.46 3229.69 2333.46 3237.24C2329.46 3244.64 2327.47 3253.22 2327.47 3262.99C2327.47 3273.2 2330.5 3281.27 2336.57 3287.19C2342.64 3293.11 2351.29 3296.07 2362.54 3296.07ZM2396.51 3313.38L2402.72 3282.97L2409.83 3255.66L2412.71 3227.69L2418.93 3195.72H2440.24L2416.93 3313.38H2396.51ZM2453.04 3313.38L2485.89 3148.66H2507.21L2474.35 3313.38H2453.04ZM2617.51 3314.71C2607.59 3314.71 2598.71 3312.72 2590.87 3308.72C2583.02 3304.58 2576.81 3298.73 2572.22 3291.18C2567.78 3283.63 2565.56 3274.53 2565.56 3263.88C2565.56 3253.81 2567.19 3244.56 2570.44 3236.13C2573.85 3227.69 2578.51 3220.36 2584.43 3214.15C2590.5 3207.93 2597.6 3203.12 2605.74 3199.72C2613.88 3196.31 2622.69 3194.61 2632.16 3194.61C2642.37 3194.61 2651.03 3196.39 2658.13 3199.94C2665.24 3203.49 2670.71 3208.75 2674.56 3215.7C2678.41 3222.51 2680.33 3230.87 2680.33 3240.79C2680.33 3251.74 2678.93 3261.73 2676.11 3270.76C2673.3 3279.79 2669.08 3287.63 2663.46 3294.29C2657.98 3300.8 2651.4 3305.83 2643.7 3309.39C2636.01 3312.94 2627.27 3314.71 2617.51 3314.71ZM2622.17 3296.07C2631.05 3296.07 2638.97 3293.92 2645.92 3289.63C2652.88 3285.34 2658.28 3279.49 2662.13 3272.09C2666.12 3264.54 2668.12 3255.96 2668.12 3246.34C2668.12 3235.98 2665.09 3227.91 2659.02 3222.14C2652.95 3216.22 2644.29 3213.26 2633.05 3213.26C2624.31 3213.26 2616.47 3215.41 2609.51 3219.7C2602.56 3223.84 2597.08 3229.69 2593.09 3237.24C2589.09 3244.64 2587.09 3253.22 2587.09 3262.99C2587.09 3273.2 2590.13 3281.27 2596.19 3287.19C2602.26 3293.11 2610.92 3296.07 2622.17 3296.07ZM2656.13 3313.38L2662.35 3282.97L2669.23 3255.66L2672.34 3227.69L2688.1 3148.66H2709.41L2676.56 3313.38H2656.13ZM2768.83 3314.71C2757.29 3314.71 2747.3 3312.64 2738.86 3308.5C2730.42 3304.21 2723.91 3298.29 2719.32 3290.74C2714.74 3283.04 2712.44 3274.01 2712.44 3263.65C2712.44 3250.33 2715.33 3238.49 2721.1 3228.13C2726.87 3217.77 2734.72 3209.63 2744.63 3203.71C2754.7 3197.65 2766.09 3194.61 2778.82 3194.61C2789.48 3194.61 2798.73 3196.68 2806.57 3200.83C2814.41 3204.82 2820.48 3210.6 2824.77 3218.14C2829.21 3225.69 2831.43 3234.79 2831.43 3245.45C2831.43 3248.11 2831.29 3250.85 2830.99 3253.66C2830.69 3256.33 2830.32 3258.84 2829.88 3261.21H2727.98L2730.65 3245.67H2819.67L2811.01 3251C2812.34 3242.71 2811.75 3235.76 2809.23 3230.13C2806.72 3224.36 2802.72 3219.99 2797.25 3217.03C2791.92 3213.93 2785.48 3212.37 2777.93 3212.37C2769.05 3212.37 2761.21 3214.52 2754.4 3218.81C2747.74 3222.95 2742.56 3228.8 2738.86 3236.35C2735.16 3243.75 2733.31 3252.48 2733.31 3262.54C2733.31 3273.2 2736.34 3281.49 2742.41 3287.41C2748.63 3293.18 2758.03 3296.07 2770.61 3296.07C2778.01 3296.07 2784.89 3294.88 2791.25 3292.51C2797.62 3290 2802.87 3286.67 2807.01 3282.52L2816.12 3297.84C2810.49 3303.32 2803.46 3307.54 2795.03 3310.5C2786.59 3313.31 2777.86 3314.71 2768.83 3314.71ZM2899.12 3313.38L2931.97 3148.66H2953.29L2920.43 3313.38H2899.12ZM3011.74 3314.71C3000.49 3314.71 2990.72 3312.64 2982.43 3308.5C2974.29 3304.21 2967.93 3298.29 2963.34 3290.74C2958.75 3283.04 2956.46 3274.09 2956.46 3263.88C2956.46 3250.56 2959.42 3238.72 2965.34 3228.36C2971.26 3217.85 2979.4 3209.63 2989.76 3203.71C3000.27 3197.65 3012.18 3194.61 3025.5 3194.61C3036.6 3194.61 3046.3 3196.68 3054.58 3200.83C3062.87 3204.97 3069.24 3210.82 3073.68 3218.37C3078.26 3225.91 3080.56 3234.87 3080.56 3245.23C3080.56 3258.55 3077.6 3270.46 3071.68 3280.97C3065.76 3291.33 3057.62 3299.54 3047.26 3305.61C3037.05 3311.68 3025.21 3314.71 3011.74 3314.71ZM3013.07 3296.07C3021.95 3296.07 3029.87 3293.92 3036.82 3289.63C3043.78 3285.34 3049.18 3279.49 3053.03 3272.09C3057.03 3264.54 3059.02 3255.96 3059.02 3246.34C3059.02 3235.98 3055.99 3227.91 3049.92 3222.14C3043.85 3216.22 3035.2 3213.26 3023.95 3213.26C3015.22 3213.26 3007.37 3215.41 3000.42 3219.7C2993.46 3223.84 2987.98 3229.69 2983.99 3237.24C2979.99 3244.64 2977.99 3253.22 2977.99 3262.99C2977.99 3273.2 2981.03 3281.27 2987.1 3287.19C2993.16 3293.11 3001.82 3296.07 3013.07 3296.07ZM3130.23 3314.71C3120.32 3314.71 3110.92 3313.46 3102.04 3310.94C3093.31 3308.28 3086.57 3305.02 3081.84 3301.17L3091.38 3284.3C3095.97 3287.85 3101.89 3290.74 3109.14 3292.96C3116.54 3295.18 3124.24 3296.29 3132.23 3296.29C3142.44 3296.29 3150.14 3294.73 3155.32 3291.63C3160.5 3288.52 3163.09 3284.3 3163.09 3278.97C3163.09 3275.12 3161.54 3272.24 3158.43 3270.31C3155.32 3268.24 3151.25 3266.69 3146.22 3265.65C3141.33 3264.47 3136.08 3263.36 3130.46 3262.32C3124.83 3261.14 3119.58 3259.51 3114.69 3257.44C3109.81 3255.37 3105.74 3252.41 3102.48 3248.56C3099.38 3244.56 3097.82 3239.31 3097.82 3232.8C3097.82 3224.95 3100.04 3218.22 3104.48 3212.59C3108.92 3206.82 3115.14 3202.38 3123.13 3199.27C3131.12 3196.17 3140.45 3194.61 3151.1 3194.61C3158.8 3194.61 3166.35 3195.57 3173.75 3197.5C3181.29 3199.27 3187.44 3201.86 3192.17 3205.27L3183.74 3222.14C3178.85 3218.74 3173.38 3216.37 3167.31 3215.04C3161.24 3213.56 3155.17 3212.82 3149.1 3212.82C3139.19 3212.82 3131.71 3214.52 3126.68 3217.92C3121.65 3221.18 3119.13 3225.32 3119.13 3230.35C3119.13 3234.2 3120.69 3237.24 3123.8 3239.46C3126.9 3241.53 3130.9 3243.16 3135.78 3244.34C3140.82 3245.52 3146.07 3246.71 3151.55 3247.89C3157.17 3248.93 3162.42 3250.48 3167.31 3252.55C3172.34 3254.48 3176.41 3257.36 3179.52 3261.21C3182.63 3264.91 3184.18 3270.02 3184.18 3276.53C3184.18 3284.67 3181.89 3291.63 3177.3 3297.4C3172.86 3303.02 3166.57 3307.31 3158.43 3310.27C3150.29 3313.23 3140.89 3314.71 3130.23 3314.71ZM3288.86 3313.38L3315.94 3177.3H3262.89L3266.66 3157.98H3395.2L3391.2 3177.3H3338.14L3310.84 3313.38H3288.86ZM3378.15 3313.38L3401.46 3195.72H3421.89L3415.23 3229.91L3413.01 3221.47C3418.48 3211.56 3425.44 3204.6 3433.88 3200.61C3442.31 3196.61 3452.75 3194.61 3465.18 3194.61L3461.18 3215.26C3460.29 3215.11 3459.41 3215.04 3458.52 3215.04C3457.63 3215.04 3456.67 3215.04 3455.63 3215.04C3443.94 3215.04 3434.25 3218.22 3426.55 3224.58C3419 3230.95 3413.9 3240.94 3411.23 3254.55L3399.47 3313.38H3378.15ZM3513.89 3314.71C3503.98 3314.71 3495.1 3312.72 3487.25 3308.72C3479.41 3304.58 3473.19 3298.73 3468.6 3291.18C3464.16 3283.63 3461.94 3274.53 3461.94 3263.88C3461.94 3253.81 3463.57 3244.56 3466.83 3236.13C3470.23 3227.69 3474.89 3220.36 3480.81 3214.15C3486.88 3207.93 3493.99 3203.12 3502.13 3199.72C3510.27 3196.31 3519.07 3194.61 3528.54 3194.61C3538.76 3194.61 3547.41 3196.39 3554.52 3199.94C3561.62 3203.49 3567.1 3208.75 3570.95 3215.7C3574.79 3222.51 3576.72 3230.87 3576.72 3240.79C3576.72 3255.29 3574.2 3268.17 3569.17 3279.42C3564.14 3290.52 3556.89 3299.17 3547.41 3305.39C3538.09 3311.61 3526.92 3314.71 3513.89 3314.71ZM3518.55 3296.07C3527.43 3296.07 3535.35 3293.92 3542.31 3289.63C3549.26 3285.34 3554.67 3279.49 3558.51 3272.09C3562.51 3264.54 3564.51 3255.96 3564.51 3246.34C3564.51 3235.98 3561.47 3227.91 3555.41 3222.14C3549.34 3216.22 3540.68 3213.26 3529.43 3213.26C3520.7 3213.26 3512.86 3215.41 3505.9 3219.7C3498.94 3223.84 3493.47 3229.69 3489.47 3237.24C3485.48 3244.64 3483.48 3253.22 3483.48 3262.99C3483.48 3273.2 3486.51 3281.27 3492.58 3287.19C3498.65 3293.11 3507.31 3296.07 3518.55 3296.07ZM3552.52 3313.38L3558.74 3282.97L3565.84 3255.66L3568.73 3227.69L3574.94 3195.72H3596.25L3572.94 3313.38H3552.52ZM3609.05 3313.38L3641.91 3148.66H3663.22L3647.46 3226.58L3639.69 3253.44L3636.36 3278.75L3629.25 3313.38H3609.05ZM3676.76 3314.71C3666.7 3314.71 3658.04 3312.94 3650.79 3309.39C3643.68 3305.69 3638.21 3300.43 3634.36 3293.62C3630.51 3286.67 3628.59 3278.31 3628.59 3268.54C3628.59 3257.59 3629.99 3247.6 3632.8 3238.57C3635.62 3229.39 3639.76 3221.55 3645.24 3215.04C3650.86 3208.52 3657.52 3203.49 3665.22 3199.94C3672.91 3196.39 3681.64 3194.61 3691.41 3194.61C3701.48 3194.61 3710.36 3196.61 3718.05 3200.61C3725.9 3204.6 3732.04 3210.45 3736.48 3218.14C3741.07 3225.69 3743.36 3234.72 3743.36 3245.23C3743.36 3255.29 3741.66 3264.54 3738.25 3272.98C3735 3281.41 3730.34 3288.74 3724.27 3294.96C3718.35 3301.17 3711.32 3306.06 3703.18 3309.61C3695.04 3313.01 3686.23 3314.71 3676.76 3314.71ZM3675.87 3296.07C3684.75 3296.07 3692.6 3293.92 3699.4 3289.63C3706.36 3285.34 3711.84 3279.49 3715.83 3272.09C3719.83 3264.54 3721.83 3255.96 3721.83 3246.34C3721.83 3235.98 3718.79 3227.91 3712.72 3222.14C3706.66 3216.22 3698 3213.26 3686.75 3213.26C3678.02 3213.26 3670.1 3215.41 3663 3219.7C3656.04 3223.84 3650.56 3229.69 3646.57 3237.24C3642.72 3244.64 3640.8 3253.22 3640.8 3262.99C3640.8 3273.2 3643.83 3281.27 3649.9 3287.19C3655.97 3293.11 3664.62 3296.07 3675.87 3296.07ZM3807.66 3314.71C3797.74 3314.71 3788.86 3312.72 3781.02 3308.72C3773.18 3304.58 3766.96 3298.73 3762.37 3291.18C3757.93 3283.63 3755.71 3274.53 3755.71 3263.88C3755.71 3253.81 3757.34 3244.56 3760.6 3236.13C3764 3227.69 3768.66 3220.36 3774.58 3214.15C3780.65 3207.93 3787.75 3203.12 3795.89 3199.72C3804.03 3196.31 3812.84 3194.61 3822.31 3194.61C3832.52 3194.61 3841.18 3196.39 3848.29 3199.94C3855.39 3203.49 3860.87 3208.75 3864.71 3215.7C3868.56 3222.51 3870.49 3230.87 3870.49 3240.79C3870.49 3255.29 3867.97 3268.17 3862.94 3279.42C3857.91 3290.52 3850.65 3299.17 3841.18 3305.39C3831.86 3311.61 3820.68 3314.71 3807.66 3314.71ZM3812.32 3296.07C3821.2 3296.07 3829.12 3293.92 3836.08 3289.63C3843.03 3285.34 3848.43 3279.49 3852.28 3272.09C3856.28 3264.54 3858.28 3255.96 3858.28 3246.34C3858.28 3235.98 3855.24 3227.91 3849.17 3222.14C3843.11 3216.22 3834.45 3213.26 3823.2 3213.26C3814.47 3213.26 3806.62 3215.41 3799.67 3219.7C3792.71 3223.84 3787.24 3229.69 3783.24 3237.24C3779.24 3244.64 3777.25 3253.22 3777.25 3262.99C3777.25 3273.2 3780.28 3281.27 3786.35 3287.19C3792.42 3293.11 3801.07 3296.07 3812.32 3296.07ZM3846.29 3313.38L3852.5 3282.97L3859.61 3255.66L3862.49 3227.69L3868.71 3195.72H3890.02L3866.71 3313.38H3846.29ZM3880.84 3357.78C3875.51 3357.78 3870.7 3357.19 3866.41 3356.01C3861.97 3354.82 3858.12 3353.05 3854.87 3350.68L3864.19 3334.25C3868.63 3337.95 3874.25 3339.8 3881.06 3339.8C3886.98 3339.8 3891.64 3338.1 3895.05 3334.69C3898.45 3331.44 3900.89 3326.18 3902.37 3318.93L3927.02 3195.72H3948.33L3923.69 3318.93C3918.65 3344.83 3904.37 3357.78 3880.84 3357.78ZM3944.11 3173.08C3940.11 3173.08 3936.86 3171.82 3934.34 3169.3C3931.97 3166.79 3930.79 3163.75 3930.79 3160.2C3930.79 3156.06 3932.2 3152.58 3935.01 3149.77C3937.82 3146.81 3941.52 3145.33 3946.11 3145.33C3949.96 3145.33 3953.14 3146.59 3955.65 3149.1C3958.32 3151.47 3959.65 3154.36 3959.65 3157.76C3959.65 3162.35 3958.24 3166.05 3955.43 3168.86C3952.62 3171.67 3948.85 3173.08 3944.11 3173.08ZM4013.19 3314.71C4003.28 3314.71 3994.4 3312.72 3986.55 3308.72C3978.71 3304.58 3972.49 3298.73 3967.9 3291.18C3963.46 3283.63 3961.24 3274.53 3961.24 3263.88C3961.24 3253.81 3962.87 3244.56 3966.13 3236.13C3969.53 3227.69 3974.19 3220.36 3980.11 3214.15C3986.18 3207.93 3993.29 3203.12 4001.43 3199.72C4009.57 3196.31 4018.37 3194.61 4027.84 3194.61C4038.06 3194.61 4046.71 3196.39 4053.82 3199.94C4060.92 3203.49 4066.4 3208.75 4070.25 3215.7C4074.09 3222.51 4076.02 3230.87 4076.02 3240.79C4076.02 3255.29 4073.5 3268.17 4068.47 3279.42C4063.44 3290.52 4056.19 3299.17 4046.71 3305.39C4037.39 3311.61 4026.22 3314.71 4013.19 3314.71ZM4017.85 3296.07C4026.73 3296.07 4034.65 3293.92 4041.61 3289.63C4048.56 3285.34 4053.97 3279.49 4057.81 3272.09C4061.81 3264.54 4063.81 3255.96 4063.81 3246.34C4063.81 3235.98 4060.77 3227.91 4054.71 3222.14C4048.64 3216.22 4039.98 3213.26 4028.73 3213.26C4020 3213.26 4012.16 3215.41 4005.2 3219.7C3998.24 3223.84 3992.77 3229.69 3988.77 3237.24C3984.78 3244.64 3982.78 3253.22 3982.78 3262.99C3982.78 3273.2 3985.81 3281.27 3991.88 3287.19C3997.95 3293.11 4006.61 3296.07 4017.85 3296.07ZM4051.82 3313.38L4058.04 3282.97L4065.14 3255.66L4068.03 3227.69L4074.24 3195.72H4095.55L4072.24 3313.38H4051.82ZM4160.08 3314.71C4150.16 3314.71 4141.28 3312.72 4133.44 3308.72C4125.59 3304.58 4119.38 3298.73 4114.79 3291.18C4110.35 3283.63 4108.13 3274.53 4108.13 3263.88C4108.13 3253.81 4109.76 3244.56 4113.01 3236.13C4116.42 3227.69 4121.08 3220.36 4127 3214.15C4133.07 3207.93 4140.17 3203.12 4148.31 3199.72C4156.45 3196.31 4165.26 3194.61 4174.73 3194.61C4184.94 3194.61 4193.6 3196.39 4200.7 3199.94C4207.81 3203.49 4213.28 3208.75 4217.13 3215.7C4220.98 3222.51 4222.9 3230.87 4222.9 3240.79C4222.9 3251.74 4221.5 3261.73 4218.69 3270.76C4215.87 3279.79 4211.66 3287.63 4206.03 3294.29C4200.56 3300.8 4193.97 3305.83 4186.27 3309.39C4178.58 3312.94 4169.85 3314.71 4160.08 3314.71ZM4164.74 3296.07C4173.62 3296.07 4181.54 3293.92 4188.49 3289.63C4195.45 3285.34 4200.85 3279.49 4204.7 3272.09C4208.7 3264.54 4210.69 3255.96 4210.69 3246.34C4210.69 3235.98 4207.66 3227.91 4201.59 3222.14C4195.52 3216.22 4186.87 3213.26 4175.62 3213.26C4166.89 3213.26 4159.04 3215.41 4152.09 3219.7C4145.13 3223.84 4139.65 3229.69 4135.66 3237.24C4131.66 3244.64 4129.66 3253.22 4129.66 3262.99C4129.66 3273.2 4132.7 3281.27 4138.77 3287.19C4144.83 3293.11 4153.49 3296.07 4164.74 3296.07ZM4198.71 3313.38L4204.92 3282.97L4211.8 3255.66L4214.91 3227.69L4230.67 3148.66H4251.99L4219.13 3313.38H4198.71ZM4310.29 3314.71C4299.04 3314.71 4289.28 3312.64 4280.99 3308.5C4272.85 3304.21 4266.48 3298.29 4261.9 3290.74C4257.31 3283.04 4255.01 3274.09 4255.01 3263.88C4255.01 3250.56 4257.97 3238.72 4263.89 3228.36C4269.81 3217.85 4277.95 3209.63 4288.31 3203.71C4298.82 3197.65 4310.74 3194.61 4324.06 3194.61C4335.16 3194.61 4344.85 3196.68 4353.14 3200.83C4361.43 3204.97 4367.79 3210.82 4372.23 3218.37C4376.82 3225.91 4379.11 3234.87 4379.11 3245.23C4379.11 3258.55 4376.15 3270.46 4370.23 3280.97C4364.31 3291.33 4356.17 3299.54 4345.81 3305.61C4335.6 3311.68 4323.76 3314.71 4310.29 3314.71ZM4311.62 3296.07C4320.5 3296.07 4328.42 3293.92 4335.38 3289.63C4342.33 3285.34 4347.74 3279.49 4351.58 3272.09C4355.58 3264.54 4357.58 3255.96 4357.58 3246.34C4357.58 3235.98 4354.54 3227.91 4348.48 3222.14C4342.41 3216.22 4333.75 3213.26 4322.5 3213.26C4313.77 3213.26 4305.93 3215.41 4298.97 3219.7C4292.01 3223.84 4286.54 3229.69 4282.54 3237.24C4278.55 3244.64 4276.55 3253.22 4276.55 3262.99C4276.55 3273.2 4279.58 3281.27 4285.65 3287.19C4291.72 3293.11 4300.38 3296.07 4311.62 3296.07ZM4391.71 3313.38L4415.02 3195.72H4435.45L4428.79 3229.91L4426.57 3221.47C4432.04 3211.56 4439 3204.6 4447.44 3200.61C4455.87 3196.61 4466.31 3194.61 4478.74 3194.61L4474.74 3215.26C4473.85 3215.11 4472.97 3215.04 4472.08 3215.04C4471.19 3215.04 4470.23 3215.04 4469.19 3215.04C4457.5 3215.04 4447.81 3218.22 4440.11 3224.58C4432.56 3230.95 4427.46 3240.94 4424.79 3254.55L4413.03 3313.38H4391.71ZM4531.89 3314.71C4520.35 3314.71 4510.36 3312.64 4501.92 3308.5C4493.49 3304.21 4486.97 3298.29 4482.39 3290.74C4477.8 3283.04 4475.5 3274.01 4475.5 3263.65C4475.5 3250.33 4478.39 3238.49 4484.16 3228.13C4489.93 3217.77 4497.78 3209.63 4507.69 3203.71C4517.76 3197.65 4529.15 3194.61 4541.88 3194.61C4552.54 3194.61 4561.79 3196.68 4569.63 3200.83C4577.48 3204.82 4583.54 3210.6 4587.84 3218.14C4592.28 3225.69 4594.5 3234.79 4594.5 3245.45C4594.5 3248.11 4594.35 3250.85 4594.05 3253.66C4593.76 3256.33 4593.39 3258.84 4592.94 3261.21H4491.04L4493.71 3245.67H4582.73L4574.07 3251C4575.4 3242.71 4574.81 3235.76 4572.3 3230.13C4569.78 3224.36 4565.78 3219.99 4560.31 3217.03C4554.98 3213.93 4548.54 3212.37 4540.99 3212.37C4532.11 3212.37 4524.27 3214.52 4517.46 3218.81C4510.8 3222.95 4505.62 3228.8 4501.92 3236.35C4498.22 3243.75 4496.37 3252.48 4496.37 3262.54C4496.37 3273.2 4499.41 3281.49 4505.47 3287.41C4511.69 3293.18 4521.09 3296.07 4533.67 3296.07C4541.07 3296.07 4547.95 3294.88 4554.31 3292.51C4560.68 3290 4565.93 3286.67 4570.08 3282.52L4579.18 3297.84C4573.55 3303.32 4566.52 3307.54 4558.09 3310.5C4549.65 3313.31 4540.92 3314.71 4531.89 3314.71ZM4644.08 3314.71C4634.16 3314.71 4624.76 3313.46 4615.88 3310.94C4607.15 3308.28 4600.42 3305.02 4595.68 3301.17L4605.23 3284.3C4609.81 3287.85 4615.73 3290.74 4622.99 3292.96C4630.39 3295.18 4638.08 3296.29 4646.07 3296.29C4656.29 3296.29 4663.98 3294.73 4669.16 3291.63C4674.34 3288.52 4676.93 3284.3 4676.93 3278.97C4676.93 3275.12 4675.38 3272.24 4672.27 3270.31C4669.16 3268.24 4665.09 3266.69 4660.06 3265.65C4655.18 3264.47 4649.92 3263.36 4644.3 3262.32C4638.67 3261.14 4633.42 3259.51 4628.54 3257.44C4623.65 3255.37 4619.58 3252.41 4616.33 3248.56C4613.22 3244.56 4611.66 3239.31 4611.66 3232.8C4611.66 3224.95 4613.88 3218.22 4618.32 3212.59C4622.76 3206.82 4628.98 3202.38 4636.97 3199.27C4644.96 3196.17 4654.29 3194.61 4664.94 3194.61C4672.64 3194.61 4680.19 3195.57 4687.59 3197.5C4695.14 3199.27 4701.28 3201.86 4706.01 3205.27L4697.58 3222.14C4692.69 3218.74 4687.22 3216.37 4681.15 3215.04C4675.08 3213.56 4669.01 3212.82 4662.95 3212.82C4653.03 3212.82 4645.56 3214.52 4640.52 3217.92C4635.49 3221.18 4632.98 3225.32 4632.98 3230.35C4632.98 3234.2 4634.53 3237.24 4637.64 3239.46C4640.75 3241.53 4644.74 3243.16 4649.63 3244.34C4654.66 3245.52 4659.91 3246.71 4665.39 3247.89C4671.01 3248.93 4676.27 3250.48 4681.15 3252.55C4686.18 3254.48 4690.25 3257.36 4693.36 3261.21C4696.47 3264.91 4698.02 3270.02 4698.02 3276.53C4698.02 3284.67 4695.73 3291.63 4691.14 3297.4C4686.7 3303.02 4680.41 3307.31 4672.27 3310.27C4664.13 3313.23 4654.73 3314.71 4644.08 3314.71Z" fill="white"/>
</svg>
